<svg width="30" height="30" fill="none" xmlns="http://www.w3.org/2000/svg"><g clip-path="url(#clip0)"><path d="M.5 11.382h15.257c.276 0 .322-.135.102-.303l-3.727-2.83a1.136 1.136 0 01-.399-.803V1.394c0-.276.178-.364.398-.197l17.704 13.5c.22.167.22.439 0 .606l-17.704 13.5c-.22.167-.398.08-.398-.197v-6.053c0-.276.178-.635.399-.802l3.726-2.83c.22-.168.175-.303-.101-.303H.5a.5.5 0 01-.5-.5v-6.235a.5.5 0 01.5-.5z" fill="#FFAB18"/></g><defs><clipPath id="clip0"><path fill="#fff" transform="matrix(-1 0 0 1 30 0)" d="M0 0h30v30H0z"/></clipPath></defs></svg>