<svg width="250" height="250" fill="none" xmlns="http://www.w3.org/2000/svg"><circle cx="125" cy="125" r="125" fill="#F1F1F1"/><path d="M203.927 87.605h-6.529v-9.738a1.93 1.93 0 00-1.929-1.93h-4.282a1.93 1.93 0 00-1.928 1.93v9.738h-8.565v-9.738a1.93 1.93 0 00-1.928-1.93h-4.282a1.93 1.93 0 00-1.929 1.93v9.738h-8.564v-9.738a1.93 1.93 0 00-1.928-1.93h-4.283a1.93 1.93 0 00-1.928 1.93v9.738h-8.564v-9.738a1.93 1.93 0 00-1.929-1.93h-4.282a1.93 1.93 0 00-1.928 1.93v9.738h-8.565v-9.738a1.93 1.93 0 00-1.928-1.93h-4.282a1.93 1.93 0 00-1.929 1.93v9.738h-8.564v-9.738a1.93 1.93 0 00-1.929-1.93h-4.282a1.93 1.93 0 00-1.928 1.93v9.738h-8.565v-9.738a1.93 1.93 0 00-1.928-1.93h-4.282a1.93 1.93 0 00-1.928 1.93v9.738h-4.136a3.917 3.917 0 00-3.91 3.911v26.994c-15.454 4.124-26.864 18.173-26.957 34.935-.107 20.089 16.078 36.466 36.16 36.572 8.59.04 16.503-2.9 22.754-7.862h90.951a3.917 3.917 0 003.91-3.912V91.516a3.862 3.862 0 00-3.884-3.911z" fill="#EDEDED"/><path d="M203.183 86.607h-6.53V76.87a1.93 1.93 0 00-1.928-1.93h-4.283a1.93 1.93 0 00-1.928 1.93v9.738h-8.564V76.87a1.93 1.93 0 00-1.929-1.93h-4.282a1.93 1.93 0 00-1.928 1.93v9.738h-8.565V76.87a1.93 1.93 0 00-1.928-1.93h-4.282a1.93 1.93 0 00-1.929 1.93v9.738h-8.564V76.87a1.93 1.93 0 00-1.929-1.93h-4.282a1.93 1.93 0 00-1.928 1.93v9.738h-8.565V76.87a1.93 1.93 0 00-1.928-1.93h-4.282a1.93 1.93 0 00-1.928 1.93v9.738h-8.552V76.87a1.93 1.93 0 00-1.928-1.93h-4.282a1.93 1.93 0 00-1.929 1.93v9.738h-8.564V76.87a1.93 1.93 0 00-1.928-1.93h-4.283a1.93 1.93 0 00-1.928 1.93v9.738h-4.136a3.917 3.917 0 00-3.91 3.912v26.992c-15.44 4.125-26.863 18.173-26.956 34.936-.107 20.088 16.078 36.465 36.16 36.571 8.59.04 16.503-2.9 22.753-7.862h90.951a3.917 3.917 0 003.91-3.911V90.518a3.896 3.896 0 00-3.896-3.91z" fill="#E5E4E4"/><path d="M202.425 85.623h-6.53v-9.738a1.93 1.93 0 00-1.928-1.93h-4.283a1.93 1.93 0 00-1.928 1.93v9.738h-8.565v-9.738a1.93 1.93 0 00-1.928-1.93h-4.269a1.93 1.93 0 00-1.928 1.93v9.738h-8.565v-9.738a1.93 1.93 0 00-1.928-1.93h-4.282a1.93 1.93 0 00-1.928 1.93v9.738h-8.565v-9.738a1.93 1.93 0 00-1.928-1.93h-4.283a1.93 1.93 0 00-1.928 1.93v9.738h-8.564v-9.738a1.93 1.93 0 00-1.929-1.93h-4.282a1.93 1.93 0 00-1.928 1.93v9.738h-8.565v-9.738a1.93 1.93 0 00-1.928-1.93h-4.282a1.93 1.93 0 00-1.929 1.93v9.738h-8.564v-9.738a1.93 1.93 0 00-1.928-1.93h-4.283a1.93 1.93 0 00-1.928 1.93v9.738h-4.136a3.917 3.917 0 00-3.91 3.911v26.993c-15.44 4.124-26.864 18.159-26.943 34.935-.107 20.089 16.078 36.465 36.16 36.572 8.59.04 16.503-2.9 22.754-7.863h90.951a3.916 3.916 0 003.909-3.911V89.534a3.908 3.908 0 00-3.909-3.911z" fill="#DCDCDC"/><path d="M201.68 84.625h-6.53v-9.738a1.93 1.93 0 00-1.928-1.93h-4.282a1.93 1.93 0 00-1.929 1.93v9.738h-8.564v-9.738a1.93 1.93 0 00-1.929-1.93h-4.282a1.93 1.93 0 00-1.928 1.93v9.738h-8.565v-9.738a1.93 1.93 0 00-1.928-1.93h-4.282a1.93 1.93 0 00-1.928 1.93v9.738h-8.565v-9.738a1.93 1.93 0 00-1.928-1.93h-4.283a1.93 1.93 0 00-1.928 1.93v9.738h-8.564v-9.738a1.93 1.93 0 00-1.929-1.93h-4.282a1.93 1.93 0 00-1.928 1.93v9.738h-8.565v-9.738a1.93 1.93 0 00-1.928-1.93h-4.269a1.93 1.93 0 00-1.928 1.93v9.738h-8.565v-9.738a1.93 1.93 0 00-1.928-1.93h-4.282a1.93 1.93 0 00-1.929 1.93v9.738h-4.136a3.917 3.917 0 00-3.91 3.911v26.993c-15.44 4.124-26.863 18.173-26.956 34.936-.107 20.088 16.078 36.465 36.16 36.571 8.59.04 16.503-2.9 22.754-7.862h90.951a3.917 3.917 0 003.91-3.912V88.536a3.898 3.898 0 00-3.897-3.911z" fill="#D4D4D4"/><path d="M200.935 83.64h-6.53v-9.738a1.93 1.93 0 00-1.928-1.929h-4.282a1.93 1.93 0 00-1.928 1.93v9.737h-8.565v-9.738a1.93 1.93 0 00-1.928-1.929h-4.282a1.93 1.93 0 00-1.929 1.93v9.737h-8.564v-9.738a1.93 1.93 0 00-1.929-1.929h-4.282a1.93 1.93 0 00-1.928 1.93v9.737h-8.565v-9.738a1.93 1.93 0 00-1.928-1.929h-4.282a1.93 1.93 0 00-1.929 1.93v9.737h-8.564v-9.738a1.93 1.93 0 00-1.928-1.929h-4.269a1.93 1.93 0 00-1.929 1.93v9.737h-8.564v-9.738a1.93 1.93 0 00-1.928-1.929h-4.283a1.93 1.93 0 00-1.928 1.93v9.737h-8.565v-9.738a1.93 1.93 0 00-1.928-1.929h-4.282a1.93 1.93 0 00-1.928 1.93v9.737h-4.136a3.917 3.917 0 00-3.91 3.912v26.993c-15.453 4.124-26.864 18.172-26.957 34.935-.106 20.088 16.078 36.465 36.16 36.571 8.59.04 16.503-2.9 22.754-7.862h90.951a3.917 3.917 0 003.91-3.911V87.551a3.897 3.897 0 00-3.897-3.91z" fill="#CBCBCB"/><path d="M200.177 82.656h-6.53v-9.751a1.93 1.93 0 00-1.928-1.93h-4.282a1.93 1.93 0 00-1.929 1.93v9.738h-8.564v-9.738a1.93 1.93 0 00-1.928-1.93h-4.283a1.93 1.93 0 00-1.928 1.93v9.738h-8.564v-9.738a1.93 1.93 0 00-1.929-1.93h-4.282a1.93 1.93 0 00-1.928 1.93v9.738h-8.565v-9.738a1.93 1.93 0 00-1.928-1.93h-4.282a1.93 1.93 0 00-1.929 1.93v9.738h-8.551v-9.738a1.93 1.93 0 00-1.928-1.93h-4.282a1.93 1.93 0 00-1.929 1.93v9.738h-8.564v-9.738a1.93 1.93 0 00-1.929-1.93h-4.282a1.93 1.93 0 00-1.928 1.93v9.738H93.44v-9.738a1.93 1.93 0 00-1.928-1.93H87.23a1.93 1.93 0 00-1.928 1.93v9.738h-4.136a3.917 3.917 0 00-3.91 3.911v26.993c-15.44 4.124-26.864 18.173-26.957 34.935-.106 20.089 16.092 36.465 36.173 36.572a36.19 36.19 0 0022.754-7.863h90.951a3.917 3.917 0 003.91-3.911V86.554a3.897 3.897 0 00-3.91-3.898z" fill="#C3C3C2"/><path d="M199.432 81.658h-6.529V71.92a1.93 1.93 0 00-1.929-1.929h-4.282a1.93 1.93 0 00-1.928 1.929v9.738h-8.565V71.92a1.93 1.93 0 00-1.928-1.929h-4.282a1.93 1.93 0 00-1.929 1.929v9.738h-8.564V71.92a1.93 1.93 0 00-1.928-1.929h-4.283a1.93 1.93 0 00-1.928 1.929v9.738h-8.564V71.92a1.93 1.93 0 00-1.929-1.929h-4.282a1.93 1.93 0 00-1.928 1.929v9.738h-8.565V71.92a1.93 1.93 0 00-1.928-1.929h-4.282a1.93 1.93 0 00-1.929 1.929v9.738h-8.564V71.92a1.93 1.93 0 00-1.929-1.929h-4.282a1.93 1.93 0 00-1.928 1.929v9.738h-8.565V71.92a1.93 1.93 0 00-1.928-1.929h-4.282a1.93 1.93 0 00-1.928 1.929v9.738h-4.136a3.917 3.917 0 00-3.91 3.912v26.992c-15.454 4.125-26.864 18.173-26.957 34.936-.093 20.088 16.092 36.465 36.173 36.571 8.59.04 16.504-2.9 22.754-7.862h90.951a3.917 3.917 0 003.91-3.911V85.569a3.897 3.897 0 00-3.897-3.91z" fill="#BABABA"/><path d="M198.674 80.674h-6.529v-9.752a1.93 1.93 0 00-1.929-1.929h-4.282a1.93 1.93 0 00-1.928 1.93v9.737h-8.565v-9.738a1.93 1.93 0 00-1.928-1.929h-4.282a1.93 1.93 0 00-1.929 1.93v9.737h-8.564v-9.738a1.93 1.93 0 00-1.928-1.929h-4.283a1.93 1.93 0 00-1.928 1.93v9.737h-8.564v-9.738a1.93 1.93 0 00-1.929-1.929h-4.282a1.93 1.93 0 00-1.928 1.93v9.737h-8.565v-9.738a1.93 1.93 0 00-1.928-1.929h-4.269a1.93 1.93 0 00-1.928 1.93v9.737h-8.565v-9.738a1.93 1.93 0 00-1.928-1.929h-4.283a1.93 1.93 0 00-1.928 1.93v9.737h-8.564v-9.738a1.93 1.93 0 00-1.929-1.929h-4.282a1.93 1.93 0 00-1.928 1.93v9.737h-4.136a3.917 3.917 0 00-3.91 3.912v26.993C60.3 115.689 48.889 129.737 48.796 146.5c-.106 20.088 16.078 36.465 36.16 36.571 8.59.04 16.504-2.9 22.754-7.862h90.951a3.917 3.917 0 003.91-3.911V84.585a3.88 3.88 0 00-3.897-3.911z" fill="#B1B1B1"/><path d="M197.93 79.676h-6.53v-9.738a1.93 1.93 0 00-1.928-1.93h-4.283a1.93 1.93 0 00-1.928 1.93v9.738h-8.564v-9.738a1.93 1.93 0 00-1.929-1.93h-4.282a1.93 1.93 0 00-1.928 1.93v9.738h-8.565v-9.738a1.93 1.93 0 00-1.928-1.93h-4.282a1.93 1.93 0 00-1.929 1.93v9.738h-8.564v-9.738a1.93 1.93 0 00-1.929-1.93h-4.269a1.93 1.93 0 00-1.928 1.93v9.738H124.6v-9.738a1.93 1.93 0 00-1.929-1.93h-4.282a1.93 1.93 0 00-1.928 1.93v9.738h-8.565v-9.738a1.93 1.93 0 00-1.928-1.93h-4.282a1.93 1.93 0 00-1.929 1.93v9.738h-8.564v-9.738a1.93 1.93 0 00-1.928-1.93h-4.283a1.93 1.93 0 00-1.928 1.93v9.738h-4.136a3.917 3.917 0 00-3.91 3.911v26.993c-15.453 4.124-26.863 18.173-26.957 34.936-.106 20.088 16.079 36.465 36.16 36.571 8.591.04 16.504-2.9 22.754-7.862h90.951a3.917 3.917 0 003.91-3.912V83.587a3.897 3.897 0 00-3.896-3.911z" fill="#A8A8A7"/><path d="M197.185 78.692h-6.53V68.94a1.93 1.93 0 00-1.928-1.929h-4.282a1.93 1.93 0 00-1.929 1.929v9.738h-8.564V68.94a1.93 1.93 0 00-1.929-1.929h-4.282a1.93 1.93 0 00-1.928 1.929v9.738h-8.565V68.94a1.93 1.93 0 00-1.928-1.929h-4.282a1.93 1.93 0 00-1.929 1.929v9.738h-8.564V68.94a1.93 1.93 0 00-1.928-1.929h-4.283a1.93 1.93 0 00-1.928 1.929v9.738h-8.564V68.94a1.93 1.93 0 00-1.929-1.929h-4.282a1.93 1.93 0 00-1.928 1.929v9.738h-8.565V68.94a1.93 1.93 0 00-1.928-1.929h-4.282a1.93 1.93 0 00-1.929 1.929v9.738h-8.564V68.94a1.93 1.93 0 00-1.928-1.929h-4.283a1.93 1.93 0 00-1.928 1.929v9.738h-4.123a3.917 3.917 0 00-3.91 3.912v26.992c-15.453 4.125-26.863 18.173-26.956 34.936-.107 20.088 16.078 36.465 36.16 36.571 8.59.04 16.503-2.9 22.754-7.862h90.951a3.916 3.916 0 003.909-3.911V82.602a3.897 3.897 0 00-3.896-3.91z" fill="#9E9E9E"/><path d="M196.427 77.694h-6.53v-9.738a1.93 1.93 0 00-1.928-1.93h-4.282a1.93 1.93 0 00-1.929 1.93v9.738h-8.564v-9.738a1.93 1.93 0 00-1.929-1.93h-4.282a1.93 1.93 0 00-1.928 1.93v9.738h-8.551v-9.738a1.93 1.93 0 00-1.929-1.93h-4.282a1.93 1.93 0 00-1.928 1.93v9.738H139.8v-9.738a1.93 1.93 0 00-1.928-1.93h-4.282a1.93 1.93 0 00-1.929 1.93v9.738h-8.564v-9.738a1.93 1.93 0 00-1.928-1.93h-4.283a1.93 1.93 0 00-1.928 1.93v9.738h-8.564v-9.738a1.93 1.93 0 00-1.929-1.93h-4.282a1.93 1.93 0 00-1.928 1.93v9.738H89.69v-9.738a1.93 1.93 0 00-1.928-1.93h-4.27a1.93 1.93 0 00-1.928 1.93v9.738H77.43a3.917 3.917 0 00-3.91 3.911v26.993c-15.454 4.124-26.864 18.173-26.957 34.935-.12 20.089 16.078 36.466 36.16 36.572 8.59.04 16.503-2.9 22.754-7.862h90.951a3.918 3.918 0 003.91-3.912V81.605a3.908 3.908 0 00-3.91-3.911z" fill="#959594"/><path d="M195.682 76.71h-6.53v-9.752a1.93 1.93 0 00-1.928-1.93h-4.282a1.93 1.93 0 00-1.929 1.93v9.738h-8.564v-9.738a1.93 1.93 0 00-1.928-1.93h-4.283a1.93 1.93 0 00-1.928 1.93v9.738h-8.564v-9.738a1.93 1.93 0 00-1.929-1.93h-4.282a1.93 1.93 0 00-1.928 1.93v9.738h-8.565v-9.738a1.93 1.93 0 00-1.928-1.93h-4.282a1.93 1.93 0 00-1.929 1.93v9.738h-8.564v-9.738a1.93 1.93 0 00-1.928-1.93h-4.283a1.93 1.93 0 00-1.928 1.93v9.738h-8.564v-9.738a1.93 1.93 0 00-1.929-1.93h-4.282a1.93 1.93 0 00-1.928 1.93v9.738h-8.552v-9.738a1.93 1.93 0 00-1.928-1.93h-4.282a1.93 1.93 0 00-1.928 1.93v9.738H76.67a3.917 3.917 0 00-3.91 3.911V107.6c-15.454 4.124-26.864 18.173-26.957 34.936-.107 20.088 16.078 36.465 36.16 36.571 8.59.04 16.503-2.9 22.754-7.862h90.951a3.917 3.917 0 003.91-3.912V80.62a3.897 3.897 0 00-3.897-3.91z" fill="#8C8B8B"/><path d="M194.924 75.711h-6.53v-9.738a1.93 1.93 0 00-1.928-1.929h-4.282a1.93 1.93 0 00-1.929 1.93v9.737h-8.564v-9.738a1.93 1.93 0 00-1.928-1.929h-4.283a1.93 1.93 0 00-1.928 1.93v9.737h-8.564v-9.738a1.93 1.93 0 00-1.929-1.929h-4.269a1.93 1.93 0 00-1.928 1.93v9.737h-8.564v-9.738a1.93 1.93 0 00-1.929-1.929h-4.282a1.93 1.93 0 00-1.928 1.93v9.737h-8.565v-9.738a1.93 1.93 0 00-1.928-1.929h-4.282a1.93 1.93 0 00-1.929 1.93v9.737h-8.564v-9.738a1.93 1.93 0 00-1.929-1.929H98.68a1.93 1.93 0 00-1.928 1.93v9.737h-8.565v-9.738a1.93 1.93 0 00-1.928-1.929h-4.282a1.93 1.93 0 00-1.928 1.93v9.737h-4.136a3.917 3.917 0 00-3.91 3.912v26.993c-15.44 4.124-26.864 18.172-26.944 34.935-.12 20.088 16.079 36.465 36.16 36.572 8.59.053 16.504-2.901 22.754-7.863h90.951a3.917 3.917 0 003.91-3.911V79.622a3.908 3.908 0 00-3.91-3.91z" fill="#828181"/><path d="M194.179 74.727h-6.529V64.99a1.93 1.93 0 00-1.929-1.93h-4.282a1.93 1.93 0 00-1.928 1.93v9.738h-8.565V64.99a1.93 1.93 0 00-1.928-1.93h-4.282a1.93 1.93 0 00-1.929 1.93v9.738h-8.564V64.99a1.93 1.93 0 00-1.929-1.93h-4.282a1.93 1.93 0 00-1.928 1.93v9.738h-8.565V64.99a1.93 1.93 0 00-1.928-1.93h-4.282a1.93 1.93 0 00-1.928 1.93v9.738h-8.565V64.99a1.93 1.93 0 00-1.928-1.93h-4.282a1.93 1.93 0 00-1.929 1.93v9.738h-8.564V64.99a1.93 1.93 0 00-1.929-1.93h-4.282a1.93 1.93 0 00-1.928 1.93v9.738h-8.565V64.99a1.93 1.93 0 00-1.928-1.93h-4.269a1.93 1.93 0 00-1.928 1.93v9.738h-4.136a3.917 3.917 0 00-3.91 3.911v26.993c-15.44 4.124-26.864 18.16-26.957 34.936-.106 20.088 16.078 36.465 36.16 36.571 8.59.04 16.504-2.9 22.754-7.862h90.951a3.917 3.917 0 003.91-3.912V78.638a3.897 3.897 0 00-3.897-3.91z" fill="#777776"/><path d="M193.435 73.743h-6.53V63.99a1.93 1.93 0 00-1.928-1.929h-4.283a1.93 1.93 0 00-1.928 1.93v9.738h-8.564V63.99a1.93 1.93 0 00-1.929-1.929h-4.282a1.93 1.93 0 00-1.928 1.93v9.738h-8.565V63.99a1.93 1.93 0 00-1.928-1.929h-4.282a1.93 1.93 0 00-1.929 1.93v9.738h-8.564V63.99a1.93 1.93 0 00-1.929-1.929h-4.282a1.93 1.93 0 00-1.928 1.93v9.738h-8.565V63.99a1.93 1.93 0 00-1.928-1.929h-4.282a1.93 1.93 0 00-1.929 1.93v9.738h-8.564V63.99a1.93 1.93 0 00-1.928-1.929h-4.27a1.93 1.93 0 00-1.928 1.93v9.738h-8.564V63.99a1.93 1.93 0 00-1.928-1.929h-4.283a1.93 1.93 0 00-1.928 1.93v9.738h-4.136a3.917 3.917 0 00-3.91 3.91v26.994c-15.453 4.124-26.864 18.172-26.957 34.935-.106 20.088 16.079 36.465 36.16 36.572a36.194 36.194 0 0022.754-7.863h90.951a3.917 3.917 0 003.91-3.911V77.64a3.894 3.894 0 00-3.896-3.897z" fill="#6D6C6C"/><path d="M192.677 72.745h-6.53v-9.738a1.93 1.93 0 00-1.929-1.93h-4.282a1.93 1.93 0 00-1.928 1.93v9.738h-8.565v-9.738a1.93 1.93 0 00-1.928-1.93h-4.282a1.93 1.93 0 00-1.928 1.93v9.738h-8.565v-9.738a1.93 1.93 0 00-1.928-1.93h-4.282a1.93 1.93 0 00-1.929 1.93v9.738h-8.564v-9.738a1.93 1.93 0 00-1.929-1.93h-4.282a1.93 1.93 0 00-1.928 1.93v9.738h-8.565v-9.738a1.93 1.93 0 00-1.928-1.93h-4.282a1.93 1.93 0 00-1.929 1.93v9.738h-8.551v-9.738a1.93 1.93 0 00-1.928-1.93h-4.282a1.93 1.93 0 00-1.929 1.93v9.738H85.94v-9.738a1.93 1.93 0 00-1.928-1.93h-4.283a1.93 1.93 0 00-1.928 1.93v9.738h-4.136a3.917 3.917 0 00-3.91 3.911v26.993c-15.44 4.124-26.863 18.173-26.957 34.935-.106 20.089 16.092 36.452 36.16 36.572 8.591.04 16.504-2.9 22.754-7.862h90.951a3.917 3.917 0 003.91-3.912V76.656a3.897 3.897 0 00-3.896-3.911z" fill="#626261"/><path d="M191.932 71.76h-6.53v-9.75a1.93 1.93 0 00-1.928-1.93h-4.282a1.93 1.93 0 00-1.929 1.93v9.738h-8.564V62.01a1.93 1.93 0 00-1.929-1.93h-4.282a1.93 1.93 0 00-1.928 1.93v9.738h-8.565V62.01a1.93 1.93 0 00-1.928-1.93h-4.282a1.93 1.93 0 00-1.929 1.93v9.738h-8.564V62.01a1.93 1.93 0 00-1.928-1.93h-4.283a1.93 1.93 0 00-1.928 1.93v9.738h-8.551V62.01a1.93 1.93 0 00-1.928-1.93h-4.283a1.93 1.93 0 00-1.928 1.93v9.738h-8.564V62.01a1.93 1.93 0 00-1.929-1.93h-4.282a1.93 1.93 0 00-1.928 1.93v9.738h-8.565V62.01a1.93 1.93 0 00-1.928-1.93h-4.282a1.93 1.93 0 00-1.929 1.93v9.738H72.92a3.917 3.917 0 00-3.91 3.911v26.993c-15.453 4.124-26.863 18.173-26.956 34.936-.107 20.088 16.078 36.465 36.16 36.571 8.59.04 16.503-2.9 22.754-7.862h90.951a3.917 3.917 0 003.909-3.912V75.672a3.888 3.888 0 00-3.896-3.912z" fill="#575756"/><path d="M85.142 75.632a1.93 1.93 0 01-1.928 1.929H78.93a1.93 1.93 0 01-1.928-1.93V61.93A1.93 1.93 0 0178.931 60h4.283a1.93 1.93 0 011.928 1.929v13.703zm16.703 0a1.93 1.93 0 01-1.928 1.929h-4.282a1.93 1.93 0 01-1.929-1.93V61.93A1.93 1.93 0 0195.635 60h4.282a1.93 1.93 0 011.928 1.929v13.703zm16.704 0a1.93 1.93 0 01-1.929 1.929h-4.282a1.93 1.93 0 01-1.928-1.93V61.93a1.93 1.93 0 011.928-1.93h4.282a1.93 1.93 0 011.929 1.929v13.703zm16.69 0a1.93 1.93 0 01-1.929 1.929h-4.282a1.93 1.93 0 01-1.928-1.93V61.93c.013-1.064.878-1.929 1.928-1.929h4.282a1.93 1.93 0 011.929 1.929v13.703zm16.703 0a1.93 1.93 0 01-1.928 1.929h-4.282a1.93 1.93 0 01-1.929-1.93V61.93a1.93 1.93 0 011.929-1.93h4.282a1.93 1.93 0 011.928 1.929v13.703zm16.703 0a1.93 1.93 0 01-1.928 1.929h-4.282a1.93 1.93 0 01-1.928-1.93V61.93a1.93 1.93 0 011.928-1.93h4.282a1.93 1.93 0 011.928 1.929v13.703zm16.704 0a1.93 1.93 0 01-1.928 1.929h-4.283a1.93 1.93 0 01-1.928-1.93V61.93a1.93 1.93 0 011.928-1.93h4.283a1.93 1.93 0 011.928 1.929v13.703z" fill="#FFAB18"/><path d="M195.788 162.305a3.916 3.916 0 01-3.909 3.911H72.867a3.917 3.917 0 01-3.91-3.911V75.578a3.917 3.917 0 013.91-3.91H191.88a3.916 3.916 0 013.909 3.91v86.727z" fill="#EDEDED"/><path d="M195.788 96.798v-21.22a3.916 3.916 0 00-3.909-3.91H72.867a3.917 3.917 0 00-3.91 3.91v21.22h126.831z" fill="#FFAB18"/><path d="M96.712 114.172a1.93 1.93 0 01-1.928 1.929H83.227a1.93 1.93 0 01-1.928-1.929v-6.745a1.93 1.93 0 011.928-1.929h11.557a1.93 1.93 0 011.928 1.929v6.745zm21.185 0a1.93 1.93 0 01-1.928 1.929h-11.557a1.93 1.93 0 01-1.928-1.929v-6.745a1.93 1.93 0 011.928-1.929h11.557a1.93 1.93 0 011.928 1.929v6.745zm21.198 0a1.93 1.93 0 01-1.928 1.929H125.61a1.93 1.93 0 01-1.928-1.929v-6.745a1.93 1.93 0 011.928-1.929h11.557a1.93 1.93 0 011.928 1.929v6.745zm21.199 0a1.93 1.93 0 01-1.929 1.929h-11.556a1.93 1.93 0 01-1.929-1.929v-6.745a1.93 1.93 0 011.929-1.929h11.556a1.93 1.93 0 011.929 1.929v6.745zm21.198 0a1.93 1.93 0 01-1.928 1.929h-11.557a1.93 1.93 0 01-1.928-1.929v-6.745a1.93 1.93 0 011.928-1.929h11.557a1.93 1.93 0 011.928 1.929v6.745zm-84.78 18.359a1.93 1.93 0 01-1.928 1.929H83.227a1.93 1.93 0 01-1.928-1.929v-6.745a1.93 1.93 0 011.928-1.929h11.557a1.93 1.93 0 011.928 1.929v6.745zm21.185 0a1.93 1.93 0 01-1.928 1.929h-11.557a1.93 1.93 0 01-1.928-1.929v-6.745a1.93 1.93 0 011.928-1.929h11.557a1.93 1.93 0 011.928 1.929v6.745zm21.198 0a1.93 1.93 0 01-1.928 1.929H125.61a1.93 1.93 0 01-1.928-1.929v-6.745a1.93 1.93 0 011.928-1.929h11.557a1.93 1.93 0 011.928 1.929v6.745zm21.199 0a1.93 1.93 0 01-1.929 1.929h-11.556a1.93 1.93 0 01-1.929-1.929v-6.745a1.93 1.93 0 011.929-1.929h11.556a1.93 1.93 0 011.929 1.929v6.745zm21.198 0a1.93 1.93 0 01-1.928 1.929h-11.557a1.93 1.93 0 01-1.928-1.929v-6.745a1.93 1.93 0 011.928-1.929h11.557a1.93 1.93 0 011.928 1.929v6.745zm-84.78 18.346a1.93 1.93 0 01-1.928 1.929H83.227a1.93 1.93 0 01-1.928-1.929v-6.745a1.93 1.93 0 011.928-1.929h11.557a1.93 1.93 0 011.928 1.929v6.745zm21.185 0a1.93 1.93 0 01-1.928 1.929h-11.557a1.93 1.93 0 01-1.928-1.929v-6.745a1.93 1.93 0 011.928-1.929h11.557a1.93 1.93 0 011.928 1.929v6.745zm21.198 0a1.93 1.93 0 01-1.928 1.929H125.61a1.93 1.93 0 01-1.928-1.929v-6.745a1.93 1.93 0 011.928-1.929h11.557a1.93 1.93 0 011.928 1.929v6.745zm21.199 0a1.93 1.93 0 01-1.929 1.929h-11.556a1.93 1.93 0 01-1.929-1.929v-6.745a1.93 1.93 0 011.929-1.929h11.556a1.93 1.93 0 011.929 1.929v6.745zm21.198 0a1.93 1.93 0 01-1.928 1.929h-11.557a1.93 1.93 0 01-1.928-1.929v-6.745a1.93 1.93 0 011.928-1.929h11.557a1.93 1.93 0 011.928 1.929v6.745z" fill="#9D9D9C"/><path d="M114.719 137.906c-.107 20.088-16.478 36.279-36.559 36.172-20.081-.106-36.266-16.483-36.16-36.571.107-20.089 16.478-36.279 36.559-36.173 20.081.107 36.266 16.483 36.16 36.572z" fill="#3A3F57"/><path d="M108.149 137.866c-.093 16.456-13.498 29.72-29.95 29.627-16.45-.08-29.709-13.49-29.629-29.946.093-16.457 13.498-29.721 29.95-29.641 16.45.093 29.709 13.503 29.629 29.96z" fill="#fff"/><path d="M78.2 110.394l-.04 5.468m-.24 44.234l-.026 5.468m-27.422-27.738l5.466.027m44.218.239l5.466.04m-47.025-19.703l3.857 3.872m31.186 31.356l3.857 3.872m-38.461.439l3.764-3.965m30.48-32.048l3.764-3.965" stroke="#3A3F57" stroke-width="2.857" stroke-miterlimit="10" stroke-linecap="round" stroke-linejoin="round"/><path d="M79.33 137.267l-.81-13.077-.865 13.077h1.675z" fill="#3C3C3B"/><path d="M78.506 136.842l-20.773.771 20.76.905.013-1.676z" fill="#3C3C3B"/><path d="M67.688 118.794l-.345.199 12.907 22.393.345-.199-12.907-22.393z" fill="#3A3F57"/><path d="M80.248 137.693c0 .971-.785 1.743-1.755 1.743a1.76 1.76 0 01-1.743-1.756 1.76 1.76 0 011.756-1.743c.957 0 1.742.785 1.742 1.756z" fill="#3C3C3B"/></svg>