<svg width="250" height="250" fill="none" xmlns="http://www.w3.org/2000/svg"><circle cx="125" cy="125" r="125" fill="#F1F1F1"/><path d="M69.608 172.296a2.61 2.61 0 01-.45 3.295c-1.803 1.666-4.68 3.613-8.179 4.927-5.12 1.92-10.805 2.105-15.925-.219-3.201-1.454-6.128-4.066-8.196-7.445l-3.025 1.135a1.99 1.99 0 01-2.562-1.162l-.03-.078a1.986 1.986 0 011.164-2.558l2.483-.929c-.399-.825-.68-1.335-.852-1.801-.291-.774-.562-1.734-.785-2.798l-2.562.959a1.986 1.986 0 11-1.398-3.72l3.103-1.163c-.487-3.882.024-7.701 1.48-10.898 2.47-5.433 7.126-9.299 12.48-11.307 3.116-1.165 5.684-1.514 7.759-1.534a2.677 2.677 0 012.707 2.552l.004.043a2.685 2.685 0 01-2.593 2.802c-1.702.067-3.709.405-6.037 1.277-3.41 1.284-6.42 3.65-8.142 7.299-.97 2.133-1.424 4.687-.91 7.235l17.455-6.542a1.987 1.987 0 111.398 3.721l-18.23 6.833c.243.882.484 1.763.69 2.304.26.696.525 1.396.951 2.295l18.267-6.85a2.031 2.031 0 012.612 1.186 2.031 2.031 0 01-1.188 2.612l-17.495 6.556c1.388 2.044 3.202 3.572 5.124 4.444 3.81 1.666 7.323 1.585 11.2.131a21.827 21.827 0 005.828-3.281 2.626 2.626 0 013.854.679zm100.34-103.962l1.589-4.007c-1.749-.811-3.364-1.868-4.615-2.935a2.657 2.657 0 01-.418-3.57l.098-.135c.89-1.23 2.629-1.44 3.765-.443 1.159 1.018 2.566 1.968 4.192 2.632 2.366.97 4.354.703 5.022-.983.637-1.603-.29-3.159-2.945-5.471-3.841-3.339-6.037-6.688-4.414-10.78 1.472-3.711 5.202-5.568 9.997-4.635L183.807 34l4.071 1.666-1.474 3.712c1.482.687 2.642 1.399 3.568 2.106 1.132.864 1.361 2.497.521 3.653a2.558 2.558 0 01-3.687.506 13.735 13.735 0 00-3.441-2.02c-2.699-1.104-4.038-.28-4.508.9-.553 1.393.549 2.873 3.543 5.667 4.239 3.794 5.311 6.93 3.805 10.725-1.488 3.755-5.377 5.89-10.487 4.777l-1.706 4.302-4.064-1.66z" fill="#060C97"/><g filter="url(#filter0_d)"><path d="M119.937 211.198s-.435 5.411-.082 7.171c.189.942 1.241 2.88.758 3.766-.482.886-1.033 1.108-1.033 1.108l-12.501.199c-.68.011-.23-.42.318-.818.899-.65 1.624-1.078 4.494-2.444.187-.089.869-.515 1.115-.663.623-.374 1.248-.963 1.788-1.552.897-.982.976-5.749.976-5.749l4.167-1.018z" fill="#F7A491"/><path d="M110.167 139.267s-5.373-2.649-4.34 3.111c1.033 5.76 8.905 70.537 8.905 70.537l7.373.41s.942-21.597.734-24.698c-.206-3.101-1.427-7.9-1.427-7.9l-.626-19.16-6.955-23.656-3.664 1.356z" fill="#352E73"/><path d="M113.008 219.516c3.304.834 5.748.268 7.116-.276.353.982.819 2.215.572 2.925-.304.871-.699 1.258-1.08 1.268-3.02.077-11.098-.006-13.4.024a.37.37 0 01-.292-.608c.572-.67 6.838-3.186 7.084-3.333z" fill="#2D2861"/><path d="M105.829 100.337s-4.542-8.74-5.246-11.95c-.705-3.208-3.145-19.366-2.939-20.407.206-1.04 4.064-3.545 3.588-4.429-.476-.883-4.15-.885-4.993-.81-.842.076-2.532.567-3.258 1.164-.723.596.814 19.96 1.273 24.13.46 4.168 6.102 17.006 6.102 17.006l5.473-4.704zm35.392 68.116s3.746-3.928 4.581-5.517c.448-.849.852-3.017 1.785-3.403.933-.385 1.501-.209 1.501-.209l9.832 7.72c.536.421-.085.472-.761.434-1.107-.062-1.941-.185-5.029-.933-.202-.049-.999-.147-1.283-.187-.719-.101-1.576-.039-2.366.08-1.316.198-4.379 3.849-4.379 3.849l-3.881-1.834z" fill="#F7A491"/><path d="M151.84 166.358c-2.042-2.73-4.297-3.83-5.7-4.27.346-.985.724-2.273 1.364-2.668.783-.485 1.324-.383 1.628-.151 2.392 1.841 8.661 6.88 10.466 8.308a.37.37 0 01-.157.657c-.865.16-7.316-1.834-7.601-1.876zm-10.533-68.682c-2.332-4.892-7.499-7.585-12.504-6.282-1.796-2.43-4.572-4.13-7.461-4.54-5.7-.808-13.056 1.957-12.306 7.908-1.802 4.162-1.36 9.898 2.238 12.708-.661 5.471 4.825 10.324 11.316 9.669 2.612 3.605 7.154 5.72 11.401 4.897 1.02-.198 2.567-.568 2.833-.523-.332-.038 7.405 5.029 12.742-3.992 5.447-9.207.083-19.502-8.259-19.845z" fill="#2D2861"/><path d="M108.005 141.354s12.049-5.358 12.238-4.746c1.51 4.865 6.209 3.296 9 11.866 1.169 3.588 2.369 27.46 2.369 27.46s4.751-3.944 11.541-10.833c.521-.529 5.626 4.325 5.626 4.325-13.479 18.209-19.292 19.159-21.541 18.139-4.695-2.128-14.599-31.896-14.584-31.892-1.188-2.317-4.649-14.319-4.649-14.319z" fill="#7271B3"/><path d="M127.98 107.727s17.416-.023 21.144-.238c3.375-.195 16.759.145 17.282.085.523-.061 3.983-5.921 4.559-5.292.574.629-1.924 2.904-1.152 3.496.773.591 9.08-.733 8.971-.118-.206 1.151-5.052 1.003-5.048 1.559.005.555 5.072-.312 5.416.61.344.921-4.874.375-5.082.785-.208.412 4.84 1.163 4.323 2.021-.281.464-4.472-.776-4.453-.144.02.635 3.078 2.078 2.704 2.582-.376.504-2.4-1.55-4.175-1.575-1.776-.025-3.045-.952-5.878-.174-1.399.384-12.077 1.689-21.1 2.461-9.251.789-16.833 1.041-16.833 1.041l-.678-7.099z" fill="#F7A491"/><path d="M102.156 120.038c-.231-2.797.319-4.95.446-5.877-.847-2.905-2.646-9.101-3.292-10.319 0 0 3.031-5.826 6.136-5.787 0 0 3.171 7.146 5.62 8.423.036-.009.867.37 1.233.368 2.367-.017 10.635-.268 12.18-.294l-.869 11.731c-5.993 11.745-4.37 17.91-2.091 20.189 1.073 1.073-14.953 5.426-15.69 3.906-.871-1.791-3.207-16.688-3.673-22.34z" fill="#FCC13F"/><path d="M120.275 106.994c1.526-.729 12.562-.363 12.562-.363s1.543 7.687.297 9.534c0 0-9.87 1.469-9.588 2.277l-3.271-11.448z" fill="#FCC13F"/><path d="M117.381 102.055s-.194 4.193.002 5.938c.197 1.747-1.792 5.839-5.492 5.911-3.699.072-.544-3.928-.219-5.647.325-1.718.712-8.444.712-8.444l4.997 2.242z" fill="#F7A491"/><path d="M112.386 99.814s-.09 1.561-.219 3.371c1.167 1.391 2.961 2.103 5.143 1.255.022-1.297.073-2.385.073-2.385l-4.997-2.242z" fill="#F47458"/><path d="M117.689 89.564s2.095.627 3.271 2.724c1.177 2.096 1.672 8.062-2.848 10.521-4.517 2.457-7.616-1.673-7.41-5.479.207-3.81 1.371-8.827 6.987-7.766z" fill="#F7A491"/><path d="M109.793 96.07c.306.943.999 1.564 1.549 1.385.549-.178.746-1.088.44-2.03-.306-.943-.999-1.564-1.549-1.385-.547.178-.746 1.086-.44 2.03z" fill="#F7A491"/><path d="M117.058 89.396s2.295 6.274 4.641 6.982c2.345.708 2.102 3.768 2.102 3.768s.434-7.076-1.689-8.852c-2.123-1.777-5.054-1.898-5.054-1.898z" fill="#2D2861"/><path d="M120.666 97.578c-.382.967-.163 1.96.492 2.217.654.259 1.492-.316 1.876-1.282.381-.967.162-1.96-.491-2.218-.657-.26-1.496.316-1.877 1.283z" fill="#F7A491"/><path d="M92.324 65.397s5.103.222 5.702.222c.598 0 2.341-1.801 2.341-1.801l-8.043 1.579z" fill="#F47458"/><path d="M109.023 34.43c6.285 8.954 4.12 21.309-4.835 27.592-8.956 6.285-21.309 4.12-27.592-4.835-6.285-8.953-4.119-21.308 4.835-27.592 8.954-6.283 21.308-4.118 27.592 4.835z" fill="#FEE2BF"/><path d="M106.415 36.26c5.272 7.515 3.458 17.88-4.057 23.154-7.515 5.272-17.88 3.458-23.154-4.057-5.272-7.513-3.456-17.879 4.057-23.154 7.514-5.272 17.881-3.456 23.154 4.057z" fill="#FCC13F"/><path d="M94.728 57.5l-.723-2.677a13.47 13.47 0 01-3.54.311 1.688 1.688 0 01-1.6-1.663l-.003-.108a1.685 1.685 0 011.789-1.707 9.816 9.816 0 003.2-.3c1.608-.435 2.54-1.353 2.235-2.48-.289-1.071-1.375-1.503-3.652-1.645-3.292-.199-5.732-1.052-6.47-3.787-.671-2.481.55-4.899 3.406-6.308l-.725-2.677 2.763-.748.67 2.481c1.04-.232 1.917-.323 2.673-.325a1.685 1.685 0 011.686 1.668 1.687 1.687 0 01-1.722 1.711 8.914 8.914 0 00-2.572.32c-1.832.496-2.212 1.444-1.998 2.233.25.931 1.4 1.256 4.04 1.51 3.674.277 5.448 1.461 6.133 4 .678 2.51-.519 5.132-3.609 6.573l.778 2.877-2.759.742z" fill="#FEE2BF"/><path d="M98.026 65.62l2.105-1.895s-.995-1.188-.581-1.416c.672-.372 1.822 1.065 1.72 1.412-.102.35-1.339 1.474-1.339 1.474l-1.905.424z" fill="#F7A491"/></g><defs><filter id="filter0_d" x="58" y="21" width="136.168" height="227.467" filterUnits="userSpaceOnUse" color-interpolation-filters="sRGB"><feFlood flood-opacity="0" result="BackgroundImageFix"/><feColorMatrix in="SourceAlpha" values="0 0 0 0 0 0 0 0 0 0 0 0 0 0 0 0 0 0 127 0" result="hardAlpha"/><feOffset dy="10"/><feGaussianBlur stdDeviation="7.5"/><feComposite in2="hardAlpha" operator="out"/><feColorMatrix values="0 0 0 0 0 0 0 0 0 0 0 0 0 0 0 0 0 0 0.6 0"/><feBlend in2="BackgroundImageFix" result="effect1_dropShadow"/><feBlend in="SourceGraphic" in2="effect1_dropShadow" result="shape"/></filter></defs></svg>