<svg width="250" height="250" fill="none" xmlns="http://www.w3.org/2000/svg"><circle cx="125" cy="125" r="125" fill="#F1F1F1"/><mask id="a" style="mask-type:alpha" maskUnits="userSpaceOnUse" x="0" y="0" width="250" height="250"><circle cx="125" cy="125" r="125" fill="#F1F1F1"/></mask><g mask="url(#a)"><path d="M77.322 136.547s25.053-41.613 27.603-39.668c2.55 1.944-.68 46.601-.68 46.601l-23.864 7.235-3.06-14.168z" fill="#E6A665"/><g filter="url(#filter0_d)"><path d="M126.117 220.84l15.363-18.285 32.709-42.091 11.22-19.848-76.106-3.405-39.7 61.625-27.53 51.112h71.273l12.771-29.108z" fill="#F7D6B4"/></g><path d="M182.461 56.243l-9.589 8.99c-4.351 4.074-11.178 3.856-15.257-.495-4.075-4.35-3.857-11.177.494-15.257l9.589-8.99c4.351-4.074 11.177-3.856 15.257.495 4.075 4.35 3.852 11.178-.494 15.258z" fill="#F7D6B4"/><path opacity=".34" d="M174.19 160.464l11.219-19.848-19.263-.791 8.044 20.639z" fill="#A86420"/><path opacity=".55" d="M97.047 171.312l48.094 7.39a8.68 8.68 0 017.278 9.775l14.87-19.136-70.242 1.971z" fill="#E6A665"/><g opacity=".37"><path opacity=".37" d="M162.566 173.554l-70.933-3.846a8.659 8.659 0 01-8.175-9.117l7.724-142.39a8.658 8.658 0 019.116-8.176l70.932 3.846a8.657 8.657 0 018.176 9.116l-7.724 142.391c-.26 4.771-4.34 8.431-9.116 8.176z" fill="#393F40"/><path opacity=".37" d="M174.885 31.625l-80.151-4.343-6.694 123.553 80.151 4.343 6.694-123.553z" fill="#39575C"/></g><g opacity=".37"><path opacity=".37" d="M171.252 169.139l-70.869 4.845c-4.77.324-8.904-3.278-9.228-8.048L81.433 23.667c-.324-4.77 3.278-8.904 8.049-9.228l70.868-4.845c4.771-.324 8.904 3.278 9.228 8.049L179.3 159.91c.329 4.771-3.278 8.899-8.048 9.228z" fill="#393F40"/><path opacity=".37" d="M166.157 26.774L86.07 32.248l8.439 123.454 80.087-5.474-8.439-123.454z" fill="#39575C"/></g><path d="M166.949 173.872H95.915a8.66 8.66 0 01-8.66-8.659V22.615a8.66 8.66 0 018.66-8.66h71.034a8.66 8.66 0 018.659 8.66v142.598c-.005 4.781-3.878 8.659-8.659 8.659z" fill="#393F40"/><path d="M171.565 31.492H91.293v123.739h80.272V31.492z" fill="#060C97"/><path opacity=".77" d="M138.851 24.836l-14.838.074a1.368 1.368 0 01-1.376-1.37c0-.76.616-1.382 1.371-1.382l14.843-.074a1.369 1.369 0 011.376 1.37 1.389 1.389 0 01-1.376 1.382zm5.488 140.999l-25.819.074a1.368 1.368 0 01-1.376-1.37c0-.76.616-1.382 1.371-1.382l25.818-.074a1.368 1.368 0 011.376 1.371c0 .754-.611 1.376-1.37 1.381z" fill="#4F6363"/><path opacity=".12" d="M102.221 37.474h-6.63c-.829 0-1.498-.67-1.498-1.498 0-.829.67-1.498 1.498-1.498h6.63c.829 0 1.498.67 1.498 1.498a1.5 1.5 0 01-1.498 1.498zm6.269 0h-2.263c-.829 0-1.498-.67-1.498-1.498 0-.829.669-1.498 1.498-1.498h2.263c.829 0 1.498.67 1.498 1.498 0 .829-.669 1.498-1.498 1.498zm59.452 0h-5.817c-.829 0-1.498-.67-1.498-1.498 0-.829.669-1.498 1.498-1.498h5.817c.829 0 1.498.67 1.498 1.498 0 .829-.669 1.498-1.498 1.498z" fill="#F1F1F2"/><path d="M132.237 103.716c15.406 0 27.896-12.492 27.896-27.901 0-15.41-12.49-27.902-27.896-27.902-15.407 0-27.896 12.492-27.896 27.901 0 15.41 12.489 27.902 27.896 27.902z" fill="#FFAB18"/><path d="M152.052 104.932l-4.297.808a83.931 83.931 0 01-31.025 0l-4.298-.808 2.826-10.864a6.691 6.691 0 015.482-4.93l2.078-.308c6.242-.93 12.59-.93 18.838 0l2.077.308a6.681 6.681 0 015.482 4.93l2.837 10.864z" fill="#E0284D"/><path d="M137.305 88.517l-.021.021a6.635 6.635 0 01-9.393-.021l.723-5.897h7.968l.723 5.897z" fill="#FAD5A8"/><path opacity=".68" d="M136.333 80.575c-1.12.377-2.385.595-3.734.595-1.35 0-2.614-.213-3.735-.595l-.611 4.993c1.259.484 5.727 1.536 8.819 1.058l-.739-6.051z" fill="#FAD5A8"/><path d="M122.281 92.756s0-9.063 9.993-9.063 9.993 2.79 9.993 2.79l1.859-11.848h-25.091l3.246 18.121z" fill="#1C1C1C"/><path d="M132.269 53.763c-8.341 0-15.104 5.913-15.104 14.253v11.735l5.111 13.01v-1.859l1.046-13.589 6.248-7.097a16.34 16.34 0 0112.043-5.552l.648-.01v21.839l5.111-13.244V68.02c0-8.346-6.763-14.258-15.103-14.258z" fill="#292929"/><path d="M132.269 85.09c-5.52 0-9.993-4.473-9.993-9.992V59.452h19.98v15.646c.005 5.52-4.468 9.993-9.987 9.993z" fill="#FAD5A8"/><path d="M132.269 52.913c-8.341 0-15.104 6.762-15.104 15.103h-4.648l1.944 3.99a9.462 9.462 0 008.856 5.307l6.248-7.098a16.339 16.339 0 0112.043-5.551l.648-.01v21.839l5.111-13.244V68.02c.005-8.346-6.758-15.108-15.098-15.108z" fill="#404040"/><path d="M151.824 136.212c6.349 0 11.496-5.147 11.496-11.496s-5.147-11.496-11.496-11.496-11.496 5.147-11.496 11.496 5.147 11.496 11.496 11.496z" fill="#D02E3B"/><path d="M147.712 120.71l8.351 8.352m-8.351 0l8.351-8.352" stroke="#AB2630" stroke-width="4.174" stroke-miterlimit="10" stroke-linecap="round"/><path d="M112.851 136.212c6.35 0 11.497-5.147 11.497-11.496s-5.147-11.496-11.497-11.496c-6.349 0-11.496 5.147-11.496 11.496s5.147 11.496 11.496 11.496z" fill="#1BC46E"/><path d="M107.751 125.125l4.001 4.006 6.736-8.426" stroke="#159C57" stroke-width="4.174" stroke-miterlimit="10" stroke-linecap="round"/><path opacity=".09" d="M157.171 19.755l-5.826-2.993-76.214 148.375 5.826 2.993 76.214-148.375zm44.743 27.828l-15.098-7.755-76.214 148.374 15.098 7.756 76.214-148.375zm-17.299-12.555l-24.318-12.49-76.214 148.374 24.317 12.491 76.215-148.375z" fill="#fff"/><path d="M185.409 140.617l-3.888 2.47c-4.192 2.667-9.754 1.424-12.421-2.768l-1.928-3.033c-2.667-4.192-1.424-9.754 2.767-12.421l3.889-2.47c4.192-2.667 9.754-1.424 12.421 2.768l1.928 3.033c2.667 4.197 1.429 9.759-2.768 12.421z" fill="#F7D6B4"/><path d="M185.409 117.12l-3.888 2.47c-4.192 2.667-9.754 1.424-12.421-2.768l-1.928-3.033c-2.667-4.192-1.424-9.754 2.767-12.421l3.889-2.47c4.192-2.667 9.754-1.424 12.421 2.767l1.928 3.034a8.995 8.995 0 01-2.768 12.421z" fill="#F7D6B4"/><path d="M185.409 93.819l-3.888 2.47c-4.192 2.667-9.754 1.424-12.421-2.767l-1.928-3.034c-2.667-4.192-1.424-9.754 2.767-12.42l3.889-2.47c4.192-2.668 9.754-1.425 12.421 2.767l1.928 3.033a8.994 8.994 0 01-2.768 12.421z" fill="#F7D6B4"/><path d="M183.902 92.146c1.699-.885 1.497-4.634-.45-8.373-1.948-3.74-4.905-6.053-6.604-5.168-1.699.885-1.498 4.634.45 8.373 1.948 3.74 4.905 6.053 6.604 5.168zm-1.005 14.848c1.949 3.74 2.151 7.49.451 8.372-1.7.888-4.659-1.429-6.603-5.169-1.95-3.74-2.152-7.49-.452-8.372 1.7-.887 4.654 1.429 6.604 5.169zm-1.132 23.625c1.95 3.74 1.923 7.607-.053 8.638-1.976 1.03-5.164-1.164-7.108-4.904-1.95-3.74-1.923-7.607.053-8.638 1.976-1.036 5.158 1.164 7.108 4.904z" fill="#FCEEE3"/><path d="M68.269 205.418l-16.936-57.853a14.664 14.664 0 01.67-11.916L74.34 92.15c2.487-4.84 8.91-5.944 12.872-2.22v33.835l-3.793 13.446 13.133 36.624-28.284 31.583z" fill="#F7D6B4"/><path d="M67.074 106.462l8.197-15.964 2.65 4.92-4.164 8.42a9.808 9.808 0 01-6.683 2.624z" fill="#FCEEE3"/><path d="M72.083 86.126a11.92 11.92 0 013.841-8.35c.223-.208.51-.32.813-.32h.048c.319.01.61.15.829.383a1.185 1.185 0 01-.064 1.684 9.547 9.547 0 00-3.076 6.688 9.55 9.55 0 002.555 6.912c.447.483.42 1.238-.063 1.69a1.198 1.198 0 01-1.69-.064 11.92 11.92 0 01-3.193-8.623zm-18.806-.722c-.281 7.347 2.306 14.36 7.289 19.741.218.234.51.372.829.383.313.01.621-.101.855-.319a1.18 1.18 0 00.383-.829 1.182 1.182 0 00-.32-.855c-4.547-4.914-6.91-11.316-6.656-18.026.26-6.71 3.108-12.909 8.022-17.462a1.185 1.185 0 00.064-1.684 1.18 1.18 0 00-.829-.382h-.048c-.303 0-.59.111-.807.319-5.382 4.972-8.5 11.767-8.782 19.114zm14.626 14.434a1.185 1.185 0 001.684.064 1.194 1.194 0 00.063-1.69c-6.45-6.965-6.03-17.876.935-24.331a1.185 1.185 0 00.064-1.684 1.18 1.18 0 00-.829-.383h-.047c-.303 0-.59.112-.808.32a19.482 19.482 0 00-6.263 13.631c-.197 5.238 1.646 10.237 5.2 14.073zm124.88-5.09a1.198 1.198 0 01-1.689.064 1.198 1.198 0 01-.064-1.69 9.57 9.57 0 002.555-6.91 9.559 9.559 0 00-3.076-6.69 1.184 1.184 0 01-.063-1.683 1.18 1.18 0 01.828-.383h.048c.303 0 .59.112.813.319a11.918 11.918 0 013.841 8.351 11.965 11.965 0 01-3.193 8.622zm13.212-28.464a1.182 1.182 0 00-.807-.319h-.048a1.18 1.18 0 00-.829.383 1.186 1.186 0 00.064 1.684c4.914 4.547 7.762 10.752 8.022 17.462.26 6.71-2.104 13.111-6.657 18.025a1.188 1.188 0 00.064 1.684c.234.218.547.324.855.319a1.17 1.17 0 00.829-.382c4.983-5.382 7.57-12.394 7.289-19.742-.276-7.341-3.4-14.136-8.782-19.114zm-.642 19.481a19.482 19.482 0 00-6.264-13.632 1.182 1.182 0 00-.807-.319h-.048a1.18 1.18 0 00-.829.383 1.187 1.187 0 00.064 1.684c6.965 6.45 7.384 17.361.935 24.331a1.198 1.198 0 00.064 1.69c.233.217.536.324.855.318.319-.01.611-.148.829-.382 3.554-3.836 5.402-8.835 5.201-14.073z" fill="#060C97"/><path d="M184.39 4.654l-4.569 4.568a.719.719 0 000 1.01.73.73 0 001.009 0l4.569-4.574a.71.71 0 00.207-.505.71.71 0 00-.712-.712.745.745 0 00-.504.213zm-9.802 1.716V.712a.712.712 0 00-1.424 0v5.652c0 .393.319.712.712.712a.704.704 0 00.712-.706z" fill="#F5F5EB"/></g><defs><filter id="filter0_d" x="27.073" y="132.211" width="173.336" height="142.736" filterUnits="userSpaceOnUse" color-interpolation-filters="sRGB"><feFlood flood-opacity="0" result="BackgroundImageFix"/><feColorMatrix in="SourceAlpha" values="0 0 0 0 0 0 0 0 0 0 0 0 0 0 0 0 0 0 127 0" result="hardAlpha"/><feOffset dy="10"/><feGaussianBlur stdDeviation="7.5"/><feComposite in2="hardAlpha" operator="out"/><feColorMatrix values="0 0 0 0 0 0 0 0 0 0 0 0 0 0 0 0 0 0 0.6 0"/><feBlend in2="BackgroundImageFix" result="effect1_dropShadow"/><feBlend in="SourceGraphic" in2="effect1_dropShadow" result="shape"/></filter></defs></svg>