<svg width="541" height="782" fill="none" xmlns="http://www.w3.org/2000/svg"><g filter="url(#filter0_f)"><rect x="30" y="742" width="481" height="10" rx="5" fill="#000"/></g><path d="M144.241 480.97l16.093-77.934 10.194.211 6.867 77.723h62.852c.968-34.502 1.095-99.839-.127-131.981l-149.042-4.002c-1.516 25.697-2.317 96.637-5.013 135.983h58.176z" fill="#393762"/><path d="M86.065 480.969c-5.94 109.991-11.5 250.018-11.5 250.018l-22.2 16.429h34.627l57.249-266.447-32.184-5.097-25.992 5.097zm154.139-.001l-46.423-25.528-16.429 25.528 27.55 266.447h34.628l-19.715-14.997c.042.042 17.524-123.976 20.389-251.45z" fill="#393762"/><path d="M165.936 393.852c-.547 0-1.095-.379-1.221-.969l-8.636-32.31c-.169-.674.21-1.391.927-1.559.674-.169 1.39.211 1.558.885l8.636 32.31c.169.674-.211 1.39-.927 1.559a.792.792 0 01-.337.084z" fill="#49478A"/><path d="M75.197 163.845c-10.153 11.922-29.278 64.074-29.278 73.131 0 9.057-9.773 94.489 6.445 96.131 16.219 1.643 28.056-20.81 28.056-20.81l-5.223-148.452z" fill="#ECE0D3"/><path d="M242.732 171.386L232.496 356.15l-141.46-11.163-18.998 12.132c-7.751-45.243-13.312-98.954-5.898-145.756 2.36-14.87 9.605-50.34 12.596-65.253 1.6-8.046 66.685-42.8 78.523-42.084 11.837.716 17.271-.969 35.596 3.244 20.684 4.718 56.954 24.854 64.621 34.164 7.667 9.31 19.631 133.118 17.019 144.955-6.361 28.857-22.453 79.703-22.453 79.703l-19.504-9.9" fill="#FFAB18"/><path d="M117.87 302.354c-.463 0-.884-.252-1.137-.674a1.293 1.293 0 01.505-1.727c24.223-12.975 46.044-31.51 63.147-53.668.422-.548 1.222-.632 1.812-.253a1.32 1.32 0 01.253 1.811c-17.272 22.411-39.388 41.242-63.948 54.343-.252.084-.463.168-.632.168zm42.969 16.64c-.295 0-.547-.084-.8-.253a1.274 1.274 0 01-.211-1.811c16.471-21.148 28.225-38.967 36.018-62.347.211-.674.927-1.053 1.601-.8.674.21 1.053.927.8 1.601-7.877 23.759-19.799 41.747-36.397 63.104a1.257 1.257 0 01-1.011.506zm-65.633 15.377h-.085c-.716-.042-1.221-.674-1.18-1.348 1.686-22.79 3.75-44.569 5.73-65.632 1.474-15.798 3.033-32.1 4.423-49.035 1.685-20.389 2.022-59.187-7.498-75.321-.38-.59-.169-1.39.463-1.77.59-.379 1.39-.168 1.77.464 9.899 16.64 9.604 56.112 7.877 76.838-1.432 16.934-2.949 33.237-4.423 49.034-1.98 21.063-4.044 42.842-5.73 65.591-.126.674-.715 1.179-1.347 1.179z" fill="#060C97"/><path d="M146.643 76.856v29.825s24.096 25.528 46.212.589l-1.938-30.414h-44.274z" fill="#E48868"/><path d="M205.576 55.961a7.832 7.832 0 00-2.443-.716c3.412-21.737 1.938-48.74-33.659-47.687-21.231.632-27.55 20.094-28.94 40.483-1.18-.59-2.738-.8-4.803-.168-7.329 2.19-2.232 20.684 5.35 23.548 2.823 18.62 12.638 30.542 26.75 31.595 13.017.969 23.212-9.142 29.32-24.391 7.962-1.77 15.46-19.547 8.425-22.664z" fill="#E48868"/><path d="M169.559 104.364c-.59 0-1.18-.042-1.812-.085-7.414-.547-13.943-4.044-18.83-10.068-.463-.547-.379-1.348.169-1.811.547-.464 1.348-.38 1.811.168 4.465 5.477 10.363 8.636 17.061 9.142 6.993.505 13.312-2.275 18.872-8.257.464-.505 1.306-.548 1.812-.084.505.463.547 1.264.084 1.811-5.561 6.024-12.132 9.184-19.167 9.184z" fill="#BA745D"/><path d="M72.08 357.119s19.378 37.787 26.076 20.558c6.698-17.23-7.12-32.69-7.12-32.69L72.08 357.119z" fill="#E48868"/><path d="M140.576 48.04l4.508 7.246h4.802v-12.47s6.066-6.15 6.698-13.143l36.271 2.57s-1.138 8.93 1.727 12.47v14.364h4.465l4.086-3.875s8.805-31.89 5.224-39.851c-3.581-7.962-10.911-5.098-10.911-5.098S185.483-3.775 168.801.986c-16.682 4.802-30.12 14.996-32.648 22.032-2.528 7.035 4.423 25.022 4.423 25.022z" fill="#464473"/><path d="M232.496 356.15s-18.957 21.189-9.563 34.29C232.327 403.542 252 366.092 252 366.092s-16.85-9.731-19.504-9.942z" fill="#E48868"/><path d="M232.832 353.623a1.264 1.264 0 01-1.222-.885 1.28 1.28 0 01.843-1.601c.084-.042 3.033-1.137 3.833-6.571.211-1.559-1.095-4.382-2.443-7.33-3.538-7.583-8.846-18.999 1.854-29.152 8.636-8.172 6.192-18.409 4.044-27.466-1.264-5.392-2.401-10.026-.801-13.354 2.233-4.591 2.486-47.139 2.696-78.228.169-25.149.295-40.693.969-43.726a1.318 1.318 0 011.517-.969c.674.168 1.137.842.969 1.516-.632 2.907-.758 22.453-.927 43.179-.295 42.042-.674 74.563-2.949 79.282-1.221 2.527-.21 6.74.969 11.668 2.191 9.226 4.929 20.726-4.76 29.91-9.394 8.888-4.887 18.493-1.306 26.244 1.685 3.623 3.033 6.488 2.696 8.805-1.053 7.119-5.392 8.551-5.603 8.636-.126 0-.252.042-.379.042z" fill="#060C97"/><path d="M105.612 390.524c-.295 0-.548-.084-.801-.295a1.323 1.323 0 01-.21-1.811c3.833-4.718 5.687-11.121 4.971-17.187-.716-6.024-4.002-11.838-8.847-15.545a1.32 1.32 0 01-.253-1.811 1.32 1.32 0 011.812-.253c5.434 4.17 9.015 10.489 9.815 17.272.801 6.824-1.221 13.775-5.518 19.083-.211.379-.59.547-.969.547zm108.474 18.663c-.59 0-1.096-.421-1.264-1.011-.169-.674.295-1.39.969-1.517 6.571-1.474 12.68-4.971 17.271-9.899.464-.506 1.306-.548 1.812-.042.505.463.547 1.306.042 1.811-4.929 5.266-11.543 9.057-18.578 10.658h-.252z" fill="#49478A"/><path d="M101.568 128.839c6.488 12.006 4.761 62.683 4.761 62.683v20.516s27.213-52.195 19.799-96.385l-24.56 13.186z" fill="#ECE0D3"/><path d="M137.631 177.259l-9.631-.606.114-1.738 6.776-8.318-6.039-.38.146-2.217 9.304.586-.115 1.738-6.775 8.318 6.366.4-.146 2.217zm9.523.6l-7.454-.47.834-12.663 7.454.469-.145 2.199-4.716-.296-.183 2.784 4.389.276-.144 2.2-4.39-.277-.214 3.264 4.715.297-.146 2.217zm7.555-12.241c1.729.109 3.019.428 3.871.956.851.529 1.238 1.39 1.159 2.584-.047.721-.263 1.319-.646 1.794-.371.475-.881.746-1.529.812l-.006.089a3.5 3.5 0 011.15.517c.337.235.595.56.774.975.179.415.247.953.203 1.616-.075 1.146-.558 2.018-1.447 2.616-.889.597-2.071.849-3.546.756l-4.843-.305.833-12.663 4.027.253zm-.022 5.039c.798.05 1.356-.04 1.675-.269.33-.228.511-.579.543-1.052.031-.485-.127-.845-.476-1.081-.348-.235-.916-.378-1.702-.427l-1.451-.092-.185 2.82 1.596.101zm-1.736 2.028l-.217 3.298 1.795.113c.822.052 1.407-.065 1.754-.352.347-.299.538-.708.572-1.229.031-.473-.113-.862-.433-1.167-.307-.316-.896-.501-1.766-.556l-1.705-.107zm13.69-6.316c1.765.111 3.044.506 3.837 1.185.805.68 1.166 1.659 1.082 2.936-.038.579-.187 1.08-.445 1.503-.246.412-.566.76-.961 1.044-.382.273-.791.49-1.227.653l3.446 5.756-3.047-.192-2.764-5.054-1.469-.092-.32 4.859-2.738-.172.833-12.663 3.773.237zm-.345 2.187l-.834-.053-.225 3.423.889.056c.906.057 1.563-.05 1.969-.321.419-.271.647-.696.685-1.275.04-.603-.144-1.042-.551-1.317-.394-.286-1.038-.457-1.933-.513zm15.638 11.491l-.745-3.074-4.716-.297-1.141 2.956-2.956-.186 5.407-12.429 3.355.211 3.752 13.005-2.956-.186zm-1.999-8.371a55.025 55.025 0 00-.186-.778c-.076-.313-.152-.633-.228-.958a19.814 19.814 0 01-.181-.848c-.076.232-.18.523-.312.87-.119.337-.238.662-.356.975a9.124 9.124 0 01-.242.644l-1.119 2.886 3.373.212-.749-3.003zm12.789-1.6c-1.052-.066-1.882.268-2.488 1.001-.607.734-.955 1.769-1.042 3.105-.089 1.348.096 2.41.555 3.187.471.766 1.276 1.184 2.412 1.256a7.178 7.178 0 001.59-.078 15.991 15.991 0 001.755-.388l-.148 2.252a9.465 9.465 0 01-1.719.391 10.08 10.08 0 01-1.879.042c-1.33-.084-2.413-.419-3.248-1.006-.823-.598-1.408-1.395-1.755-2.39-.347-1.007-.477-2.161-.392-3.462.084-1.277.394-2.391.931-3.343a5.438 5.438 0 012.201-2.177c.943-.498 2.068-.707 3.374-.624.641.04 1.276.163 1.906.369a9.937 9.937 0 011.826.756l-1.032 2.126a13.902 13.902 0 00-1.431-.678 4.418 4.418 0 00-1.416-.339zm13.28 11.486l-.745-3.074-4.715-.297-1.142 2.956-2.956-.186 5.407-12.429 3.356.211 3.751 13.005-2.956-.186zm-1.999-8.371a70.324 70.324 0 00-.185-.778 85.949 85.949 0 01-.229-.958 19.658 19.658 0 01-.18-.849 20.46 20.46 0 01-.313.871c-.119.337-.238.662-.355.975a9.001 9.001 0 01-.243.644l-1.119 2.886 3.374.212-.75-3.003zm6.596 8.66l.833-12.663 2.739.172-.688 10.447 5.26.331-.146 2.217-7.998-.504zm10.255.646l.833-12.664 2.739.173-.688 10.446 5.26.331-.146 2.217-7.998-.503z" fill="#060C97"/><path d="M306.621 706.646l-.261 20.816.261 19.496c-7.82-.468-55.596.521-63.569 0l38.611-19.602-.053-.101-4.869-20.609h29.88zM496 746.958c-8.234-.107-47.705.207-56.194 0l-.888-17.381-14.703-20.87 11.03-2.742 15.224-3.727 14.449 26.664L496 746.958z" fill="#FFAB18"/><g filter="url(#filter1_d)"><path d="M333.136 140.308c-.054-.154-.101-.26-.101-.361 0-.053 0-.107-.054-.154-.675-2.328-1.451-4.662-2.227-6.937v-.468c-2.435-6.937-5.231-13.204-8.181-19.004v-.053c-1.759-3.365-3.518-6.522-5.278-9.271a27.21 27.21 0 00-.776-1.191c-.101-.154-.154-.26-.308-.414-.101-.208-.261-.415-.415-.622-1.866-2.743-3.726-5.071-5.538-6.836-2.02-1.967-3.934-3.312-5.747-3.886-6.628-2.174-13.772-1.084-18.689.207.983-1.605 3.418-2.589 3.418-2.589-3.158.154-9.425 4.609-9.425 4.609-14.964-2.535-24.489 2.482-30.289 10.977-3.003 4.247-5.023 9.271-6.314 14.703v.053c-.883 3.418-1.452 6.937-1.861 10.509v.053c-1.504 14.395.468 28.891 2.074 34.844 3.833 14.496-10.509 22.369-30.496 38.423-38.132 30.661-35.905 60.95-35.905 60.95.362.154.723.261 1.138.462 1.398-3.987 4.401-11.599 7.873-13.358-.054.361-2.483 10.147-3.004 15.532 13.666 6.629 39.092 21.64 58.196 33.138 1.191.675 2.328 1.398 3.471 2.073-.675-2.95-1.398-7.09-.776-9.525l4.503 11.753c4.194 2.589 7.92 4.816 10.822 6.629 4.194 2.588 6.73 4.14 6.73 4.14-.468-1.498-.154-4.04.776-7.404v-.054c.723-2.488 1.813-5.438 3.157-8.696 4.455-10.923 12.168-25.68 21.024-40.543.622-1.036 1.297-2.073 1.919-3.104 8.957-14.809 18.951-29.412 27.854-40.282 2.95-3.572 5.746-6.783 8.388-9.372.101-.106.208-.207.308-.308 1.085-2.642 1.914-5.645 2.435-8.749 1.706-9.265 1.345-19.259 1.191-22.108 1.191 10.047 1.084 17.138.468 22.161a34.231 34.231 0 01-.93 5.124 24.192 24.192 0 002.849-5.076c6.108-13.88 3.72-35.78-2.28-55.975z" fill="#37006B"/></g><path d="M322.793 209.825c.148.065-14.058 7.44-24.744 4.519-10.053-2.742-16.617-15.775-16.481-15.804 4.26-.847 5.486-6.694 5.391-31.829l1.925.379 32.356 6.41s-.734 10.183-.758 19.773c-.018 8.057.468 15.693 2.311 16.552z" fill="#FFBAA1"/><path d="M270.895 108.663s12.286-19.81 35.116-7.968c0 0-11.83.326-35.116 7.968z" fill="#FFAB18"/><path d="M321.241 173.5s-.735 10.183-.758 19.773c-18.104-.509-27.677-17.025-31.598-26.183l32.356 6.41z" fill="#FF7D78"/><path d="M282.227 168.227s-12.262-12.819-17.031-24.939c-3.4-8.649-5.539-42.83 28.849-44.773 0 0 9.899-1 20.265 3.324 8.246 3.436 20.846 11.907 14.988 43.285l-1.067 10.414-46.004 12.689z" fill="#37006B"/><path d="M467.383 728.487s-8.602 1.481-15.657 2.02c-1.57.119-3.057.19-4.36.19-3.4 0-9.526-1.28-13.637-2.239l-.308-.072a153.021 153.021 0 01-3.696-.912l-.219-.053s-42.883-47.74-66.934-124.271a212.165 212.165 0 00-1.777-5.402c-13.169-38.387-40.46-86.565-54.837-130.177a721.655 721.655 0 01-6.185-19.667 460.417 460.417 0 01-1.712-5.841c-10.603-36.828-13.666-61.004-16.492-86.838l86.465 22.002c-.006 0 36.295 157.373 99.349 351.26z" fill="#FEBBBA"/><path d="M326.904 178.618s-41.852 9.158-47.154-16.996c-5.302-26.154-14.277-42.58 12.226-49.535 26.498-6.955 33.731 1.973 37.623 10.272 3.892 8.293 8.056 53.202-2.695 56.259z" fill="#FFBAA2"/><path d="M310.975 107.591s-5.314 33.008-22.043 41.099c-16.729 8.092-25.336 4.911-25.336 4.911s11.368-13.482 10.39-32.812c0-.006 25.366-26.059 36.989-13.198z" fill="#37006B"/><path d="M308.623 110.659s9.97 5.119 13.406 11.362c3.436 6.238 7.138 19.762 11.042 18.489 0 0 4.454-22.606-7.654-32.439-12.843-10.438-16.794 2.588-16.794 2.588z" fill="#37006B"/><path d="M451.725 730.507c-1.57.119-3.057.19-4.36.19-3.4 0-9.525-1.28-13.637-2.24l-.308-.071-3.696-.912-.219-.053s-42.883-47.741-66.934-124.271a212.165 212.165 0 00-1.777-5.402c-13.169-38.387-40.46-86.565-54.837-130.177a717.997 717.997 0 01-6.184-19.667 444.513 444.513 0 01-1.712-5.841l15.289-11.611s45.916 74.345 60.127 144.311c11.777 57.995 62.503 133.18 78.248 155.744z" fill="#E8A5A4"/><path d="M314.949 581.285c.261 34.021-1.463 112.246-5.894 144.631 0 0-4.206 3.72-14.626 3.762-10.669.047-15.443-3.892-15.443-3.892-11.119-56.306-19.028-102.897-24.786-143.043-4.721-32.943-8.921-61.194-12.15-85.505-2.861-21.545-4.958-40.01-5.971-55.927-.13-2.162-.249-4.277-.349-6.339a295.162 295.162 0 01-.273-7.949 270.454 270.454 0 01-.041-7.547l.373-.036 21.48-2.091 67.875-6.617c-1.131 59.606-10.343 150.78-10.195 170.553z" fill="#FEBBBA"/><g filter="url(#filter2_d)"><path d="M294.429 729.678c-9.076.527-15.444-3.892-15.444-3.892-11.119-56.306-19.027-102.897-24.785-143.043-4.722-32.943-8.922-61.194-12.15-85.505-2.861-21.545-4.958-40.01-5.971-55.927-.119-7.843-.202-15.361-.296-21.871-.101-6.605-.202-12.197-.386-16.089l21.865 13.992 23.009 14.715s-32.635 29.69-24.62 85.813c8.027 56.122 27.617 203.857 38.778 211.807z" fill="#E8A5A4"/></g><path d="M319.168 195.37s27.931-3.447 39.636 8.199c14.348 14.271 41.284 96.103 40.211 105.444-.408 3.567-14.566 1.908-19.418-3.181-24.193-25.366-51.928-91.476-60.429-110.462z" fill="#060C97"/><g filter="url(#filter3_d)"><path d="M379.963 425.95c-26.035 6.765-147.539 20.124-148.588-10.307-.26-7.423 0-16.386.587-26.095 1.813-30.057 6.747-67.206 9.111-87.649 1.084-9.372-2.518-51.33.243-74.202.402-3.389.953-6.362 1.676-8.738 5.249-17.256 28.831-21.936 40.934-22.35l36.526-1.244s37.723 42.136 42.972 55.079c5.248 12.944 6.96 57.26 11.042 78.722 4.087 21.468 18.162 93.497 5.497 96.784z" fill="#060C97"/></g><path d="M308.208 323.106s-20.307 62.367-76.24 66.448c1.812-30.057 6.747-67.206 9.111-87.649 1.084-9.372-2.518-51.33.243-74.202.728.154 1.386.563 2.15.705 61.59 11.901 70.334 81.701 64.736 94.698z" fill="#020549"/><path d="M397.255 310.548s-36.668 12.025-81.34-7.263c0 0-12.168-1.149-18.21.385 0 0 1.297-12.067 7.203-15.354 5.907-3.282 31.302 3.82 38.896 2.772 16.599-2.275 45.507-4.058 53.451 19.46z" fill="#F9A385"/><path d="M364.58 282.469s3.441-29.797-8.223-47.758c0 0 4.117-1.398 7.073 3.264 2.956 4.668 23.548 48.925 13.744 52.189-9.804 3.258-12.594-7.695-12.594-7.695z" fill="#020549"/><path d="M311.052 287.445c-.527 0-17.321 2.192-20.289 4.294-2.974 2.098-.35 9.449 5.248 10.148 5.592.699 15.041-14.442 15.041-14.442z" fill="#FF7D78"/><path d="M265.147 298.736s47.824-1.748 91.21-10.148c0 0 7.932.071 6.996 6.996-.93 6.925-75.191 45.691-91.518 38.227l-6.688-35.075z" fill="#FFBAA1"/><path d="M356.357 288.588s5.071-6.119 8.223-6.119c3.151 0 11.368 4.022 12.594 7.695 1.226 3.673-9.733 1.048-13.821 5.42-4.087 4.378-6.996-6.996-6.996-6.996z" fill="#FF9792"/><path d="M283.939 196.62s-40.188.095-46.07 14.537c-10.728 26.356 24.637 113.798 33.967 122.66 4.011 3.815 22.6-2.198 22.6-27.38-.006-13.068-.942-89.379-10.497-109.817z" fill="#060C97"/><path d="M297.725 242.823l-5.981.622-.096-1.024 3.371-5.528-3.751.39-.123-1.306 5.778-.6.097 1.023-3.371 5.528 3.953-.41.123 1.305zm5.915-.614l-4.63.481-.7-7.457 4.629-.481.122 1.295-2.929.304.154 1.64 2.726-.284.122 1.295-2.726.284.18 1.921 2.929-.304.123 1.306zm3.473-7.891c1.074-.112 1.898-.057 2.473.165.574.221.894.684.96 1.387.04.425-.035.795-.226 1.11-.182.314-.47.523-.862.627l.005.052c.275.021.527.083.757.185.229.103.419.266.569.49.15.223.243.53.28.92.063.675-.15 1.232-.64 1.669-.49.438-1.192.704-2.109.799l-3.007.313-.7-7.457 2.5-.26zm.469 2.936c.496-.052.831-.16 1.005-.326.181-.167.259-.389.233-.668-.027-.285-.159-.479-.396-.581-.237-.102-.6-.127-1.088-.077l-.901.094.156 1.661.991-.103zm-.873 1.356l.182 1.942 1.115-.115c.511-.053.859-.181 1.045-.383.185-.209.263-.467.234-.773a.804.804 0 00-.378-.636c-.219-.153-.599-.201-1.139-.145l-1.059.11zm7.815-5.062c1.096-.114 1.92-.013 2.473.302.56.314.876.848.947 1.599a1.85 1.85 0 01-.13.921c-.112.265-.275.5-.491.705-.209.197-.44.365-.692.504l2.67 3.002-1.892.197-2.184-2.663-.912.095.269 2.862-1.701.176-.7-7.457 2.343-.243zm-.003 1.308l-.518.054.189 2.015.552-.057c.563-.058.957-.187 1.181-.386.231-.2.331-.471.299-.812-.033-.355-.188-.592-.465-.711-.269-.126-.682-.161-1.238-.103zm10.718 5.108l-.753-1.714-2.928.304-.419 1.836-1.836.191 2.135-7.783 2.084-.217 3.553 7.193-1.836.19zm-2.031-4.671a43.064 43.064 0 00-.189-.434 60.692 60.692 0 01-.232-.535 9.966 9.966 0 01-.192-.476c-.025.144-.061.323-.109.539-.041.208-.083.409-.125.604a5.284 5.284 0 01-.088.399l-.412 1.793 2.095-.217-.748-1.673zm7.712-2.225c-.653.068-1.131.346-1.434.834-.303.489-.418 1.126-.344 1.913.075.794.29 1.394.647 1.8.363.398.898.56 1.604.487.33-.035.653-.103.97-.207.324-.104.671-.238 1.042-.403l.125 1.326a6.137 6.137 0 01-1.02.401 6.5 6.5 0 01-1.152.215c-.826.086-1.524 0-2.094-.257a2.88 2.88 0 01-1.308-1.214c-.309-.551-.5-1.21-.572-1.976-.071-.752.013-1.432.252-2.04a3.301 3.301 0 011.145-1.49c.533-.386 1.204-.621 2.015-.705a4.992 4.992 0 011.208.022c.414.048.813.134 1.196.255l-.432 1.342a8.874 8.874 0 00-.944-.249 2.841 2.841 0 00-.904-.054zm9.268 5.343l-.753-1.714-2.928.304-.419 1.836-1.836.191 2.135-7.783 2.084-.217 3.553 7.192-1.836.191zm-2.031-4.671c-.049-.115-.112-.26-.189-.434a60.692 60.692 0 01-.232-.535 11.3 11.3 0 01-.193-.476c-.024.143-.06.323-.108.539-.042.208-.083.409-.126.603-.035.187-.064.32-.087.4l-.412 1.793 2.095-.218-.748-1.672zm4.885 4.375l-.7-7.457 1.701-.177.577 6.151 3.267-.339.122 1.306-4.967.516zm6.369-.662l-.7-7.457 1.701-.177.577 6.152 3.267-.34.122 1.306-4.967.516z" fill="#FFAB18"/><defs><filter id="filter0_f" x="0" y="712" width="541" height="70" filterUnits="userSpaceOnUse" color-interpolation-filters="sRGB"><feFlood flood-opacity="0" result="BackgroundImageFix"/><feBlend in="SourceGraphic" in2="BackgroundImageFix" result="shape"/><feGaussianBlur stdDeviation="15" result="effect1_foregroundBlur"/></filter><filter id="filter1_d" x="157" y="88.729" width="181.981" height="245.965" filterUnits="userSpaceOnUse" color-interpolation-filters="sRGB"><feFlood flood-opacity="0" result="BackgroundImageFix"/><feColorMatrix in="SourceAlpha" values="0 0 0 0 0 0 0 0 0 0 0 0 0 0 0 0 0 0 127 0" result="hardAlpha"/><feOffset dx="-10" dy="10"/><feGaussianBlur stdDeviation="5"/><feComposite in2="hardAlpha" operator="out"/><feColorMatrix values="0 0 0 0 0 0 0 0 0 0 0 0 0 0 0 0 0 0 0.25 0"/><feBlend in2="BackgroundImageFix" result="effect1_dropShadow"/><feBlend in="SourceGraphic" in2="effect1_dropShadow" result="shape"/></filter><filter id="filter2_d" x="215.397" y="403.351" width="79.031" height="346.371" filterUnits="userSpaceOnUse" color-interpolation-filters="sRGB"><feFlood flood-opacity="0" result="BackgroundImageFix"/><feColorMatrix in="SourceAlpha" values="0 0 0 0 0 0 0 0 0 0 0 0 0 0 0 0 0 0 127 0" result="hardAlpha"/><feOffset dx="-10" dy="10"/><feGaussianBlur stdDeviation="5"/><feComposite in2="hardAlpha" operator="out"/><feColorMatrix values="0 0 0 0 0 0 0 0 0 0 0 0 0 0 0 0 0 0 0.25 0"/><feBlend in2="BackgroundImageFix" result="effect1_dropShadow"/><feBlend in="SourceGraphic" in2="effect1_dropShadow" result="shape"/></filter><filter id="filter3_d" x="211.274" y="195.365" width="173.86" height="259.404" filterUnits="userSpaceOnUse" color-interpolation-filters="sRGB"><feFlood flood-opacity="0" result="BackgroundImageFix"/><feColorMatrix in="SourceAlpha" values="0 0 0 0 0 0 0 0 0 0 0 0 0 0 0 0 0 0 127 0" result="hardAlpha"/><feOffset dx="-10" dy="10"/><feGaussianBlur stdDeviation="5"/><feComposite in2="hardAlpha" operator="out"/><feColorMatrix values="0 0 0 0 0 0 0 0 0 0 0 0 0 0 0 0 0 0 0.25 0"/><feBlend in2="BackgroundImageFix" result="effect1_dropShadow"/><feBlend in="SourceGraphic" in2="effect1_dropShadow" result="shape"/></filter></defs></svg>