<svg width="250" height="250" fill="none" xmlns="http://www.w3.org/2000/svg"><circle cx="125" cy="125" r="125" fill="#F1F1F1"/><mask id="a" style="mask-type:alpha" maskUnits="userSpaceOnUse" x="0" y="0" width="250" height="250"><circle cx="125" cy="125" r="125" fill="#F1F1F1"/></mask><g mask="url(#a)"><path opacity=".3" d="M60.294 103.08a.667.667 0 01.76-.557c.707.108 1.428.187 2.146.235a.665.665 0 01.621.695v.013a.665.665 0 01-.71.619 26.575 26.575 0 01-2.259-.247.665.665 0 01-.558-.758zm6.415-.329c.717-.05 1.438-.132 2.145-.242a.665.665 0 11.206 1.313 27.38 27.38 0 01-2.258.256.667.667 0 01-.713-.696.665.665 0 01.62-.631zm5.563-1.023a24.89 24.89 0 002.036-.714.666.666 0 11.496 1.235c-.7.28-1.422.533-2.144.752a.667.667 0 01-.86-.668.663.663 0 01.472-.605zm5.193-2.237a25.29 25.29 0 001.827-1.15.665.665 0 11.76 1.093 26.62 26.62 0 01-1.923 1.21.667.667 0 01-.998-.608.664.664 0 01.334-.545zm4.566-3.336a25.6 25.6 0 001.525-1.525.668.668 0 01.942-.04c.271.248.29.669.04.939-.51.556-1.05 1.095-1.605 1.604a.666.666 0 01-.902-.978zm3.71-4.26a25.62 25.62 0 001.15-1.824.668.668 0 01.91-.248c.32.183.43.588.247.907-.373.654-.78 1.3-1.209 1.92a.668.668 0 01-1.215-.41.659.659 0 01.118-.346zm3.046-24.506c.342-.136.73.03.866.371.28.7.532 1.42.75 2.142a.667.667 0 01-1.276.384 24.976 24.976 0 00-.712-2.034.665.665 0 01.372-.863zm-.375 19.533c.265-.664.505-1.347.712-2.031a.667.667 0 011.276.385c-.218.72-.47 1.44-.75 2.14a.668.668 0 01-1.286-.278.686.686 0 01.048-.216zm2.047-13.983a.666.666 0 01.76.556c.116.744.2 1.501.252 2.253a.666.666 0 01-1.33.091 25.274 25.274 0 00-.239-2.14.663.663 0 01.557-.76zM89.9 81.48c.11-.706.19-1.426.24-2.14a.666.666 0 011.33.078v.013a26.53 26.53 0 01-.252 2.253.666.666 0 01-1.318-.204zm-3.65-17.668a.657.657 0 00.1.384c.183.29.362.589.534.889.183.319.59.43.91.247a.663.663 0 00.247-.907c-.18-.316-.37-.63-.561-.935a.668.668 0 00-1.23.322zM69.585 52.208a.665.665 0 00.53.682c.335.07.676.149 1.011.233a.664.664 0 10.327-1.29 28.301 28.301 0 00-1.066-.245.666.666 0 00-.802.62zM38.411 74.994a.666.666 0 011.327.128 25.585 25.585 0 00-.115 2.117.666.666 0 01-1.333-.019 25.95 25.95 0 01.122-2.226zm.654 5.104a.666.666 0 01.743.579c.086.7.202 1.403.347 2.092a.667.667 0 01-1.305.272 26.868 26.868 0 01-.365-2.202.665.665 0 01.58-.74zm-.058-8.679c.172-.72.377-1.442.61-2.147a.667.667 0 011.266.416c-.221.67-.416 1.355-.578 2.038a.666.666 0 01-1.298-.307zm1.23 14.26a.667.667 0 01.853.403c.238.663.506 1.323.8 1.963a.667.667 0 01-1.213.552 26.303 26.303 0 01-.842-2.068.66.66 0 01.403-.85zm.749-19.76c.326-.664.685-1.323 1.067-1.96a.667.667 0 01.914-.229.664.664 0 01.23.912 25.3 25.3 0 00-1.014 1.862.668.668 0 01-1.265-.324.679.679 0 01.068-.261zm3.14-4.933c.464-.579.959-1.144 1.47-1.681a.668.668 0 01.942-.025.663.663 0 01.024.94 25.34 25.34 0 00-1.396 1.597.668.668 0 01-1.187-.448.67.67 0 01.147-.383zm4.144-4.135c.58-.464 1.186-.909 1.802-1.321a.668.668 0 01.925.18.664.664 0 01-.181.924 25.47 25.47 0 00-1.712 1.256.667.667 0 01-.834-1.039zm4.948-3.134a26.31 26.31 0 012.049-.895.665.665 0 11.483 1.24c-.658.254-1.313.54-1.947.85a.667.667 0 01-.585-1.195zm5.52-1.974a26.828 26.828 0 012.196-.423.666.666 0 11.197 1.316c-.697.104-1.399.239-2.084.401a.666.666 0 11-.308-1.294zm5.815-.715a27.012 27.012 0 012.235.062.659.659 0 01.619.71.666.666 0 01-.712.617 26.034 26.034 0 00-2.124-.06.666.666 0 01-.675-.655v-.041a.666.666 0 01.657-.633zm-22.24 40.384a.66.66 0 00.102.386c.194.305.397.61.605.909a.667.667 0 001.096-.758c-.198-.283-.39-.574-.574-.862a.667.667 0 00-1.229.325z" fill="#91B3FA"/><path d="M52.652 94.098c.105.094.26.112.384.043l3.539-1.96a17.656 17.656 0 005.387 1.897l1.521 3.74a.332.332 0 00.326.206l4.848-.26a.332.332 0 00.302-.24l1.113-3.88a17.643 17.643 0 005.152-2.46l3.729 1.571c.13.055.282.022.377-.084l3.245-3.603a.33.33 0 00.043-.383l-1.965-3.53a17.556 17.556 0 001.902-5.374l3.749-1.518a.331.331 0 00.207-.324l-.26-4.837a.333.333 0 00-.24-.301l-3.89-1.11a17.56 17.56 0 00-2.467-5.14l1.575-3.72a.33.33 0 00-.084-.375l-3.612-3.238a.333.333 0 00-.383-.043l-3.54 1.96a17.657 17.657 0 00-5.386-1.897l-1.522-3.74a.331.331 0 00-.326-.206l-4.848.26a.332.332 0 00-.302.24l-1.112 3.88a17.639 17.639 0 00-5.153 2.46l-3.729-1.57a.332.332 0 00-.377.083l-3.244 3.604a.33.33 0 00-.044.382l1.966 3.53a17.556 17.556 0 00-1.903 5.374l-3.748 1.519a.332.332 0 00-.208.324l.26 4.837a.332.332 0 00.241.301l3.89 1.11a17.577 17.577 0 002.467 5.14l-1.575 3.72a.33.33 0 00.084.375l3.611 3.237z" fill="#91B3FA"/><path d="M60.303 75.72c.518-2.634 3.088-4.356 5.73-3.84a4.85 4.85 0 013.11 2.063 4.82 4.82 0 01.738 3.652c-.518 2.635-3.088 4.357-5.729 3.84a4.88 4.88 0 01-3.936-5.005c.012-.234.04-.471.087-.71zm7.895-1.144a3.745 3.745 0 00-6.778 1.363 3.737 3.737 0 002.952 4.382 3.746 3.746 0 004.459-3.493 3.703 3.703 0 00-.633-2.252z" fill="#BDD0FB"/><path d="M53.18 75.997a12.253 12.253 0 00.03 1.62c.056.64.162 1.272.316 1.89l.007.026.019.072c.011.046.024.093.037.139a.286.286 0 00.349.2.284.284 0 00.2-.35 11.423 11.423 0 01-.386-2.396c-.218-4.036 1.706-7.7 4.78-9.893a11.379 11.379 0 016.023-2.105c.395-.02.787-.022 1.177-.003a11.361 11.361 0 017.074 2.907 11.318 11.318 0 013.776 7.873c.337 6.282-4.51 11.662-10.804 11.998a11.416 11.416 0 01-5.948-1.3.284.284 0 10-.266.502 11.985 11.985 0 006.245 1.365c6.608-.353 11.695-6.005 11.342-12.595a11.884 11.884 0 00-3.964-8.265 11.922 11.922 0 00-8.662-3.048 11.935 11.935 0 00-8.286 3.954 11.863 11.863 0 00-3.06 7.41z" fill="#BDD0FB"/><path opacity=".3" d="M41.662 124.985a.41.41 0 00.277.408c.33.114.669.22 1.006.314a.412.412 0 00.508-.285.41.41 0 00-.286-.506c-.32-.09-.643-.19-.959-.299a.411.411 0 00-.546.368zm3.08.713a.412.412 0 01.469-.345 17.08 17.08 0 002.083.182.41.41 0 01.4.422.426.426 0 01-.422.4 17.888 17.888 0 01-2.184-.192.41.41 0 01-.346-.467zm4.641-.235a17.099 17.099 0 002.065-.326.412.412 0 01.179.802c-.71.157-1.438.272-2.165.341a.411.411 0 11-.079-.817zm4.074-.904c.654-.233 1.3-.51 1.921-.822a.412.412 0 01.371.733c-.651.328-1.33.618-2.015.862a.412.412 0 01-.55-.406.413.413 0 01.273-.367zm3.727-1.875a16.944 16.944 0 001.66-1.266.411.411 0 11.54.621c-.55.475-1.135.921-1.742 1.327a.411.411 0 01-.458-.682zm3.155-2.726c.465-.514.904-1.063 1.303-1.63a.413.413 0 01.573-.1.41.41 0 01.1.572 17.998 17.998 0 01-1.365 1.709.414.414 0 01-.581.03.41.41 0 01-.03-.581zm2.395-3.406c.327-.613.617-1.251.864-1.897a.412.412 0 01.77.293c-.26.678-.565 1.348-.907 1.989a.413.413 0 01-.775-.213.42.42 0 01.048-.172zm1.488-3.887c.165-.67.29-1.361.37-2.051a.411.411 0 01.819.096 17.84 17.84 0 01-.39 2.151.412.412 0 01-.8-.196zm.702-6.675a.411.411 0 01.461.355 18.057 18.057 0 01.146 2.182.408.408 0 01-.41.413.411.411 0 01-.413-.409 17.1 17.1 0 00-.14-2.081.411.411 0 01.356-.46zm-34.922 1.547c.043-.715.131-1.433.26-2.135a.412.412 0 01.809.148 16.88 16.88 0 00-.248 2.036.411.411 0 01-.822-.044v-.005zm.386 1.717a.41.41 0 01.435.385c.04.681.123 1.366.245 2.038a.41.41 0 01-.81.147 18.023 18.023 0 01-.258-2.136v-.044a.412.412 0 01.388-.39zm.392-5.94c.216-.683.474-1.36.77-2.009a.412.412 0 01.75.338c-.282.62-.529 1.265-.734 1.916a.412.412 0 01-.786-.245zm.264 10.085a.411.411 0 01.515.27c.204.651.45 1.296.731 1.917a.41.41 0 11-.75.338 17.505 17.505 0 01-.767-2.011.412.412 0 01.27-.514zm1.513-13.994c.373-.61.787-1.203 1.231-1.765a.412.412 0 01.646.51 16.905 16.905 0 00-1.174 1.683.413.413 0 01-.764-.234.422.422 0 01.061-.194zm2.666-3.37a17.99 17.99 0 011.619-1.42.41.41 0 11.506.648c-.539.418-1.058.874-1.544 1.355a.413.413 0 01-.702-.31.41.41 0 01.121-.273zm3.398-2.636c.616-.368 1.26-.702 1.914-.992a.41.41 0 11.334.75 17.05 17.05 0 00-1.825.947.412.412 0 11-.423-.705zm-6.124 24.212a.41.41 0 00.06.233c.184.3.377.596.574.88a.412.412 0 00.677-.468 16.86 16.86 0 01-.547-.84.414.414 0 00-.764.195z" fill="#91B3FA"/><path d="M40.09 119.551a.21.21 0 00.24.027l2.219-1.229c1.039.569 2.176.976 3.377 1.19l.954 2.344a.208.208 0 00.204.129l3.04-.163a.208.208 0 00.188-.15l.698-2.432c1.17-.34 2.257-.867 3.23-1.543l2.336.985a.209.209 0 00.237-.053l2.033-2.259a.208.208 0 00.027-.24l-1.231-2.213c.57-1.037.978-2.171 1.192-3.369l2.35-.951a.207.207 0 00.13-.203l-.163-3.032a.209.209 0 00-.15-.189l-2.439-.696a10.99 10.99 0 00-1.546-3.221l.987-2.332a.207.207 0 00-.053-.235l-2.264-2.03a.209.209 0 00-.241-.026l-2.218 1.228a11.073 11.073 0 00-3.377-1.19l-.954-2.343a.209.209 0 00-.205-.13l-3.039.163a.209.209 0 00-.189.15l-.697 2.432c-1.171.34-2.258.867-3.23 1.543l-2.337-.985a.21.21 0 00-.236.053l-2.034 2.259a.208.208 0 00-.027.24l1.231 2.213a11.003 11.003 0 00-1.192 3.368l-2.35.951a.21.21 0 00-.13.204l.164 3.032a.21.21 0 00.15.189l2.439.695a11.007 11.007 0 001.547 3.222l-.988 2.332a.206.206 0 00.053.235l2.264 2.03z" fill="#91B3FA"/><path d="M44.832 108.021a3.084 3.084 0 011.319-1.981 3.112 3.112 0 014.793 3.177 3.119 3.119 0 01-5.641 1.135 3.079 3.079 0 01-.471-2.331zm3.497-1.644c-.6-.118-1.21.005-1.72.346a2.27 2.27 0 00-.97 1.456 2.271 2.271 0 00.347 1.715 2.293 2.293 0 004.19-1.167 2.289 2.289 0 00-1.847-2.35z" fill="#BDD0FB"/><path d="M40.188 108.202a7.83 7.83 0 00.246 2.344l.018.068a.412.412 0 00.795-.215 6.904 6.904 0 01-.237-1.535 6.828 6.828 0 01.69-3.316A6.973 6.973 0 0142.736 104l.01-.011.032-.035a6.895 6.895 0 014.786-2.284 6.886 6.886 0 015.004 1.761 6.863 6.863 0 012.29 4.774 6.87 6.87 0 01-1.766 4.992 6.894 6.894 0 01-5.49 2.286 6.916 6.916 0 01-2.903-.791.413.413 0 00-.556.171.41.41 0 00.171.555 7.749 7.749 0 004.036.883 7.707 7.707 0 005.355-2.556 7.663 7.663 0 001.974-5.584 7.678 7.678 0 00-2.561-5.341 7.705 7.705 0 00-5.598-1.97c-4.006.213-7.147 3.438-7.333 7.352z" fill="#BDD0FB"/><g filter="url(#filter0_d)"><path d="M219.725 59.623c-.001-.669-.902-.89-1.213-.3-3.011 5.721-11.377 20.477-20.845 27.238-15.416 11.008-28.472 31.429-22.921 44.623-.001 0 45.153 1.26 44.979-71.561z" fill="#BDD0FB"/></g><path opacity=".43" d="M216.667 68.05c-.058.195-.121.352-.182.523l-.19.502-.391 1c-.265.663-.541 1.323-.816 1.983a193.866 193.866 0 01-1.711 3.932 202.546 202.546 0 01-3.697 7.74 175.072 175.072 0 01-4.03 7.575c-1.405 2.492-2.845 4.965-4.367 7.39-3.033 4.854-6.334 9.549-9.953 13.991-1.833 2.202-3.725 4.358-5.738 6.399-2.027 2.026-4.141 3.967-6.388 5.746a.113.113 0 01-.144-.174h.002a83.512 83.512 0 006.194-5.895c1.969-2.062 3.815-4.236 5.602-6.455a135.981 135.981 0 005.127-6.841c1.643-2.33 3.188-4.726 4.72-7.13 3.043-4.823 5.826-9.807 8.471-14.861a224.925 224.925 0 003.802-7.667 203.2 203.2 0 001.797-3.884l.86-1.959.42-.983.204-.493c.065-.163.136-.337.187-.482l.009-.023a.111.111 0 01.142-.07.107.107 0 01.07.135z" fill="#fff"/><g filter="url(#filter1_d)"><path d="M197.873 50.48c-.141-.625-1.029-.645-1.196-.028-1.617 5.968-6.348 21.485-13.778 29.766-12.097 13.484-20.024 35.267-12.085 46.434.001 0 42.429-8.209 27.059-76.173z" fill="#91B3FA"/></g><path opacity=".43" d="M196.779 58.983c-.013.195-.04.355-.061.527l-.072.509-.156 1.014c-.109.675-.229 1.348-.348 2.022a189.902 189.902 0 01-.775 4.028 195.14 195.14 0 01-1.835 7.996 164.5 164.5 0 01-2.182 7.912 173.69 173.69 0 01-2.534 7.808c-1.819 5.164-3.921 10.234-6.373 15.134-1.253 2.437-2.57 4.843-4.023 7.167-1.47 2.313-3.04 4.565-4.767 6.692a.11.11 0 01-.155.016.109.109 0 01-.019-.151l.001-.001a79.927 79.927 0 004.551-6.793c1.407-2.335 2.677-4.749 3.882-7.192a129.528 129.528 0 003.358-7.453c1.048-2.517 1.99-5.076 2.918-7.64 1.835-5.136 3.394-10.368 4.808-15.637a216.669 216.669 0 001.951-7.95c.302-1.33.593-2.663.866-4l.395-2.007.187-1.006.088-.503c.026-.165.057-.343.074-.487l.003-.025a.108.108 0 01.12-.095.11.11 0 01.098.115z" fill="#fff"/><g filter="url(#filter2_d)"><path d="M215.899 258H127V135.881c0-7.114 5.052-12.881 11.283-12.881h70.434c6.231 0 11.283 5.767 11.283 12.881v117.437c0 2.586-1.837 4.682-4.101 4.682z" fill="#FFAB18"/></g><path d="M171.241 118.69h-3.984l-6.263-18.377 17.409-1.055-7.162 19.432z" fill="url(#paint0_linear)"/><path d="M150.398 66.17c-.02 1.55-.02 31.92 15.435 36.852 15.454 4.931 22.434-20.765 21.88-39.065l-37.315 2.212z" fill="url(#paint1_linear)"/><path d="M181.603 121.478h-24.707v2.992h24.707v-2.992z" fill="url(#paint2_linear)"/><path d="M181.602 121.478h-24.706l6.252-3.347h12.201l6.253 3.347z" fill="url(#paint3_linear)"/><path d="M148.607 61.86c-1.357.082-2.466 1.084-2.466 2.227v2.336c0 1.142 1.11 2.016 2.467 1.944l42.355-2.273c1.357-.073 2.468-1.068 2.468-2.21v-2.667c0-1.143-1.111-2.01-2.467-1.927l-42.357 2.57z" fill="url(#paint4_linear)"/><path d="M176.776 105.435c-.987 0-1.838-.622-1.953-1.466-.124-.907.652-1.726 1.731-1.83.206-.021 14.419-1.518 15.766-9.278.227-1.309.202-3.018-1.209-3.731-1.164-.59-3.07-.402-4.432.435-.775.476-1.623 1.31-1.263 2.578.253.889-.4 1.78-1.457 1.992-1.057.212-2.12-.336-2.372-1.224-.654-2.3.381-4.549 2.767-6.015 2.652-1.628 6.266-1.875 8.789-.599 1.475.746 3.835 2.652 3.073 7.04-.753 4.34-4.385 7.816-10.503 10.052-4.393 1.607-8.537 2.018-8.711 2.035a2.46 2.46 0 01-.226.011z" fill="url(#paint5_linear)"/><path d="M162.035 105.435c.987 0 1.839-.622 1.954-1.466.123-.907-.652-1.726-1.731-1.83-.206-.021-14.419-1.518-15.766-9.278-.228-1.309-.203-3.018 1.208-3.731 1.164-.59 3.07-.402 4.433.435.775.476 1.623 1.31 1.262 2.578-.252.889.401 1.78 1.458 1.992 1.057.212 2.119-.336 2.372-1.224.653-2.3-.381-4.549-2.768-6.015-2.651-1.628-6.265-1.875-8.788-.599-1.475.746-3.835 2.652-3.074 7.04.754 4.34 4.386 7.816 10.504 10.052 4.393 1.607 8.537 2.018 8.71 2.035.076.007.152.011.226.011z" fill="url(#paint6_linear)"/><path opacity=".7" d="M179.33 63.784a.322.322 0 01-.017-.642l3.783-.204a.323.323 0 01.339.304.322.322 0 01-.304.338l-3.783.203h-.018zm-28.934 1.553a.321.321 0 01-.017-.643l22.597-1.212a.322.322 0 11.035.641l-22.597 1.213h-.018zm17.498 34.241c-.013 0-.026 0-.037-.002-4.092-.47-7.364-3.793-9.723-9.88-1.948-5.025-2.868-10.907-3.296-14.956a.32.32 0 01.286-.353.323.323 0 01.354.286c.735 6.95 3.42 23.229 12.452 24.265a.322.322 0 01-.036.64zm-13.01-27.725a.323.323 0 01-.321-.301c-.06-.927-.076-1.46-.077-1.482a.321.321 0 01.312-.33.31.31 0 01.332.311c0 .006.016.546.076 1.46a.322.322 0 01-.301.342h-.021z" fill="#fff"/><path d="M163 258H81v-90.13c0-2.137 1.531-3.87 3.42-3.87h75.16c1.889 0 3.42 1.733 3.42 3.87V258z" fill="#060C97"/><path d="M104.999 258H39.111c-2.27 0-4.111-2.081-4.111-4.649V203.79c0-7.064 5.063-12.79 11.309-12.79H93.69c6.246 0 11.309 5.726 11.309 12.79V258h-.001z" fill="#FFAB18"/><path d="M78.007 147.337c.104.208-1.37 9.395-1.716 9.721-.213.2-.53.224-.821.249-3.768.321-7.146 2.475-9.933 5.024-2.786 2.548-5.143 5.536-7.945 8.067-.813.734-1.705 1.463-2.72 1.899-1.236.529-2.025-.014-3.066.15l-.031.004a108.89 108.89 0 002.377 4.763c.541-.867 1.169-1.667 1.954-2.323 1.363-1.14 3.08-1.745 4.727-2.415 6.56-2.668 12.415-6.828 18.868-9.778 2.47-1.13 2.763-4.136 3.88-6.453 1.538-3.186 4.569-7.359 4.152-10.036-2.625.502-7.382-.153-9.726 1.128z" fill="url(#paint7_linear)"/><path d="M51.545 172.193l-1.194.249a.897.897 0 00-.675.614c-.888 2.932-1.337 5.318-1.074 8.071.117 1.224.815 3.044 1.554 4.028.756 1.006 1.467 1.684 1.77 1.372l.545-.33c.374-.226.582-.648.533-1.082l-1.459-12.922z" fill="url(#paint8_linear)"/><path d="M53.584 172.52l-2.04-.326c-.377-.061-.57.223-.78.544-.96 1.479-1.488 4.737-1.339 8.572.04 1.039.04 1.933.65 2.776 1.688 2.335 2.328 2.397 2.934 1.782l2.44-10.357c-1.091-.693-1.844-1.798-1.865-2.991z" fill="url(#paint9_linear)"/><path d="M89.498 133.898c-1.818-.718-3.95-1.059-5.841-.423-2.107.709-2.592 2.907-3.212 4.846a103.613 103.613 0 00-2.438 9.016l.001.005c-.035.157-1.147 6.361-1.15 6.884l.093.004c-.28 1.516-.54 2.713-.66 2.826-.213.201-1.36-.337-1.65-.312-3.768.321-6.316 3.037-9.103 5.586-1.174 1.074-2.27 2.225-3.357 3.388.172 2.002.993 3.66 3.448 4.526 4.722-2.435 9.229-5.332 14.073-7.546 2.47-1.13 2.762-4.135 3.88-6.453.094-.195.194-.393.297-.594.02.009 1.022-1.797 1.49-2.714.69-1.237 2.273-4.603 2.493-5.07a178.334 178.334 0 003.12-7.048c1.316-3.139 2.588-5.31-1.484-6.921z" fill="url(#paint10_linear)"/><path d="M86.23 80.221s-7.068-5.444-11.633 2.658c-4.565 8.1-6.5 10.527-7.85 8.358-.07.498-.105 1.314.29 2.08.753 1.46 2.521 1.69 3.448 1.812 2.684.351 5.157-.523 5.7-1.224 7.798-10.039 10.001-10.387 10.045-13.684z" fill="url(#paint11_linear)"/><path d="M118.272 104.402c3.999-1.037 7.702-4.179 10.021-7.602.267-.393.569-.829 1.03-.916.473-.09.924.224 1.303.531.735.597 2.732 1.807 2.112 3.057-.405.815-2.503 1.659-3.259 2.188.422-.296.381-1.417.242-1.816-.214.35-.424.774-.726 1.078-.309.312-.704.516-1.092.716-.873.449-1.446.979-2.225 1.534-1.751 1.711-3.448 3.547-5.61 4.725-1.821.991-3.87 1.457-5.906 1.816-.863.153-1.741.289-2.615.202-.803-.079-1.578-.343-2.344-.606-2.311-.791-4.642-1.677-6.671-3.091a12.645 12.645 0 01-2.607-2.392c-.817-1.008-1.726-2.406-1.818-3.745-.08-1.172.333-2.748 1.707-1.902 3.021 1.861 5.619 4.311 8.949 5.542 3.04 1.125 6.365 1.496 9.509.681z" fill="url(#paint12_linear)"/><path d="M83.722 105.525c-.572.045-1.142.094-1.705.139-2.254.181-3.897 1.542-5.466 3.089a22.799 22.799 0 00-2.229 2.55c-2.284 3.052-3.619 6.925-3.106 10.699.26 1.923.98 3.752 1.72 5.547.47 1.138.962 2.293 1.772 3.221.968 1.112 2.333 1.832 3.258 2.98.165.205.323.451.288.712-.035.271-.264.469-.478.641l-2.472 1.99c-.112.09-.234.184-.378.193-.224.013-.4-.182-.533-.362-.673-.902-1.604-2.137-1.763-3.266.362-.098 1.217.699 1.45.283-1.313-2.879-3.926-5-5.303-7.849-.889-1.841-1.217-3.895-1.472-5.923-.252-2.01-.439-4.082.09-6.039.257-.954.677-1.856 1.127-2.736 2.456-4.811 5.931-9.246 10.364-12.392 3.262-2.315 6.74-3.646 10.711-3.763 1.595-.047 3.214-.092 4.764.286 1.498.366 2.597.991 3.951 1.717 1.771.95 3.882 2.443 4.828 4.24-2.231.382-2.137 1.455-3.525 2.452-.63.453-1.42.617-2.184.755-2.459.445-5.203 1.026-7.686.765-1.967-.205-4.015-.088-6.023.071z" fill="url(#paint13_linear)"/><path d="M85.504 121.56c-.784 1.608-5.163 8.584-5.354 9.732-.191 1.149.512 2.802 1.504 3.642.756.64 7.414 2.188 10.041 1.503 1.98-.516 5.175-8.548 4.761-11.645a8.635 8.635 0 01-.049-1.708c-3.821-.166-7.052-.868-10.903-1.524z" fill="url(#paint14_linear)"/><path d="M127.528 154.788a27.098 27.098 0 01-.19-.161c-2.143-1.678-2.34-3.729-2.927-6.184a401.516 401.516 0 00-2.061-8.223l-.125-.471c-1.615.547-3.474.727-5.276.783.76 1.601 3.467 8.552 4.324 10.252.603 1.196 1.829 4.227 1.532 4.944-.062.153 2.934-.243 4.723-.94z" fill="url(#paint15_linear)"/><path d="M82.369 96.961c1.72-1.092 1.927 2.671 1.353 8.564l1.834 16.37c2.264 1.873 8.352 2.845 10.851 1.429 1.19-7.076 5.086-16.434 4.36-18.567-1.246-2.325-1.612-4.726-1.526-6.979-.68-.904-2.811-1.543-4.88-2.25l-4.764-.287c-2.211-.03-4.257-.002-7.228 1.72z" fill="url(#paint16_linear)"/><path d="M96.147 89.711c-.048.215-2.04 7.035-2.157 7.153-.115.118-3.458.545-5.117-.415l3.35-7.934 3.924 1.196z" fill="url(#paint17_linear)"/><path d="M94.688 78.783s2.978 1.195 5.062 5.423.616 6.222-1.266 6.524c-1.881.302-4.702.309-7.733-2.394-3.029-2.702.069-10.964 3.937-9.553z" fill="url(#paint18_linear)"/><path d="M92.719 86.028s-2.338-6.198 3.203-6.367l1.32.887s.72-2.618-2.646-4.212c-3.366-1.593-7.067-.913-8.411 3.597-1.343 4.51-.462 7.393 1.937 9.499 2.4 2.106 3.637-.226 3.637-.226s-1.626-2.103-1.12-3.187c.505-1.083 1.642.553 1.642.553l.438-.544z" fill="url(#paint19_linear)"/><path d="M122.35 140.22a392.165 392.165 0 00-2.787-10.09c-.595-2.051-.736-4.296-1.81-6.187-1.635-2.883-6.16-2.642-10.117-1.89-4.598.495-8.49.687-13.102 1.188-4.5.488-9.204 1.07-12.509 4.51-1.428 1.487-2.315 3.666-1.72 5.637.584 1.925 2.456 3.24 4.413 3.727 3.02.753 6.633.224 9.572-.668 6.013-1.827 12.651-5.485 18.133-8.37-.061 2.451-.528 4.474.619 6.745 1.512 2.992 3.822 6.138 5.19 9.199 1.52-.39 3.142-1.344 4.573-2.022-.152-.594-.3-1.188-.455-1.779zm-9.962-12.406l.042.002-.003.132-.039-.134z" fill="url(#paint20_linear)"/><path d="M122.839 157.153l.66 1.045a.92.92 0 00.824.43c3.054-.152 5.981-.53 8.462-1.68a4.92 4.92 0 001.793-1.445c1.22-1.557 2.282-3.312 1.702-3.573l-1.076-.857-12.365 6.08z" fill="url(#paint21_linear)"/><path d="M122.445 155.131l.395 2.022a.964.964 0 00.732.756c1.722.391 5.039.151 8.596-1.31a5.311 5.311 0 002.371-1.935c1.616-2.386 1.454-3.235.667-3.591l-9.671 1.319c-.277 1.261-1.974 2.309-3.09 2.739z" fill="url(#paint22_linear)"/><path d="M99.241 97.777c-.506 2.443.1 5.034 1.527 7.734l3.413 2.39c.982-2.762 1.576-5.33.718-7.168l-5.658-2.956z" fill="url(#paint23_linear)"/><path d="M77.46 99.538c-.675 2.304.544 4.901 2.21 7.567l4.292-1.58c1.187-4.129 1.346-7.422-.695-8.925l-5.806 2.938z" fill="url(#paint24_linear)"/></g><defs><linearGradient id="paint0_linear" x1="167.719" y1="136.971" x2="169.557" y2="102.274" gradientUnits="userSpaceOnUse"><stop stop-color="#FF928E"/><stop offset="1" stop-color="#FE7062"/></linearGradient><linearGradient id="paint1_linear" x1="169.724" y1="102.324" x2="169.029" y2="63.661" gradientUnits="userSpaceOnUse"><stop stop-color="#FF928E"/><stop offset="1" stop-color="#FE7062"/></linearGradient><linearGradient id="paint2_linear" x1="169.485" y1="119.123" x2="168.026" y2="143.061" gradientUnits="userSpaceOnUse"><stop stop-color="#FF928E"/><stop offset="1" stop-color="#FE7062"/></linearGradient><linearGradient id="paint3_linear" x1="169.249" y1="76.753" x2="169.249" y2="109.843" gradientUnits="userSpaceOnUse"><stop stop-color="#FF928E"/><stop offset="1" stop-color="#FE7062"/></linearGradient><linearGradient id="paint4_linear" x1="169.238" y1="73.705" x2="170.77" y2="46.378" gradientUnits="userSpaceOnUse"><stop stop-color="#FF928E"/><stop offset="1" stop-color="#FE7062"/></linearGradient><linearGradient id="paint5_linear" x1="173.165" y1="102.373" x2="223.271" y2="72.791" gradientUnits="userSpaceOnUse"><stop stop-color="#FF928E"/><stop offset="1" stop-color="#FE7062"/></linearGradient><linearGradient id="paint6_linear" x1="149.489" y1="101.915" x2="166.364" y2="79.155" gradientUnits="userSpaceOnUse"><stop stop-color="#FF928E"/><stop offset="1" stop-color="#FE7062"/></linearGradient><linearGradient id="paint7_linear" x1="59.876" y1="177.212" x2="82.748" y2="141.784" gradientUnits="userSpaceOnUse"><stop stop-color="#FEBBBA"/><stop offset="1" stop-color="#FF928E"/></linearGradient><linearGradient id="paint8_linear" x1="61.736" y1="175.049" x2="40.428" y2="184.102" gradientUnits="userSpaceOnUse"><stop stop-color="#09005D"/><stop offset="1" stop-color="#1A0F91"/></linearGradient><linearGradient id="paint9_linear" x1="61.422" y1="178.459" x2="36.26" y2="180.406" gradientUnits="userSpaceOnUse"><stop stop-color="#FF928E"/><stop offset="1" stop-color="#FE7062"/></linearGradient><linearGradient id="paint10_linear" x1="89.435" y1="130.191" x2="59.522" y2="187.025" gradientUnits="userSpaceOnUse"><stop stop-color="#09005D"/><stop offset="1" stop-color="#1A0F91"/></linearGradient><linearGradient id="paint11_linear" x1="80.493" y1="48.709" x2="73.772" y2="111.348" gradientUnits="userSpaceOnUse"><stop stop-color="#09005D"/><stop offset="1" stop-color="#1A0F91"/></linearGradient><linearGradient id="paint12_linear" x1="143.737" y1="98.374" x2="89.681" y2="106.362" gradientUnits="userSpaceOnUse"><stop stop-color="#FEBBBA"/><stop offset="1" stop-color="#FF928E"/></linearGradient><linearGradient id="paint13_linear" x1="71.855" y1="130.274" x2="101.815" y2="78.788" gradientUnits="userSpaceOnUse"><stop stop-color="#FEBBBA"/><stop offset="1" stop-color="#FF928E"/></linearGradient><linearGradient id="paint14_linear" x1="120.972" y1="101.018" x2="83.691" y2="133.5" gradientUnits="userSpaceOnUse"><stop stop-color="#09005D"/><stop offset="1" stop-color="#1A0F91"/></linearGradient><linearGradient id="paint15_linear" x1="117.741" y1="141.707" x2="140.156" y2="170.186" gradientUnits="userSpaceOnUse"><stop stop-color="#FEBBBA"/><stop offset="1" stop-color="#FF928E"/></linearGradient><linearGradient id="paint16_linear" x1="122.768" y1="68.305" x2="104.665" y2="91.106" gradientUnits="userSpaceOnUse"><stop stop-color="#FF928E"/><stop offset="1" stop-color="#FE7062"/></linearGradient><linearGradient id="paint17_linear" x1="91.546" y1="104.954" x2="92.658" y2="91.194" gradientUnits="userSpaceOnUse"><stop stop-color="#FEBBBA"/><stop offset="1" stop-color="#FF928E"/></linearGradient><linearGradient id="paint18_linear" x1="99.489" y1="82.211" x2="85.32" y2="92.218" gradientUnits="userSpaceOnUse"><stop stop-color="#FEBBBA"/><stop offset="1" stop-color="#FF928E"/></linearGradient><linearGradient id="paint19_linear" x1="98.536" y1="72.28" x2="63.882" y2="115.379" gradientUnits="userSpaceOnUse"><stop stop-color="#09005D"/><stop offset="1" stop-color="#1A0F91"/></linearGradient><linearGradient id="paint20_linear" x1="129.775" y1="111.121" x2="92.494" y2="143.603" gradientUnits="userSpaceOnUse"><stop stop-color="#09005D"/><stop offset="1" stop-color="#1A0F91"/></linearGradient><linearGradient id="paint21_linear" x1="121.732" y1="146.338" x2="138.284" y2="164.125" gradientUnits="userSpaceOnUse"><stop stop-color="#09005D"/><stop offset="1" stop-color="#1A0F91"/></linearGradient><linearGradient id="paint22_linear" x1="126.24" y1="147.755" x2="136.871" y2="171.085" gradientUnits="userSpaceOnUse"><stop stop-color="#FF928E"/><stop offset="1" stop-color="#FE7062"/></linearGradient><linearGradient id="paint23_linear" x1="126.745" y1="71.462" x2="108.642" y2="94.263" gradientUnits="userSpaceOnUse"><stop stop-color="#FF928E"/><stop offset="1" stop-color="#FE7062"/></linearGradient><linearGradient id="paint24_linear" x1="113.739" y1="61.136" x2="95.636" y2="83.936" gradientUnits="userSpaceOnUse"><stop stop-color="#FF928E"/><stop offset="1" stop-color="#FE7062"/></linearGradient><filter id="filter0_d" x="158.444" y="53.981" width="76.282" height="102.205" filterUnits="userSpaceOnUse" color-interpolation-filters="sRGB"><feFlood flood-opacity="0" result="BackgroundImageFix"/><feColorMatrix in="SourceAlpha" values="0 0 0 0 0 0 0 0 0 0 0 0 0 0 0 0 0 0 127 0" result="hardAlpha"/><feOffset dy="10"/><feGaussianBlur stdDeviation="7.5"/><feComposite in2="hardAlpha" operator="out"/><feColorMatrix values="0 0 0 0 0 0 0 0 0 0 0 0 0 0 0 0 0 0 0.6 0"/><feBlend in2="BackgroundImageFix" result="effect1_dropShadow"/><feBlend in="SourceGraphic" in2="effect1_dropShadow" result="shape"/></filter><filter id="filter1_d" x="152.62" y="45" width="63.607" height="106.652" filterUnits="userSpaceOnUse" color-interpolation-filters="sRGB"><feFlood flood-opacity="0" result="BackgroundImageFix"/><feColorMatrix in="SourceAlpha" values="0 0 0 0 0 0 0 0 0 0 0 0 0 0 0 0 0 0 127 0" result="hardAlpha"/><feOffset dy="10"/><feGaussianBlur stdDeviation="7.5"/><feComposite in2="hardAlpha" operator="out"/><feColorMatrix values="0 0 0 0 0 0 0 0 0 0 0 0 0 0 0 0 0 0 0.6 0"/><feBlend in2="BackgroundImageFix" result="effect1_dropShadow"/><feBlend in="SourceGraphic" in2="effect1_dropShadow" result="shape"/></filter><filter id="filter2_d" x="112" y="118" width="123" height="165" filterUnits="userSpaceOnUse" color-interpolation-filters="sRGB"><feFlood flood-opacity="0" result="BackgroundImageFix"/><feColorMatrix in="SourceAlpha" values="0 0 0 0 0 0 0 0 0 0 0 0 0 0 0 0 0 0 127 0" result="hardAlpha"/><feOffset dy="10"/><feGaussianBlur stdDeviation="7.5"/><feComposite in2="hardAlpha" operator="out"/><feColorMatrix values="0 0 0 0 0 0 0 0 0 0 0 0 0 0 0 0 0 0 1 0"/><feBlend in2="BackgroundImageFix" result="effect1_dropShadow"/><feBlend in="SourceGraphic" in2="effect1_dropShadow" result="shape"/></filter></defs></svg>