<svg width="574" height="367" fill="none" xmlns="http://www.w3.org/2000/svg"><path opacity=".35" d="M18.296 257.737l31.663 40.667a57.378 57.378 0 0045.267 22.125H488.18a57.37 57.37 0 0039.615-15.876l6.766-6.454c37.61-35.907 44.964-93.244 17.615-137.468a57.376 57.376 0 01-8.281-35.934c4.733-46.907-26.449-89.919-72.501-100.01L383.667 5.56c-67.579-14.807-138.252.294-193.922 41.371-10.162 7.497-17.401 12.516-18.515 12.49-2.255-.063-36.076 5.294-68.516 10.536-34.97 5.652-60.876 35.542-61.482 70.967a57.34 57.34 0 01-17.517 40.284c-21.1 20.378-23.444 53.388-5.42 76.53z" fill="#A2D4F9"/><path d="M564.21 94.783c-1.934-4.69-5.937-8.309-10.893-9.69-.455-11.26-9.717-20.254-21.092-20.254-10.001 0-18.372 6.962-20.556 16.296a16.868 16.868 0 00-1.908-.116c-6.641 0-12.373 3.895-15.029 9.53a21.006 21.006 0 00-13.149-4.6c-7.078 0-13.336 3.485-17.169 8.834h99.796zm-466.63 54.19a11.19 11.19 0 00-7.31-6.508c-.302-7.559-6.525-13.594-14.164-13.594-6.713 0-12.338 4.671-13.8 10.947a11.99 11.99 0 00-1.283-.08c-4.458 0-8.309 2.62-10.091 6.4a14.113 14.113 0 00-8.835-3.093 14.159 14.159 0 00-11.526 5.928h67.01zm84.74-99.386a8.102 8.102 0 015.304-4.716c.223-5.482 4.734-9.859 10.27-9.859 4.867 0 8.95 3.387 10.01 7.934a8.083 8.083 0 018.246 4.59 10.245 10.245 0 016.401-2.237c3.45 0 6.489 1.694 8.361 4.297H182.32v-.01z" fill="#fff"/><path d="M179.253 84.201V75.43a3.264 3.264 0 00-3.263-3.263h-8.353a41.828 41.828 0 00-7.514-17.365l6.142-6.142a3.256 3.256 0 000-4.609l-6.205-6.204a3.254 3.254 0 00-4.608 0l-6.472 6.471a41.881 41.881 0 00-17.036-6.302v-9.895c0-1.8-1.461-3.262-3.262-3.262h-8.772a3.264 3.264 0 00-3.263 3.262v10.564a42.063 42.063 0 00-15.537 7.122l-7.97-7.96a3.255 3.255 0 00-4.608 0l-6.205 6.204a3.255 3.255 0 000 4.609l8.29 8.29A42.23 42.23 0 0084.6 72.158H72.584a3.264 3.264 0 00-3.263 3.263v8.771a3.264 3.264 0 003.263 3.263H84.59a42.188 42.188 0 006.018 15.199l-8.29 8.29a3.255 3.255 0 000 4.609l6.204 6.204a3.255 3.255 0 004.609 0l7.969-7.96a41.653 41.653 0 0015.538 7.131v10.564c0 1.8 1.462 3.262 3.262 3.262h8.772a3.264 3.264 0 003.263-3.262v-9.895a42.038 42.038 0 0017.035-6.311l6.472 6.471a3.254 3.254 0 004.608 0l6.205-6.204a3.257 3.257 0 000-4.609l-6.142-6.142a41.92 41.92 0 007.515-17.356h8.352a3.24 3.24 0 003.272-3.245zm-34.115 7.765a22.59 22.59 0 01-8.629 7.88 22.11 22.11 0 01-5.955 2.104 22.154 22.154 0 01-4.448.445c-2.523 0-4.966-.419-7.23-1.194a21.566 21.566 0 01-4.938-2.371 22.59 22.59 0 01-7.89-8.62 21.761 21.761 0 01-1.765-4.565 22.513 22.513 0 01-.766-5.838c0-2.015.267-3.976.766-5.84a22.053 22.053 0 011.774-4.572 22.566 22.566 0 017.881-8.62 22.112 22.112 0 014.938-2.372 22.316 22.316 0 017.23-1.194c1.515 0 3.013.151 4.448.445a21.82 21.82 0 015.955 2.104 22.591 22.591 0 018.629 7.88 22.39 22.39 0 012.781 6.33 22.575 22.575 0 010 11.678 21.978 21.978 0 01-2.781 6.32z" fill="#FFAB18"/><path d="M175.99 72.167h-8.353a41.828 41.828 0 00-7.514-17.365l6.142-6.142a3.256 3.256 0 000-4.609l-6.205-6.204a3.256 3.256 0 00-4.609 0l-6.471 6.471a41.881 41.881 0 00-17.036-6.302v-9.895c0-1.8-1.462-3.262-3.262-3.262h-8.772a3.264 3.264 0 00-3.263 3.262v10.564a42.063 42.063 0 00-15.537 7.122l-7.97-7.96a3.255 3.255 0 00-4.609 0l-6.204 6.204a3.255 3.255 0 000 4.609l8.29 8.29A42.229 42.229 0 0084.6 72.158h-1.114a64.083 64.083 0 0023.819 20.129 21.707 21.707 0 01-3.004-6.641 22.513 22.513 0 01-.767-5.84c0-2.014.268-3.975.767-5.838a22 22 0 011.774-4.574 22.564 22.564 0 017.88-8.62 22.14 22.14 0 014.939-2.37 22.315 22.315 0 017.229-1.195c1.516 0 3.013.151 4.449.445a21.87 21.87 0 015.954 2.104 22.584 22.584 0 018.629 7.88 22.393 22.393 0 012.782 6.33c.499 1.863.766 3.815.766 5.838 0 2.015-.267 3.976-.766 5.84a22.339 22.339 0 01-2.782 6.32 22.535 22.535 0 01-6.596 6.677 63.257 63.257 0 0028.481-8.425c.232-.909.446-1.827.615-2.763h3.762a63.885 63.885 0 007.854-6.41v-5.624a3.284 3.284 0 00-3.281-3.254z" fill="#060C97"/><path d="M319.822 290.648h-71.707v46.809h71.707v-46.809z" fill="#0058C6"/><path d="M319.822 290.648h-71.707v20.78h71.707v-20.78z" fill="#0E35AF"/><path d="M455.615 274.611H112.324V96.993c0-9.484 7.693-17.178 17.178-17.178h308.935c9.485 0 17.178 7.694 17.178 17.178v177.618z" fill="#0058C6"/><path d="M443.642 100.069H124.286v165.423h319.356V100.069z" fill="#7DB6F4"/><path d="M455.614 265.492H112.323v17.338c0 9.485 7.693 17.178 17.178 17.178h308.935c9.485 0 17.178-7.693 17.178-17.178v-17.338z" fill="#57AFF7"/><path d="M283.968 290.648a6.499 6.499 0 100-12.997 6.499 6.499 0 000 12.997z" fill="#0058C6"/><path d="M413.307 345.926H154.631a4.318 4.318 0 01-4.315-4.315c0-6.971 5.652-12.622 12.623-12.622h242.06c6.971 0 12.623 5.651 12.623 12.622a4.318 4.318 0 01-4.315 4.315z" fill="#57AFF7"/><path d="M427.695 142.635h-66.884a1.952 1.952 0 01-1.953-1.952v-13.8c0-1.079.874-1.952 1.953-1.952h66.884c1.078 0 1.952.873 1.952 1.952v13.8a1.952 1.952 0 01-1.952 1.952z" fill="#AFD9FF"/><path d="M368.824 136.716l-2.71 1.239.348-2.96-2.024-2.193 2.924-.588 1.462-2.603 1.462 2.603 2.924.588-2.014 2.193.338 2.96-2.71-1.239zm12.712 0l-2.71 1.239.348-2.96-2.024-2.193 2.924-.588 1.462-2.603 1.462 2.603 2.924.588-2.015 2.193.339 2.96-2.71-1.239zm12.711 0l-2.71 1.239.348-2.96-2.024-2.193 2.924-.588 1.462-2.603 1.462 2.603 2.924.588-2.015 2.193.339 2.96-2.71-1.239zm12.713 0l-2.71 1.239.348-2.96-2.024-2.193 2.924-.588 1.462-2.603 1.471 2.603 2.915.588-2.015 2.193.339 2.96-2.71-1.239z" fill="#FFAB18"/><path d="M419.672 136.716l-2.71 1.239.348-2.96-2.024-2.193 2.924-.588 1.462-2.603 1.471 2.603 2.915.588-2.015 2.193.339 2.96-2.71-1.239z" fill="#F7F7F7"/><path d="M213.51 139.247h-71.315a3.903 3.903 0 01-3.904-3.904v-16.795a3.903 3.903 0 013.904-3.904h71.315a3.904 3.904 0 013.905 3.904v16.795a3.904 3.904 0 01-3.905 3.904z" fill="#AFD9FF"/><path d="M157.823 129.598a6.9 6.9 0 10-12.739-5.306 6.9 6.9 0 0012.739 5.306z" fill="#FFAB18"/><path d="M146.82 132.045a6.854 6.854 0 004.636 1.8 6.884 6.884 0 004.635-1.8 4.638 4.638 0 00-2.897-3.95 2.866 2.866 0 001.141-2.273 2.869 2.869 0 00-2.87-2.87 2.869 2.869 0 00-2.871 2.87c0 .927.455 1.748 1.141 2.273a4.64 4.64 0 00-2.915 3.95z" fill="#F7F7F7"/><path d="M200.127 123.344h-36.772v1.319h36.772v-1.319zm11.018 2.942h-47.79v1.319h47.79v-1.319zm0 2.942h-47.79v1.319h47.79v-1.319z" fill="#DCF1FF"/><path d="M181.463 160.258h-41.22a1.951 1.951 0 01-1.952-1.952v-7.381c0-1.079.874-1.952 1.952-1.952h41.22a1.95 1.95 0 011.952 1.952v7.381a1.95 1.95 0 01-1.952 1.952zm0 15.948h-41.22a1.951 1.951 0 01-1.952-1.952v-7.381c0-1.079.874-1.952 1.952-1.952h41.22a1.95 1.95 0 011.952 1.952v7.381a1.95 1.95 0 01-1.952 1.952z" fill="#AFD9FF"/><path d="M181.463 192.163h-41.22a1.952 1.952 0 01-1.952-1.952v-7.382c0-1.078.874-1.952 1.952-1.952h41.22c1.079 0 1.952.874 1.952 1.952v7.382a1.957 1.957 0 01-1.952 1.952z" fill="#DCF1FF"/><path d="M233.452 176.206h-41.219a1.952 1.952 0 01-1.953-1.952v-7.381c0-1.079.874-1.952 1.953-1.952h41.219c1.079 0 1.953.873 1.953 1.952v7.381a1.952 1.952 0 01-1.953 1.952z" fill="#FFAB18"/><path d="M233.452 192.163h-41.219a1.952 1.952 0 01-1.953-1.952v-7.382c0-1.078.874-1.952 1.953-1.952h41.219c1.079 0 1.953.874 1.953 1.952v7.382a1.958 1.958 0 01-1.953 1.952z" fill="#AFD9FF"/><path d="M427.695 181.858h-41.22a1.952 1.952 0 01-1.953-1.952v-7.382c0-1.078.874-1.952 1.953-1.952h41.22c1.078 0 1.952.874 1.952 1.952v7.382a1.958 1.958 0 01-1.952 1.952z" fill="#FFAB18"/><path d="M427.695 197.806h-41.22a1.953 1.953 0 01-1.953-1.953v-7.381c0-1.078.874-1.952 1.953-1.952h41.22c1.078 0 1.952.874 1.952 1.952v7.381c0 1.07-.874 1.953-1.952 1.953z" fill="#AFD9FF"/><path d="M427.695 213.753h-41.22a1.952 1.952 0 01-1.953-1.952v-7.381c0-1.079.874-1.952 1.953-1.952h41.22c1.078 0 1.952.873 1.952 1.952v7.381a1.951 1.951 0 01-1.952 1.952z" fill="#DCF1FF"/><path d="M229.841 111.158c-2.032 51.463-25.967 56.669 0 93.797 25.968 37.119 115.405 23.97 116.929-4.136 1.525-28.107-17.365-45.036-4.992-80.203 12.373-35.167-111.937-9.458-111.937-9.458z" fill="#252384"/><path d="M236.5 124.851c-3.013 23.391-11.045 46.452-6.917 59.137 0 0 .454-14.263 3.12-17.704 0 0-2.666 20.022 5.5 36.264 8.165 16.242 96.328 13.149 96.328 13.149s1.801-17.785 0-30.675-5.242-17.9-6.231-24.799a4881 4881 0 007.55 15.52c2.113 4.296 2.398 10.59 2.398 10.59s.571-11.455-3.895-20.218-1.792-32.929-.464-42.325c1.32-9.396-62.186-20.539-69.095-16.777-6.908 3.762-28.294 17.838-28.294 17.838z" fill="#0C0835"/><path d="M256.977 188.383c-30.639 10.376-52.622 14.29-58.978 34.311-6.347 20.031-15.252 42.798-15.252 42.798h207.214s-10.261-47.192-21.493-55.01c-11.232-7.818-55.197-20.913-68.631-23.151-13.425-2.246-42.86 1.052-42.86 1.052z" fill="#FFAB18"/><path d="M341.441 233.748s.784 18.792-1.962 31.753h7.025l-5.063-31.753zm-109.032 7.399s-.597 14.406 1.506 24.345h-5.384l3.878-24.345zm-24.639-24.176c2.683-7.078 11.348-15.386 11.356-15.395-10.518 4.832-17.873 10.858-21.127 21.118-6.347 20.031-15.252 42.798-15.252 42.798h16.714c-.722-21.332 5.625-41.434 8.309-48.521z" fill="#B57300"/><path d="M294.47 227.339s-14.896-.981-23.935-7.818c-9.039-6.837-7.818-13.675-7.818-13.675s-6.596.491-9.039 0c-2.442-.49 1.061-25.932 15.306-26.404 14.245-.464 44.082 5.447 47.745 5.643 3.664.196 15.752 11.027 12.694 24.755-.49 2.202-6.391-3.994-9.074-.82-2.684 3.173-4.868 16.607-25.879 18.319z" fill="#060C97"/><path d="M289.532 223.238s-17.891-12.007-25.95-35.577c-1.275-3.726.883-5.812 4.832-6.445l21.118 42.022zm5.696 3.619c10.474-6.703 20.128-23.186 23.052-28.686 2.933-5.491 3.049-10.67-5.928-11.624-8.968-.954-17.124 40.31-17.124 40.31z" fill="#011D72"/><path d="M313.699 153.109c-2.701 21.787-4.244 33.438 3.039 42.477 0 0-12.988 26.377-22.268 31.753 0 0-22.223-15.877-28.329-41.274 0 0 3.663-5.616 4.154-13.924.49-8.308-.731-22.714-.731-22.714l44.135 3.682z" fill="#FFC5C7"/><path d="M308.011 211.186c-13.549 16.411-27.518 2.558-32.706-4.475 8.566 13.051 19.165 20.628 19.165 20.628 4.279-2.478 9.334-9.396 13.541-16.153zm-37.716-39.045c-.419 7.105-3.156 12.24-3.941 13.568 10.056-1.783 31.62-5.919 45.143-10.742.214-5.973 1.114-13.095 2.193-21.858l-26.922-2.246-17.187-1.115c.179 2.149 1.159 14.807.714 22.393z" fill="#FE8A8B"/><path d="M348.803 97.6c.865-13.737 1.088-26.244-9.636-42.272s-8.46 26.261-8.281 26.743c.178.481 9.502 18.319 9.502 18.319l8.415-2.79z" fill="#FFA6A4"/><path d="M342.751 119.35c-1.364 7.899-.437 14.424 3.352 15.084 3.788.65 7.96-5.224 9.324-13.122 1.364-7.898-.606-14.834-4.395-15.493-3.788-.66-6.917 5.624-8.281 13.531z" fill="#F97068"/><path d="M350.159 124.414l-2.389.971-2.336 6.481s-.392.802-.882 1.837c.454.365.962.624 1.551.731 3.361.579 7.015-3.976 8.754-10.519-3.022 1.56-4.698.499-4.698.499z" fill="#CB3034"/><path d="M339.248 95.032c2.942-.544 11.276 1.667 12.221 5.973 2.149 9.788-1.426 32.501-7.978 38.109-2.389 2.041-9.048 1.631-11.41.9-6-1.836-6.017-11.428-3.825-24.14 2.184-12.712 6.909-20.084 10.992-20.842z" fill="#F97068"/><path d="M350.158 124.414c-3.048 2.202-4.635 0-4.635 0-2.068 4.395-5.866 4.395-10.67 5.045l-2.693-1.426s-2.629 1.934-5.09 3.682c.446 4.377 1.944 7.354 5.01 8.299 2.362.722 9.021 1.141 11.411-.9 2.87-2.452 5.17-8.202 6.667-14.7z" fill="#CB3034"/><path d="M351.469 101.005c-.945-4.306-9.28-6.517-12.222-5.973-.24.045-.49.116-.739.205 5.384-.4 8.21 3.37 8.825 7.693.615 4.324 0 23.864-6.338 32.484-.812 1.097-2.211 4.315-6.918 4.992 2.995.392 7.524.312 9.414-1.301 6.552-5.599 10.126-28.312 7.978-38.1z" fill="#FFA6A4"/><path d="M350.159 124.414c-3.049 2.202-4.636 0-4.636 0-1.007 4.225-2.46 8.192-4.528 11-.812 1.097-2.211 4.315-6.918 4.992 2.995.392 7.524.312 9.414-1.301 2.87-2.443 5.17-8.193 6.668-14.691z" fill="#F97068"/><path d="M339.693 117.657c-1.185 6.899-3.645 12.23-5.5 11.918-1.845-.321-2.38-6.169-1.194-13.068 1.185-6.9 3.646-12.231 5.5-11.919 1.845.321 2.38 6.169 1.194 13.069z" fill="#CB3034"/><path d="M247.368 139.595c.08.205.169.401.258.606 3.004 6.927 8.424 14.138 13.728 19.54 7.836 7.988 18.471 14.923 29.738 16.438 12.115 1.623 23.231-5.116 31.334-13.763 3.726-3.976 6.633-8.879 7.836-14.228 1.275-5.678.588-11.775 1.515-17.579.5-3.12 1.757-6.061 2.808-9.039 3.236-9.137 4.859-19.362 3.744-29.194-.463-4.083-1.132-9.94-3.342-13.479-2.541-4.074-8.424-7.274-12.391-9.76-12.721-7.961-29.578-10.876-44.028-6.375-14.771 4.6-26.823 16.438-33.046 30.443-2.959 6.668-4.68 13.229-3.244 20.414 1.8 8.95 1.524 17.347 5.09 25.976z" fill="#FFC5C7"/><path d="M244.408 105.934s22.955 6.312 43.226 0c20.271-6.31 27.153-19.005 28.838-25.602 0 0 16.554 12.98 19.87 32.137 0 0 1.141-34.009-9.432-38.243-10.563-4.234-32.689-9.77-35.131-7.568-2.443 2.202-43.475 25.646-43.475 25.646l-3.896 13.63z" fill="#FE8A8B"/><path d="M267.772 106.416a44.789 44.789 0 015.18-2.131c1.783-.588 3.637-1.043 5.544-1.266 1.89-.231 3.878-.508 5.786-.017 2.754.748 3.851 1.301 5.188 2.576l-.089.249c-.999.063-1.917.009-2.835-.035l-2.674-.143c-1.747-.062-3.459-.49-5.242-.49-1.774 0-3.566.16-5.366.437-1.801.249-3.593.668-5.402 1.078l-.09-.258zm59.754.57a20.639 20.639 0 00-5.295-1.479c-1.801-.268-3.611-.348-5.411-.268-1.81.08-3.548.571-5.331.678-1.792.124-3.584.303-5.589.24l-.089-.249c1.515-1.329 3.342-2.122 5.223-2.621 1.899-.526 3.896-.339 5.821-.178 1.935.151 3.851.508 5.679 1.114 1.818.624 3.583 1.426 5.117 2.549l-.125.214zm-48.583 13.274c.964 0 1.747-1.597 1.747-3.566 0-1.969-.783-3.566-1.747-3.566-.965 0-1.748 1.597-1.748 3.566 0 1.969.783 3.566 1.748 3.566zm36.7.169c.925 0 1.676-1.596 1.676-3.566 0-1.969-.751-3.565-1.676-3.565-.926 0-1.676 1.596-1.676 3.565 0 1.97.75 3.566 1.676 3.566z" fill="#0C0835"/><path d="M302.618 133.836c-.508 1.329-1.381 2.55-2.585 3.307-1.212.758-2.772.99-4.091.428-2.122-.891-2.701-3.369.178-2.808 1.123.214 2.193.348 3.343.188.588-.072 2.897-.446 3.155-1.115z" fill="#FE8A8B"/><path d="M281.607 143.535c7.266.945 24.764 1.364 30.479 1.079-2.336 7.755-8.095 15.359-15.975 15.074-8.094-.285-12.792-8.068-14.504-16.153z" fill="#C31F2A"/><path d="M305.65 155.667c-6.089-5.125-10.483-.739-10.483-.739-1.391-.945-5.224-2.532-8.594-.259 1.863 2.273 4.199 3.958 7.034 4.662.882.116 1.8.241 2.719.357 3.61.062 6.757-1.533 9.324-4.021z" fill="#FB8384"/><path d="M283.497 143.74c.125 1.302.374 2.585.767 3.833 7.862 2.889 16.661 3.343 24.746 1.275.294-1.355.517-2.755.677-4.163-6.561.098-19.148-.25-26.19-.945z" fill="#fff"/><path d="M328.603 158.627a7.896 7.896 0 01-1.729-.045c-5.545-.748-8.522-1.167-8.522-1.167l.338-2.434s2.969.41 8.514 1.168c5.107.695 11.659-7.417 13.389-16.964a1.235 1.235 0 011.382-1.025 1.221 1.221 0 011.051 1.408c-1.8 10.073-8.406 18.578-14.423 19.059z" fill="#FFA6A4"/><path d="M342.732 138.579c0 .089 0 .178-.018.267-1.791 10.073-8.406 18.578-14.414 19.05a7.959 7.959 0 01-1.729-.044c-4.377-.598-7.15-.972-8.121-1.115l-.098.678s2.968.41 8.522 1.167c.561.081 1.141.09 1.729.045 6.008-.481 12.614-8.986 14.415-19.05a1.172 1.172 0 00-.286-.998z" fill="#F97068"/><path d="M318.495 158.805l-4.868-.668a3.067 3.067 0 01-2.62-3.459 3.066 3.066 0 013.458-2.621l4.868.669a3.067 3.067 0 012.62 3.459 3.07 3.07 0 01-3.458 2.62z" fill="#252384"/><path d="M321.24 153.778c.009.196.009.401-.018.606a3.067 3.067 0 01-3.458 2.621l-4.261-.58a3.062 3.062 0 01-2.443-1.97c-.018.071-.044.143-.053.223a3.072 3.072 0 002.629 3.459l4.868.668a3.07 3.07 0 003.458-2.62 3.134 3.134 0 00-.722-2.407z" fill="#261B60"/><path d="M311.819 74.333s24.425 10.26 24.666 43.716c0 0 19.54-21.492 8.058-53.727-11.482-32.234-44.696-31.013-44.696-31.013l11.972 41.024z" fill="#252384"/><path d="M311.818 74.333s23.819 10.029 24.631 42.53v-.561c-.401-32.796-11.767-41.505-22.999-47.478l-2.675 1.917 1.043 3.592z" fill="#261B60"/><path d="M243.027 104.126s67.321 3.904 72.696-30.282c5.375-34.195-11.883-42.486-20.351-43.306-8.469-.82-24.961-2.781-39.081 10.911-14.111 13.693-29.863 21.983-28.116 66.269l14.852-3.592z" fill="#252384"/><path d="M241.627 94.863c2.933-1.632 5.866-3.307 8.7-5.162a156.605 156.605 0 008.389-5.74c5.491-4.003 10.795-8.282 15.814-12.917-4.555 5.09-9.458 9.886-14.593 14.441a165.013 165.013 0 01-7.916 6.606c-2.692 2.148-5.518 4.145-8.371 6.106l-2.023-3.334zm38.269-50.518c-15.957 8.63-33.5 29.382-33.839 46.578 0 0-6.748-6.258-3.2-15.235s13.996-18.925 19.781-23.195c5.794-4.279 17.258-8.148 17.258-8.148z" fill="#0C0835"/><path d="M247.038 96.77c-2.14-5.535-.669-24.443 0-29.809.668-5.375 2.656-9.467 2.87-10.474.214-1.008-.249-1.31-.249-1.31 11.107-17.099 26.868-19.541 42.851-24.542l-.918-.455c-9.03-.713-23.062-.615-35.292 11.26-14.111 13.692-29.863 21.982-28.116 66.268l14.842-3.583s23.026 1.337 43.217-4.395c-22.455 4.413-37.075 2.585-39.205-2.96z" fill="#0C0835"/><path d="M307.389 73.736c-6.597 10.305-14.762 19.914-45.936 24.39-20.77 2.986-24.051-1.275-24.051-1.275s36.246-2.416 50.892-9.842c14.638-7.443 19.095-13.273 19.095-13.273z" fill="#0C0835"/><path d="M247.662 55.987c4.038-11.802 24.256-25.13 47.71-25.459 0 0-12.053-2.933-26.048 2.282-14.005 5.206-24.078 13.71-29.622 23.302-5.554 9.592 7.96-.125 7.96-.125z" fill="#FFA6A4"/><path d="M268.094 36.002c-12.819 5.125-19.942 15.992-19.942 15.992-.641.08-6.498 1.168-6.587 1.185a41.088 41.088 0 00-1.872 2.924c-.196.348-.366.66-.517.954 1.836-.125 4.519-.25 5.232.063.295.133.874.089 1.783-.134.883-.58 1.471-1.008 1.471-1.008 4.038-11.802 24.256-25.129 47.71-25.459-7.889-.089-14.459.357-27.278 5.483z" fill="#F97068"/><path d="M244.533 97.6c-1.105-21.93 1.997-36.888 4.761-40.962 2.763-4.074-8.594-2.3-10.867.892-1.48 2.068-6.472 19.513-4.644 40.212 1.827 20.699 10.75-.142 10.75-.142z" fill="#FFA6A4"/><path d="M247.251 54.276c.972.365 1.257.856.571 1.916-.696 1.061-3.539 10.341-4.27 18.524-.731 8.184-.366 16.768-.526 17.749-.161.98-7.328 2.781-9.485 1.8a95.27 95.27 0 00.25 3.495 40.73 40.73 0 00.517 3.922c2.175.241 5.197.357 7.951.393 1.337-2.265 2.282-4.475 2.282-4.475-1.105-21.93 1.997-36.888 4.761-40.962 1.114-1.64-.081-2.335-2.051-2.362z" fill="#F97068"/><path d="M242.643 96.539c-2.87-.847-11.384.499-12.774 4.68-3.147 9.52-1.935 32.484 4.02 38.732 2.166 2.283 8.834 2.55 11.259 2.069 6.151-1.213 7.158-10.742 6.293-23.623-.882-12.873-4.822-20.69-8.798-21.858z" fill="#F97068"/><path d="M233.88 139.952c2.166 2.282 8.834 2.549 11.259 2.068 3.539-.696 5.366-4.154 6.124-9.396-2.959 2.541-10.528 1.729-14.352 0 0 0 .624-11.428-1.4-17.873 0 0-3.619 7.987-5.821 15.413.945 4.27 2.336 7.835 4.19 9.788z" fill="#CB3034"/><path d="M241.6 119.065c.776 11.5-1.934 21.047-6.062 21.323-4.127.277-8.103-8.816-8.878-20.315-.776-11.5 1.934-21.047 6.062-21.323 4.127-.277 8.103 8.816 8.878 20.315z" fill="#FFA6A4"/><path d="M236.341 123.906s-5.277.659-7.31 8.638c1.703 4.911 4.074 8.014 6.508 7.853 2.103-.142 3.833-2.692 4.92-6.668-1.337-.285-2.567-.659-3.547-1.105 0-.009.463-1.863-.571-8.718z" fill="#F97068"/><path d="M236.225 120.411c.579 8.612-.972 15.484-4.814 15.743-3.833.259-7.417-6.516-7.996-15.128-.58-8.611 2.059-15.805 5.892-16.063 3.833-.259 6.338 6.828 6.918 15.448z" fill="#F97068"/><path d="M230.457 133.177c-1.747.115-3.458-.919-4.965-2.782 1.525 3.637 3.682 5.911 5.928 5.759 3.299-.223 4.903-5.349 4.921-12.248-.82 5.437-2.764 9.057-5.884 9.271z" fill="#CB3034"/><path d="M416.517 165.509c-.794 2.933 1.729 5.536 2.54 6.026.811.49 6.347 2.772 9.77 2.853 3.423.08 8.469-7.168 6.677-7.979-1.792-.811-14.325-1.711-15.716-1.711-1.39 0-3.271.811-3.271.811z" fill="#FFC5C7"/><path d="M425.609 163.958c.856 8.789 3.905 15.627 5.01 15.751 1.097.125 12.008-3.539 15.039-4.885 3.031-1.346.695-21.973-1.15-21.617-1.854.366-6.142 4.324-9.592 6.231-3.441 1.908-9.307 4.52-9.307 4.52z" fill="#fff"/><path d="M442.877 167.613c-1.15 1.756-9.94 6.222-14.709 7.844.963 2.594 1.934 4.19 2.451 4.252.945.107 9.075-2.567 13.292-4.18-.098-3.263-1.034-7.916-1.034-7.916z" fill="#DCEDFF"/><path d="M416.534 165.099c-.339 3.485 2.764 3.985 6.597 3.093 3.824-.891 10.581-9.36 13.594-13.184s8.611-10.644 9.708-11.259c1.096-.606 3.539-.936 5.865-4.377 2.318-3.441.125-10.644-.793-11.499-.918-.856-9.503 1.996-10.581 3.44-1.079 1.445.018 9.2-.348 10.172-.365.98-8.076 8.959-11.339 10.911-3.263 1.961-12.453 10.18-12.703 12.703z" fill="#FFC5C7"/><path d="M446.789 133.631c1.026-.49 1.418-2.71.776-2.318-.651.393-1.729.384-3.2.366-1.462-.018-2.059-.143-2.059-.143s-.223.963-.268 1.748c0 0 3.726.838 4.751.347zm6.49.508a203.124 203.124 0 00-.918-1.952l-6.169 5.554c-1.479-1.364-3.316-2.612-3.316-2.612l-.57.9c.82 1.578 1.39 4.912 1.346 5.732 0 0 .811.981 1.301 1.061 0 0-6.882 9.77-11.196 14.575-4.288 4.778-7.292 8.905-9.244 10.233 3.904-2.166 9.529-9.208 12.212-12.613 3.013-3.825 8.612-10.644 9.708-11.259 1.096-.606 3.539-.936 5.866-4.377.918-1.373 1.123-3.325.98-5.242z" fill="#FE8A8B"/><path d="M441.235 134.692c.027.571 5.394 5.536 5.955 6.106.045.045.482.107.615 0 1.623-1.337 9.155-13.425 9.307-13.853.143-.41-3.976-4.564-5.242-5.678-.169-.152-.936-.062-1.069.125-1.516 2.014-9.601 12.569-9.566 13.3z" fill="#0C0835"/><path d="M441.851 134.692c.026.571 5.393 5.536 5.954 6.106.562.571 9.762-13.389 9.922-13.853.143-.41-4.484-4.492-5.75-5.607a.393.393 0 00-.57.054c-1.498 2.014-9.592 12.569-9.556 13.3z" fill="#252384"/><path d="M442.877 133.881c.027.535 5.046 5.179 5.572 5.714.525.535 9.128-12.525 9.279-12.962.134-.383-4.189-4.207-5.375-5.241a.366.366 0 00-.535.053c-1.408 1.872-8.977 11.741-8.941 12.436z" fill="#57AFF7"/><path d="M446.808 127.07c.927-.535 2.148-2.344 2.291-2.959.142-.606.124-1.159-.348-1.284s-2.077 1.792-2.853 2.362c-.775.571-1.747 1.748-1.444 2.541.303.793 1.953.49 2.14.365.187-.115.214-1.025.214-1.025z" fill="#FFC5C7"/><path d="M449.018 122.987c.232.696-1.8 3.477-3.467 4.279l.544.687.632-.143c.072-.312.09-.74.09-.74.927-.535 2.148-2.344 2.291-2.959.098-.464.115-.892-.09-1.124z" fill="#FE8A8B"/><path d="M444.543 129.878c1.587-.811 2.773-.722 3.628-1.061.856-.338 1.097-1.622.553-1.827-.553-.214-4.029.339-4.947.731-.919.401-1.471 2.229-1.471 2.229l2.237-.072z" fill="#FFC5C7"/><path d="M445.283 128.933c-.873.161-1.159 0-1.159 0 0 .339-.329.508-.722.99l1.15-.036c1.587-.811 2.773-.722 3.628-1.061.393-.151.642-.499.767-.855-.428.695-2.799.793-3.664.962z" fill="#FE8A8B"/><path d="M440.915 131.314c.731 1.123 4.76.641 5.58.517.812-.125 1.355-.633 1.311-1.141-.089-1.035-5.384-.847-5.83-.687-.446.161-1.061 1.311-1.061 1.311z" fill="#FFC5C7"/><path d="M447.762 130.939c-.589.544-1.917.856-3.361.963-1.248.098-1.952.053-2.122.035 1.489.241 3.646-.026 4.217-.106.677-.099 1.15-.473 1.266-.892z" fill="#FE8A8B"/><path d="M460.599 363.434c.24 2.139 1.096 2.933 4.216 3.36 3.111.428 7.693.366 10.073-1.952 2.38-2.318 3.851-5.01 4.03-6.169.187-1.158.124-2.442.49-3.048.365-.606 2.3-.99 2.068-4.395-.25-3.414-20.877 12.204-20.877 12.204z" fill="#FFDCDC"/><path d="M480.762 343.136c-.347-4.725-11.553-2.906-11.615-1.007-.062 1.889-2.683 9.832-5.268 12.239v.009c-3.379 1.533-4.645 5.375-3.29 9.066 1.159 3.129 9.833 2.371 11.91 1.221 2.184-1.212 4.35-4.377 5.001-6.097.472-1.017.677-2.514 1.711-3.798 1.034-1.284 1.587-1.034 2.077-2.567.499-1.534-.178-4.342-.526-9.066z" fill="#F97068"/><path d="M471.189 342.931c-1.079 4.876-3.405 8.049-2.719 8.62.678.57 4.876 1.248 5.67 0 .793-1.248 2.157-6.516 2.157-8.62-.009-2.095-5.108 0-5.108 0z" fill="#FFDCDC"/><path d="M446.398 346.933c.276-2.121.303-5.232-1.489-8.78-1.801-3.539-1.712-3.851-3.789-4.217-2.077-.365-9.645-1.408-9.645-1.408s-1.283 3.539-5.741 5.981c-4.457 2.443-5.375 3.299-8.245 3.299-2.871 0-9.209.338-6.713 7.933 0 0 2.015.874 7.06.838 5.046-.044 10.18-.445 12.008-1.141 1.827-.695 3.744-1.061 4.84-.606 1.097.446 4.68.285 6.713 0 2.041-.276 5.001-1.899 5.001-1.899z" fill="#F97068"/><path d="M422.454 339.971a.498.498 0 00-.25.749c.597.936 1.854 1.952 2.514 1.721.811-.286 4.591-3.138 6.597-4.885.936-.812 1.827-2.363 1.301-3.094-.526-.731-1.917-1.587-2.487-1.141-.571.446-1.667 2.594-3.985 4.511-1.578 1.31-2.959 1.899-3.69 2.139zm-11.678 9.788c5.01.49 16.536-.49 18.889-1.096 2.354-.606 3.637-1.649 5.893-.794 2.255.856 9.217-.49 10.323-.918 1.096-.428.793 1.293 0 1.471-.794.178-5.804 1.239-8.362 1.471-2.567.232-2.683-1.658-5.741-.259-3.049 1.409-8.058 1.409-10.26 1.409s-8.487.49-9.646 0c-1.158-.49-1.096-1.284-1.096-1.284z" fill="#FFDCDC"/><path d="M468.229 343.225c3.423.936 13.184.606 13.675-.731.49-1.346-1.347-22.473-1.347-29.186 0-6.712-2.317-23.319-1.952-25.156.366-1.827.366-3.173-.24-6.347-.607-3.173-.847-39.972-3.789-64.762l-38.1 3.583s-6.106 23.445-6.596 40.052c-.491 16.608.08 24.586 0 27.029-.081 2.442 1.043 4.885 1.292 6.837.259 1.952-.071 16.447-.401 21.653-.33 5.206-.562 14.815-1.097 15.956-.534 1.141 11.518 3.423 13.14 2.603 1.632-.811 1.632-.98 1.632-9.44 0-8.469 1.141-28.82 1.141-32.404 0-3.583 1.141-4.234.65-6.026-.49-1.791 1.302-9.93 3.094-15.956 1.791-6.026 3.904-12.534 3.904-12.534s5.046 32.564 6.677 34.516c1.631 1.953 1.301 6.998 2.282 9.931.981 2.933 3.904 22.794 3.904 28.82.018 6.026-1.453 10.581 2.131 11.562z" fill="#0E35AF"/><path d="M476.341 343.697c1.649-.08 3.156-.258 4.19-.508.41-1.738.838-3.922 1.293-6.463-.375-7.104-1.257-18.746-1.257-23.418 0-6.712-2.318-23.319-1.953-25.156.366-1.827.366-3.173-.24-6.347-.606-3.173-.856-39.972-3.789-64.762l-7.666.722-22.438 8.433c10.814.303 23.392-1.391 23.392-1.391s1.756 19.843 1.809 22.776c.063 2.933 2.175 30.291 2.175 32.814 0 2.523.981 3.245 1.141 5.972.161 2.728-1.952 3.709-1.952 3.709s2.933.98 2.933 1.462c0 .49.606 8.343.606 11.401 0 3.049 1.328 7.203 1.703 16.367.374 9.155 1.595 20.03 1.595 21.252 0 1.185 0 2.424-1.542 3.137z" fill="#001E7F"/><path d="M451.631 239.935l-8.183-2.077 6.347 3.048-5.126.125 3.931 1.4s1.221 10.207-1.328 17.035c-2.799 7.488-4.074 26.618-4.93 28.089-.855 1.462-3.048 1.096-3.048 1.096s2.317.241 2.442 1.953c.125 1.711-.49 6.472-.49 11.517 0 5.046-.49 13.051-.981 16.456-.49 3.405-.713 11.74-.98 13.951-.259 2.211-3.584 1.693-3.584 1.693 1.685.321 3.432.562 4.787.651 5.028.473 3.985-1.39 3.976-11.285.125-9.218 1.123-27.332 1.123-30.692 0-3.584 1.141-4.235.651-6.026-.49-1.792 1.301-9.931 3.093-15.957 1.792-6.026 3.905-12.534 3.905-12.534s-.892-8.326-1.008-10.278c-.107-1.943-.597-8.165-.597-8.165z" fill="#001E7F"/><path d="M458.458 147.11c-8.79 4.314-10.171 4.145-13.951 6.106-3.78 1.961-4.199 22.553-4.199 25.727 0 3.173-.044 15.796-.775 19.21-.731 3.423-3.539 16.117-4.52 18.07-.98 1.952-2.808 5.25-.49 7.202 2.318 1.953 7.435 3.299 18.8 2.568 11.366-.731 24.069-7.693 24.675-8.674.606-.981-4.029-18.925-4.029-22.348 0-3.423-.49-5.982-.731-7.569-.241-1.586 3.895-9.039 4.814-13.799.918-4.76 7.051-17.9 6.249-20.307-.803-2.407-9.619-5.09-15.538-8.147-5.91-3.058-10.305 1.961-10.305 1.961z" fill="#fff"/><path d="M456.452 150.542c0 .526-.009 1.043.125 1.542.089.499.258.989.535 1.399.517.856 1.471 1.302 2.451 1.302.99.018 1.997-.241 2.96-.588.971-.348 1.898-.821 2.843-1.275-.419.312-.864.597-1.301.891-.464.241-.918.517-1.409.731-.962.446-2.014.74-3.12.731l-.41-.018-.41-.089c-.276-.044-.526-.178-.784-.294-.482-.294-.918-.686-1.15-1.194-.535-.981-.544-2.122-.33-3.138zm21.546 66.777c.606-.981-4.029-18.925-4.029-22.348 0-3.423-.491-5.982-.731-7.569-.241-1.586 3.895-9.039 4.813-13.799.161-.829.482-1.908.892-3.147l-3.619-2.843c-2.701 6.249-4.894 17.24-7.212 19.932-2.318 2.683-7.693 3.789-7.693 3.789s5.144 1.221 7.452.731c0 0 1.73 9.645 1.409 14.405-.321 4.76-1.284 11.963-1.409 12.944-.044.365-.062 1.64-.053 3.084 5.634-2.166 9.832-4.626 10.18-5.179z" fill="#DCEDFF"/><path d="M468.433 136.475c-.285 5.099-.205 8.593.856 9.574 0 0-2.559 8.46-10.261 7.738-2.603-.241-2.032-4.645-.57-6.677l-.33-6.249 10.305-4.386z" fill="#FFC5C7"/><path d="M468.764 145.149c-.553-1.56-.562-4.609-.33-8.674l-10.296 4.386.205 4.011c1.711.785 10.421.277 10.421.277z" fill="#FE8A8B"/><path d="M492.913 177.686c1.551 2.362 3.423 8.219 2.362 10.911-1.061 2.683-10.831 14.655-15.226 19.13-4.395 4.475-5.375 5.206-6.186 6.677-.812 1.462-4.725 7.506-5.697 8.424-.98.918-2.629 1.034-2.629 1.034s-1.32 1.346-3.655 1.097c0 0-2.149 1.408-3.798 1.774 0 0-.606 1.034-1.159 1.132-.552.089-1.158-1.008 0-3.21 1.159-2.201 2.871-3.111 3.236-4.519.366-1.409 1.846-4.27 1.846-4.27s-3.067 2.924-4.841 3.111c-1.774.187-1.934-.856-.9-1.712a25.088 25.088 0 003.655-3.788c1.283-1.649 2.808-2.746 5.063-3.049 2.255-.303 3.851-.552 4.457-.98.606-.428 3.833-4.582 6.16-9.057 2.327-4.475 4.528-10.198 9.975-15.226l-1.952-3.905 9.289-3.574z" fill="#FFC5C7"/><path d="M458.183 226.456c.526-1.239 1.399-2.291 2.344-3.236l.374-.339c.107-.106.304-.24.348-.303.187-.222.366-.517.553-.784.365-.553.713-1.105 1.114-1.649-.214.633-.49 1.239-.784 1.836a6.073 6.073 0 01-.517.883c-.161.196-.259.24-.384.365l-.347.339c-.473.455-.927.927-1.382 1.399-.464.482-.891.972-1.319 1.489zm3.824-1.908c.383-.659.829-1.23 1.221-1.827.419-.588.793-1.186 1.177-1.836-.018.766-.357 1.488-.776 2.112-.428.615-.963 1.159-1.622 1.551zm1.773.259c1.132-.321 1.756-.936 1.756-.936s1.65-.125 2.63-1.034c.401-.374 1.293-1.605 2.255-3.031-.017.027-1.123 1.132-1.925 2.05-1.132 1.293-2.585.865-2.585.865l.285-1.194c-.009 0-1.194 2.701-2.416 3.28zm31.744-39.196c-.133 1.114-.205 1.997-2.068 4.92-2.103 3.29-14.289 17.16-16.91 19.719-2.621 2.567-2.567 2.728-4.306 6.775.731-1.141 1.355-2.149 1.623-2.63.811-1.462 1.791-2.202 6.186-6.677s14.165-16.447 15.226-19.13c.303-.767.356-1.818.249-2.977zm-8.53-3.201l.802 1.516s-1.257.33-2.211 1.257l-1.551-3.004 2.96.231z" fill="#FE8A8B"/><path d="M476.884 174.129c-1.997-4.591-2.389-12.043 0-15.966 2.389-3.922 6.472-5.33 7.417-4.867.945.473 3.138 6.588 5.411 9.414 2.273 2.826 8.478 10.75 8.629 11.419.161.669-5.34 6.053-15.217 10.002-1.176.472-6.24-10.002-6.24-10.002z" fill="#fff"/><path d="M483.749 177.686l1.301 3.138s-6.988-7.56-9.707-13.202c.205 2.353.749 4.662 1.551 6.507 0 0 5.063 10.474 6.24 10.002a58.104 58.104 0 004.671-2.122l-4.056-4.323z" fill="#DCEDFF"/><path d="M473.676 129.843c1.801-4.386 3.994-9.031 1.23-11.473 0 0 3.093-.981 4.725-.651 0 0-1.632-.98-4.885-1.301 0 0 .641-7.408-1.061-10.582 0 0 .009 3.254-.892 4.556 0 0-1.791-3.825-7.086-5.296-5.296-1.462-10.421-1.631-14.085 2.113-3.664 3.744-7.952 8.549-1.783 15.796 6.178 7.248 14.316 9.12 17.82 9.61 3.503.49 6.017-2.772 6.017-2.772z" fill="#252384"/><path d="M454.804 115.927c1.212.571 2.487.874 3.762 1.186a62.86 62.86 0 003.859.749 57.14 57.14 0 003.905.499c1.301.098 2.612.214 3.94 0-1.23.579-2.621.731-3.967.758-1.355.026-2.701-.098-4.029-.294a23.789 23.789 0 01-3.922-.981c-1.266-.446-2.532-1.025-3.548-1.917zm14.281 6.33c1.409-.348 3.753-2.612 3.753-2.612s-2.425 1.711-7.408 1.301c-4.983-.41-8.308-1.444-8.308-1.444s5.135 3.013 7.025 3.503c1.889.491 4.938-.748 4.938-.748zm-17.339-3.299c-2.318-1.141-2.986.018-2.986.99 0 .98 1.087 3.057 1.087 3.057l1.899-4.047zm24.4 3.593c-1.846 3.655-5.964 6.48-5.964 6.48s-1.605 2.167.196 3.049c.071.036.16.071.241.098 1.872-.811 3.057-2.344 3.057-2.344 1.025-2.496 2.175-5.073 2.47-7.283z" fill="#0C0835"/><path d="M470.181 129.031s1.89-1.408 3.174 0c1.284 1.409-1.159 7.934-4.029 6.347 0 0-4.761 6.044-8.059 7.756-3.298 1.711-5.491.856-6.597-.366-1.096-1.221-4.787-6.231-5.125-11.544-.125-1.889.428-5.616.428-6.409 0-.793-.491-3.905.187-4.823.668-.918 1.587-1.034 1.587-1.034s4.091 2.015 7.63 2.318c0 0-1.711-1.097-2.255-1.774 0 0 7.024 2.443 11.963 2.746 0 0-.062 2.808.187 4.029.241 1.23.909 2.754.909 2.754z" fill="#FFC5C7"/><path d="M472.739 130.823c-.169-1.194-1.176-1.435-1.996-.597-.838.856-1.168 3.566-.999 3.958.17.401 1.507.374 1.828-.455.312-.829-.428-1.346-1.195-1.096 0 0-.125-1.204.553-1.979.668-.776 1.292-.482 1.435-.277.134.188.374.446.374.446z" fill="#FE8A8B"/><path d="M464.859 125.528a10.043 10.043 0 00-.865-.758 5.644 5.644 0 00-.989-.615c-.348-.169-.722-.356-1.123-.383-.392-.036-.803 0-1.177.152v.053c.187.08.374.125.553.178l.526.152c.338.107.704.134 1.052.249.347.116.677.268 1.007.437.33.17.651.366.972.571l.044-.036zm-13.406-1.373a4.172 4.172 0 011.06-.374c.366-.08.731-.125 1.106-.134.374-.009.731.071 1.096.063.366 0 .74.008 1.141-.027l.018-.054c-.33-.249-.713-.383-1.105-.463-.393-.08-.803-.018-1.195.044a5.082 5.082 0 00-1.141.303 3.79 3.79 0 00-1.007.589l.027.053zm9.627 3.521c.053-.517.338-.909.641-.882.303.027.508.472.464.989-.054.517-.339.909-.642.882-.312-.036-.517-.472-.463-.989zm-8.113-.66c.054-.516.294-.917.544-.891.249.027.41.464.356.98-.053.517-.294.918-.543.891-.241-.017-.401-.463-.357-.98z" fill="#0C0835"/><path d="M458.156 132.695c-.739.49-1.782.482-2.513-.027.062.402.205.785.588.928.374.142.811.098 1.177-.063.365-.169.508-.526.748-.838z" fill="#FE8A8B"/><path d="M460.768 135.726c-1.703.027-5.777-.285-7.096-.472.401 1.729 1.658 3.432 3.583 3.432 1.739-.009 2.987-1.436 3.513-2.96z" fill="#C31F2A"/><path d="M459.028 138.115c-.659-.205-1.355-.098-1.64-.018 0 0-.856-.633-2.193-.214.562.482 1.248.794 2.06.794.668 0 1.265-.214 1.773-.562z" fill="#FB8384"/><path d="M454.723 136.689c1.685.535 3.574.383 5.241-.205.027-.259.072-.508.107-.767-1.685-.036-4.394-.241-5.839-.401.09.481.25.945.491 1.373z" fill="#fff"/><path opacity=".25" d="M503.082 115c.366-.989.794-1.89 1.275-2.719.482-.829 1.159-1.533 2.05-2.112.883-.58 2.06-.963 3.539-1.15a49.04 49.04 0 011.935-.214 20.78 20.78 0 002.603-.428 8.905 8.905 0 002.433-.927c.723-.41 1.213-.972 1.48-1.685a2.395 2.395 0 00.063-1.515 3.127 3.127 0 00-.803-1.32 4.085 4.085 0 00-1.417-.873c-.82-.303-1.578-.357-2.264-.161a5.653 5.653 0 00-1.792.865c-.517.374-.972.686-1.373.927l-4.609-6.766c1.106-1.194 2.381-2.086 3.816-2.674 1.426-.589 2.959-.883 4.591-.883 1.631 0 3.271.303 4.92.918a15.616 15.616 0 013.744 2.033 12.055 12.055 0 012.978 3.147c.793 1.23 1.283 2.629 1.462 4.216.178 1.587-.089 3.325-.794 5.242-.303.82-.659 1.578-1.078 2.282a8.688 8.688 0 01-1.489 1.863 9.114 9.114 0 01-1.997 1.417c-.758.401-1.613.713-2.558.945a21.188 21.188 0 01-3.717.597c-1.231.09-2.3.25-3.201.473-.909.232-1.497.722-1.783 1.471L503.082 115zm-3.325 9.432l.17-.464a4.275 4.275 0 015.491-2.523 4.276 4.276 0 012.523 5.492l-.17.463a4.275 4.275 0 01-5.491 2.523 4.265 4.265 0 01-2.523-5.491zm-10.768-8.612a12.417 12.417 0 01-.142-2.184 4.57 4.57 0 01.561-2.068c.357-.686.972-1.346 1.855-1.988.267-.196.65-.472 1.158-.82a13.69 13.69 0 001.507-1.194 6.39 6.39 0 001.221-1.453c.312-.517.437-1.052.348-1.596a1.7 1.7 0 00-.499-.989 2.15 2.15 0 00-.981-.553 3.057 3.057 0 00-1.212-.063c-.633.099-1.132.33-1.498.696a4.18 4.18 0 00-.838 1.185c-.196.419-.374.785-.544 1.079l-5.33-2.692a7.802 7.802 0 011.488-3.049c.705-.882 1.578-1.604 2.612-2.184 1.034-.58 2.193-.963 3.468-1.159a11.339 11.339 0 013.111-.026 8.693 8.693 0 013.013.953c.945.5 1.747 1.222 2.425 2.175.677.945 1.123 2.158 1.346 3.629.098.633.134 1.248.116 1.836a6.47 6.47 0 01-.286 1.72 6.305 6.305 0 01-.775 1.605 7.788 7.788 0 01-1.302 1.507 15.24 15.24 0 01-2.157 1.693c-.749.491-1.382.972-1.881 1.435-.499.464-.704.99-.615 1.569l-6.169.936zm1.222 7.194l-.054-.356a3.114 3.114 0 012.612-3.548 3.112 3.112 0 013.548 2.612l.054.356a3.114 3.114 0 01-2.612 3.548 3.101 3.101 0 01-3.548-2.612z" fill="#00264F"/><path d="M498.625 110.543c.366-.989.794-1.89 1.275-2.719.482-.829 1.159-1.533 2.05-2.112.883-.58 2.06-.963 3.539-1.15a49.04 49.04 0 011.935-.214 20.965 20.965 0 002.603-.428 8.905 8.905 0 002.433-.927c.723-.41 1.213-.972 1.48-1.685a2.397 2.397 0 00.063-1.516 3.125 3.125 0 00-.803-1.319 4.08 4.08 0 00-1.417-.873c-.82-.304-1.578-.357-2.264-.161a5.668 5.668 0 00-1.792.865c-.517.374-.972.686-1.373.927l-4.609-6.766c1.106-1.195 2.381-2.086 3.816-2.675 1.426-.588 2.959-.882 4.591-.882 1.631 0 3.271.303 4.92.918a15.616 15.616 0 013.744 2.033 12.055 12.055 0 012.978 3.146c.793 1.23 1.283 2.63 1.462 4.217.178 1.587-.089 3.325-.794 5.242-.303.82-.659 1.577-1.078 2.282a8.688 8.688 0 01-1.489 1.863 9.148 9.148 0 01-1.997 1.417c-.758.401-1.613.713-2.558.945a21.188 21.188 0 01-3.717.597c-1.231.089-2.3.25-3.201.473-.909.231-1.497.722-1.783 1.471l-8.014-2.969zm-3.325 9.431l.17-.463a4.275 4.275 0 015.491-2.523 4.276 4.276 0 012.523 5.491l-.17.464a4.275 4.275 0 01-5.491 2.523 4.266 4.266 0 01-2.523-5.492zm-10.768-8.611a12.423 12.423 0 01-.142-2.184 4.57 4.57 0 01.561-2.068c.357-.686.972-1.346 1.855-1.988.267-.196.65-.472 1.158-.82a13.81 13.81 0 001.507-1.194 6.39 6.39 0 001.221-1.453c.312-.518.437-1.052.348-1.596a1.701 1.701 0 00-.499-.99 2.154 2.154 0 00-.981-.552 3.048 3.048 0 00-1.212-.063c-.633.098-1.132.33-1.498.696a4.19 4.19 0 00-.838 1.185c-.196.419-.374.785-.544 1.079l-5.33-2.692a7.799 7.799 0 011.488-3.049c.705-.883 1.578-1.605 2.612-2.184 1.034-.58 2.193-.963 3.468-1.159a11.343 11.343 0 013.111-.027 8.693 8.693 0 013.013.954c.945.5 1.747 1.222 2.425 2.175.677.945 1.123 2.158 1.346 3.628.098.633.134 1.248.116 1.837a6.47 6.47 0 01-.286 1.72 6.305 6.305 0 01-.775 1.605 7.754 7.754 0 01-1.302 1.506 15.176 15.176 0 01-2.157 1.694c-.749.49-1.382.972-1.881 1.435-.499.464-.704.99-.615 1.569l-6.169.936zm1.222 7.194l-.054-.356a3.113 3.113 0 012.612-3.548 3.113 3.113 0 013.548 2.612l.054.356a3.114 3.114 0 01-2.612 3.548 3.102 3.102 0 01-3.548-2.612z" fill="#060C97"/><path d="M513.282 314.619c4.333.009 7.987-4.448 7.889-9.743-.062-3.45-.57-6.856-1.515-10.056-2.166-7.336-6.632-14.423-5.019-22.17.66-3.191 2.345-6.142 2.389-9.404.045-3.361-1.649-6.249-3.334-8.808a150.757 150.757 0 00-8.95-12.221c-.766 7.283-4.27 13.772-6.703 20.574-2.434 6.802-3.691 15.163-.232 20.931 2.469 4.118 7.149 6.596 7.693 11.74.223 2.095-.33 4.225-.455 6.356-.338 6.062 3.388 11.847 8.237 12.801z" fill="#C0CEFF"/><path d="M516.784 324.398l-1.872-8.709a286.581 286.581 0 00-1.497-8.754c-1.079-5.821-2.327-11.607-3.896-17.303-.401-1.417-.802-2.844-1.266-4.234-.223-.705-.463-1.391-.704-2.086-.258-.678-.517-1.364-.731-2.14-.392-1.506-.57-3.022-.633-4.519-.08-1.507-.062-2.995-.035-4.493.08-2.977.267-5.946.383-8.897.285-2.941.57-5.892.178-8.843.856 2.871.883 5.92.99 8.888-.116 2.977-.303 5.928-.384 8.879-.026 1.471-.044 2.941.036 4.403.053 1.462.232 2.906.588 4.27.188.651.446 1.355.713 2.06.241.704.491 1.408.714 2.121.463 1.418.873 2.853 1.274 4.288 1.578 5.741 2.835 11.562 3.914 17.401.552 2.915 1.034 5.848 1.515 8.78.277 2.96.553 5.919.713 8.888z" fill="#060C97"/><path d="M502.156 263.682c.856.598 1.622 1.204 2.416 1.801.392.303.749.66 1.141.981.383.33.82.597 1.275.802l-.143.018c.481-.446.918-.954 1.391-1.418.481-.454.962-.9 1.462-1.328a18.94 18.94 0 013.271-2.237l.054.062a18.922 18.922 0 01-2.791 2.817c-.517.41-1.043.802-1.569 1.195-.534.383-1.114.713-1.64 1.114l-.071.053-.071-.035c-.446-.259-.892-.5-1.364-.713-.464-.223-.936-.446-1.355-.749-.82-.615-1.569-1.373-2.059-2.3l.053-.063zm-3.031 12.168c.723.232 1.409.526 2.086.838.678.312 1.346.633 1.962 1.052.624.41 1.256.82 1.952 1.106.677.303 1.408.499 2.113.748l-.348.081c.713-.927 1.444-1.846 2.246-2.692.82-.838 1.641-1.667 2.585-2.389l.063.053c-.597 1.025-1.319 1.952-2.05 2.87-.74.91-1.56 1.739-2.389 2.568l-.17.169-.178-.089c-.669-.348-1.302-.767-1.97-1.088-.66-.347-1.382-.579-2.086-.829-.713-.24-1.373-.606-2.024-.98a11.881 11.881 0 01-1.827-1.328l.035-.09zm8.452 16.323c.633.053 1.176.249 1.702.463.259.125.491.312.758.446.25.142.562.205.82.187l-.116.054c.179-.312.312-.66.508-.963.196-.294.384-.606.607-.883a6.176 6.176 0 011.622-1.444l.062.045a6.157 6.157 0 01-1.025 1.916c-.223.277-.481.535-.722.794-.249.258-.553.472-.82.722l-.071.062-.045-.009c-.33-.053-.597-.125-.909-.142-.303-.027-.624-.027-.918-.125-.571-.214-1.088-.535-1.489-1.034l.036-.089zm1.372 13.799a9.947 9.947 0 011.266-.009c.41.027.82.036 1.221.143.401.098.811.24 1.23.249.419.027.838-.053 1.239-.142l-.142.053c.258-.285.543-.544.838-.784a9.66 9.66 0 01.891-.713c.633-.428 1.301-.812 2.05-1.079l.045.062c-.464.651-1.016 1.186-1.605 1.667-.294.25-.615.455-.936.66a8.501 8.501 0 01-.989.588l-.116.054h-.027c-.437-.054-.847-.134-1.275-.125-.419-.009-.847.089-1.274.125-.428.044-.856-.045-1.266-.152a3.851 3.851 0 01-1.195-.526l.045-.071z" fill="#060C97"/><path d="M517.294 317.445c2.995 3.084 7.711-.678 10.813-4.243 3.914-4.484 8.112-9.664 8.567-16.002.169-2.38-.223-4.751.134-7.113.811-5.438 5.17-9.218 7.238-14.245 2.995-7.292.669-15.618-2.211-22.349-1.889-4.421-4.082-9.021-3.726-14.218.321-4.751 2.719-9.057 5.028-13.077-5.393.321-11.464 1.034-15.253 6.177-3.592 4.876-3.779 11.972-3.432 18.239.348 6.267.901 13.006-1.738 18.693-3.583 7.738-12.489 12.302-12.738 20.904-.125 4.342 2.184 7.854 3.753 11.545 1.025 2.406 1.658 5.482 1.239 8.174-.446 2.835.258 5.643 2.032 7.256l.294.259z" fill="#91B3FA"/><path d="M516.786 330.067c.33-2.077.713-4.136 1.07-6.195.321-2.068.668-4.127.918-6.195.811-4.083 1.426-8.193 1.622-12.32.116-2.068.072-4.119.081-6.249 0-2.122.249-4.323.784-6.409.535-2.086 1.275-4.074 2.095-6.053.865-1.953 1.836-3.86 2.96-5.661 2.175-3.628 4.947-6.882 5.812-10.751.445-1.916.437-3.931.169-5.928-.321-1.979-.838-4.029-1.275-6.088-.873-4.11-1.676-8.273-1.783-12.569.099-2.149.41-4.306 1.07-6.347a16.777 16.777 0 013.022-5.563 17.961 17.961 0 00-2.184 5.786c-.383 2.014-.419 4.065-.249 6.097.107 4.083.873 8.183 1.747 12.248.428 2.033.945 4.047 1.292 6.205.286 2.139.303 4.377-.196 6.543-.49 2.166-1.506 4.154-2.621 5.963-1.123 1.81-2.317 3.522-3.387 5.278-1.097 1.747-2.015 3.583-2.853 5.455-.784 1.89-1.506 3.833-2.014 5.804-.508 1.97-.731 3.958-.74 6.017-.009 2.059.027 4.189-.08 6.302-.197 4.243-.847 8.424-1.641 12.552a158.365 158.365 0 01-3.619 12.078z" fill="#060C97"/><path d="M534.847 244.294c-.134.686-.401 1.283-.704 1.854-.303.57-.642 1.114-1.141 1.551-.499.437-.963.9-1.275 1.462-.33.553-.526 1.194-.811 1.774l-.259.535-.561-.473c-.375-.312-.731-.65-1.088-.98a9.463 9.463 0 01-.989-1.07c-.597-.776-1.15-1.587-1.542-2.541l.089-.089c.927.473 1.685 1.088 2.407 1.748.356.329.695.686.989 1.069.303.384.606.758.892 1.159l-.821.062c.437-.481.954-.9 1.346-1.417.411-.499.66-1.105.883-1.729.223-.624.588-1.15 1.007-1.64.419-.491.874-.963 1.453-1.338l.125.063zm5.071 18.051c-.089.963-.41 1.89-.864 2.737-.464.838-1.016 1.631-1.756 2.246s-1.498 1.168-2.149 1.837c-.677.642-1.266 1.381-1.997 2.023l-.383.339-.348-.517-1.212-1.792a45.062 45.062 0 01-1.177-1.8l-1.141-1.819c-.392-.597-.766-1.212-1.239-1.783l.072-.107c.713.294 1.328.776 1.872 1.293a12.61 12.61 0 011.497 1.676c.455.588.856 1.221 1.204 1.872.356.65.695 1.301.989 1.996l-.731-.178c.776-.428 1.614-.891 2.3-1.489.713-.588 1.248-1.354 1.73-2.139.481-.784 1.025-1.48 1.568-2.202.544-.722 1.035-1.462 1.614-2.228l.151.035zm-4.92 21.742c-.651.892-1.515 1.605-2.425 2.202-.927.58-1.907 1.07-2.968 1.337-1.052.277-2.131.437-3.138.776-1.025.303-2.015.722-3.067 1.052l-.213.071-.232-.232c-.66-.659-1.195-1.381-1.738-2.121-.526-.749-1.026-1.516-1.391-2.363a12.346 12.346 0 01-.892-2.62c-.178-.91-.24-1.864-.071-2.764h.125c.214.883.517 1.694.856 2.487.329.794.757 1.551 1.159 2.318l1.283 2.264c.437.749.927 1.489 1.391 2.22l-.446-.161c1.034-.089 2.113-.205 3.129-.499 1.025-.267 1.979-.784 2.897-1.283.918-.517 1.881-.91 2.826-1.347.945-.445 1.863-.909 2.835-1.399l.08.062zm-7.256 19.398c-.357.499-.847.882-1.373 1.168-.535.276-1.105.499-1.703.561-.597.063-1.203-.053-1.783-.089-.588-.044-1.141 0-1.747.045l-.071.009-.134-.125c-.454-.428-.936-.847-1.328-1.319-.401-.473-.82-.928-1.177-1.436a14.387 14.387 0 01-.962-1.595 10.22 10.22 0 01-.74-1.757l.098-.071c.535.366 1.016.785 1.453 1.221.437.446.864.901 1.23 1.391.374.49.686 1.025 1.016 1.551.339.517.589 1.097.865 1.658l-.205-.116a3.706 3.706 0 001.658.081c.553-.098 1.079-.366 1.596-.526.517-.152 1.043-.259 1.568-.393.535-.107 1.052-.276 1.659-.374l.08.116z" fill="#060C97"/><path d="M533.955 345.926h-26.797a3.173 3.173 0 01-3.138-2.692l-4.288-28.152a3.174 3.174 0 013.138-3.654h35.381a3.173 3.173 0 013.138 3.654l-4.288 28.152a3.189 3.189 0 01-3.146 2.692z" fill="#B4DFF9"/><path d="M538.251 311.428h-5.473a3.174 3.174 0 013.138 3.654l-4.288 28.152a3.167 3.167 0 01-3.138 2.692h5.474a3.172 3.172 0 003.137-2.692l4.288-28.152c.286-1.925-1.203-3.654-3.138-3.654z" fill="#A2D4F9"/><path d="M135.19 266.098a5.452 5.452 0 01-.66 3.316 23.788 23.788 0 00-2.924 12.151c.089 2.781.66 5.616-.098 8.29-1.301 4.618-6.178 7.461-7.738 11.999-1.39 4.02-.098 9.065-2.986 12.185-.713.776-1.827 1.364-2.808.972-.49-.196-.856-.606-1.212-1.007-3.308-3.762-6.855-8.326-5.83-13.229.962-4.609 5.705-7.72 6.605-12.337.731-3.771-1.194-8.13.972-11.304.597-.873 1.453-1.551 2.104-2.389 2.567-3.298 1.622-8.567 4.582-11.517.962-.963 2.175-1.507 3.494-1.792 3.102-.66 6.106 1.507 6.499 4.662z" fill="#C0D5FF"/><path d="M116.364 324.621c-.196-2.461-.286-4.912-.375-7.381.116-2.461.241-4.912.455-7.372.214-2.452.49-4.912.918-7.355.446-2.424 1.025-4.903 2.041-7.185 1.783-4.51 3.227-9.217 4.68-13.888l2.113-7.043a371.552 371.552 0 002.532-6.926c-.357 2.443-.918 4.841-1.409 7.256l-2.112 7.06c-1.462 4.689-2.889 9.378-4.716 13.996-.99 2.211-1.533 4.546-1.97 6.935-.428 2.389-.695 4.814-.909 7.248a154.02 154.02 0 00-.437 7.318l-.811 7.337z" fill="#060C97"/><path d="M129.333 274.816c-.401.616-.927 1.07-1.488 1.48-.286.196-.624.321-.936.482a3.529 3.529 0 00-.856.588l-.116.098-.098-.152c-.232-.356-.517-.695-.74-1.051-.214-.366-.446-.731-.633-1.106a8.767 8.767 0 01-.793-2.451l.071-.036a8.655 8.655 0 011.471 2.113c.187.383.339.784.499 1.176.152.402.25.829.392 1.231l-.213-.054c.303-.178.579-.383.82-.642.24-.249.463-.535.731-.757.552-.419 1.15-.776 1.854-.99l.035.071zm-.596 8.407c-.419.347-.856.722-1.31 1.034-.455.321-.919.633-1.418.882-.508.241-1.043.437-1.524.713-.49.268-.936.607-1.373.963l-.151.125-.152-.205c-.678-.883-1.248-1.819-1.792-2.772-.508-.972-.971-1.979-1.292-3.058l.071-.036c.758.838 1.382 1.747 1.952 2.683.535.963 1.043 1.935 1.453 2.969l-.312-.08c.508-.241 1.016-.491 1.471-.803.464-.312.874-.704 1.319-1.051.455-.33.945-.607 1.445-.856.508-.241 1.016-.482 1.604-.598l.009.09zm-2.978 11.089c-.464.464-.981.811-1.515 1.123-.526.321-1.106.535-1.721.687a4.461 4.461 0 00-1.658.793c-.49.374-.972.784-1.471 1.114l-.374.241-.277-.419a12.313 12.313 0 01-1.069-1.925c-.286-.678-.544-1.373-.687-2.131l.089-.045c.562.526 1.017 1.115 1.427 1.721.419.606.757 1.257 1.052 1.934l-.651-.169c.561-.312 1.159-.49 1.756-.695a5.283 5.283 0 001.622-.901 5.327 5.327 0 011.596-.954c.58-.222 1.177-.41 1.828-.463l.053.089z" fill="#060C97"/><path d="M112.459 325.102c-1.917-.312-9.12-2.621-8.621-4.502 2.158-8.067 4.315-17.222-3.155-21.171-3.593-1.899-8.112-2.862-10.163-6.383-2.112-3.619-.552-8.219 1.338-11.954 1.89-3.735 4.171-7.738 3.36-11.847-.847-4.306-4.92-7.479-5.571-11.82-.892-5.92 4.867-10.698 10.385-13.006 1.881-.785 3.949-1.462 5.928-.981 1.417.339 2.639 1.248 3.61 2.336 3.878 4.341 3.727 10.884 2.835 16.643-.891 5.758-2.237 11.829-.071 17.24 1.542 3.842 4.831 7.452 3.949 11.49-.357 1.614-1.364 3.031-1.747 4.645-1.034 4.341 2.567 8.254 4.225 12.409 2.131 5.348.669 11.891-3.378 15.956a3.376 3.376 0 01-2.924.945z" fill="#80A9FF"/><path d="M113.135 325.191c-.445-3.191-.891-6.373-1.462-9.538-.133-.793-.303-1.578-.428-2.362-.115-.794-.187-1.587-.32-2.38a142.44 142.44 0 00-.803-4.725c-.606-3.129-1.337-6.249-2.407-9.209-.534-1.47-1.176-2.923-2.014-4.163-.419-.624-.909-1.167-1.453-1.542-.722-.472-1.409-1.078-1.944-1.809-1.105-1.471-1.444-3.334-1.399-5.01.036-1.703.356-3.325.722-4.912.74-3.173 1.676-6.231 2.193-9.351.526-3.102.624-6.276-.187-9.253-.25-.722-.446-1.462-.687-2.202-.24-.74-.561-1.453-.918-2.148-.713-1.4-1.649-2.71-2.692-3.949 1.275.998 2.451 2.148 3.432 3.476.49.66.954 1.364 1.346 2.104.41.731.749 1.515.927 2.336.892 3.253.767 6.667.223 9.885-.535 3.236-1.489 6.339-2.211 9.432-.347 1.542-.651 3.093-.686 4.609-.036 1.506.258 2.986 1.114 4.118.419.57.954 1.043 1.578 1.453.784.535 1.373 1.221 1.854 1.934.963 1.427 1.623 2.951 2.184 4.493 1.114 3.094 1.854 6.258 2.469 9.432.303 1.586.58 3.182.821 4.787.106.802.258 1.595.356 2.398.08.802.116 1.613.169 2.415.161 3.236.286 6.454.223 9.681z" fill="#060C97"/><path d="M100.379 262.212c.553.196 1.016.517 1.444.855.428.348.829.722 1.132 1.186.303.463.571.954.963 1.337.374.392.829.722 1.257 1.07l-.571.035c.196-.41.428-.802.642-1.194.223-.392.446-.785.713-1.15.25-.374.535-.722.803-1.088.276-.356.579-.695.829-1.069l.098.018c.018.499-.134.971-.286 1.408a8.997 8.997 0 01-.588 1.266c-.214.41-.481.784-.758 1.15-.276.365-.543.731-.873 1.07l-.357.374-.214-.339c-.294-.463-.57-.945-.936-1.346-.347-.419-.82-.713-1.266-1.034-.454-.321-.802-.722-1.15-1.132a9.38 9.38 0 01-.953-1.346l.071-.071zm6.98 12.212a8.203 8.203 0 01-.856 1.525c-.339.463-.695.918-1.097 1.319-.419.392-.891.731-1.337 1.096-.437.375-.82.794-1.168 1.248l-.107.143-.16-.125a12.457 12.457 0 01-1.498-1.382c-.436-.499-.9-.962-1.301-1.479a22.516 22.516 0 01-1.15-1.596c-.365-.544-.695-1.114-1.07-1.649l.054-.08c.633.303 1.132.766 1.622 1.212.481.455.936.945 1.355 1.453.419.508.776 1.061 1.168 1.587.383.517.704 1.15 1.07 1.604l-.268.018a7.014 7.014 0 001.186-1.23c.33-.464.633-.963.98-1.408.357-.437.767-.83 1.177-1.231.419-.392.856-.757 1.337-1.096l.063.071zm-12.837 9.432c.606.713 1.23 1.363 1.881 1.996.642.624 1.337 1.177 2.015 1.783.686.58 1.462 1.106 2.344 1.364.874.276 1.801.312 2.701.303l-.401.285c.161-.757.393-1.461.642-2.184a11.78 11.78 0 01.927-2.077c.375-.668.811-1.301 1.328-1.881.526-.561 1.141-1.087 1.872-1.346l.054.081c-.553.499-.981 1.078-1.346 1.693a21.408 21.408 0 00-1.007 1.908l-.901 1.979c-.294.669-.552 1.355-.811 2.032l-.125.321-.276-.044c-.954-.152-1.854-.473-2.737-.785-.873-.338-1.774-.641-2.63-1.078-.864-.428-1.595-1.079-2.21-1.819-.615-.731-1.115-1.569-1.382-2.487l.062-.044zm17.366 7.22c.294.704.392 1.48.374 2.238-.036.757-.152 1.533-.419 2.246-.276.713-.695 1.364-1.15 1.961l-1.346 1.783-.098.125-.152-.107c-.731-.517-1.551-.909-2.344-1.319a31.527 31.527 0 00-2.416-1.133c-.811-.347-1.631-.704-2.469-1.025-.829-.338-1.685-.615-2.55-.936l.018-.098c1.854-.044 3.726.357 5.42 1.106.856.374 1.658.846 2.434 1.355.775.517 1.462 1.141 2.139 1.782l-.249.018c.499-.526.953-1.105 1.239-1.774.321-.65.481-1.355.704-2.023.428-1.337.704-2.71.767-4.19l.098-.009z" fill="#060C97"/><path d="M125.509 345.926h-20.556c-1.908 0-3.53-1.649-3.815-3.878l-3.254-25.281c-.357-2.763 1.453-5.259 3.815-5.259h27.064c2.362 0 4.172 2.487 3.815 5.259l-3.253 25.281c-.286 2.229-1.908 3.878-3.816 3.878z" fill="#B4DFF9"/><path d="M128.763 311.508h-4.475c2.362 0 4.172 2.487 3.815 5.259l-3.253 25.281c-.286 2.229-1.908 3.878-3.816 3.878h4.475c1.908 0 3.53-1.649 3.816-3.878l3.253-25.281c.357-2.772-1.453-5.259-3.815-5.259zm-59.861-98.673H6.813a6.11 6.11 0 01-6.106-6.106v-32.288a6.11 6.11 0 016.106-6.106h62.089a6.11 6.11 0 016.106 6.106v32.288a6.11 6.11 0 01-6.106 6.106z" fill="#A2D4F9"/><path d="M70.996 212.835H4.718a4.012 4.012 0 01-4.011-4.011l37.146-24.657 37.146 24.657a3.999 3.999 0 01-4.002 4.011z" fill="#B4DFF9"/><path d="M70.996 168.335H4.718a4.011 4.011 0 00-4.011 4.011l37.146 24.657 37.146-24.657a3.992 3.992 0 00-4.002-4.011z" fill="#FAFDFF"/><path d="M512.792 6.94H364.52a8.362 8.362 0 00-8.362 8.362V49.98a8.362 8.362 0 008.362 8.362h14.896l-5.073 12.524 16.875-12.524h121.583a8.363 8.363 0 008.362-8.362V15.302c-.009-4.617-3.753-8.361-8.371-8.361z" fill="#A2D4F9"/><path d="M503.004 25.821H389.997a1.951 1.951 0 110-3.904h112.998a1.95 1.95 0 011.952 1.952 1.944 1.944 0 01-1.943 1.952zm1.952 6.82a1.951 1.951 0 00-1.952-1.952H374.308a1.952 1.952 0 100 3.904h128.696a1.951 1.951 0 001.952-1.952zm-56.508 8.78a1.951 1.951 0 00-1.952-1.952h-72.188a1.952 1.952 0 100 3.905h72.197a1.95 1.95 0 001.943-1.953z" fill="#fff"/><path d="M543.278 161.48c-5.759 5.758-6.632 14.539-2.648 21.242l-29.319 29.32a1.545 1.545 0 000 2.175l3.914 3.913a1.545 1.545 0 002.175 0l2.086-2.086 5.42 5.42a1.545 1.545 0 002.175 0l3.2-3.2a1.545 1.545 0 000-2.175l-5.42-5.42 2.808-2.808 4.627 4.626a1.543 1.543 0 002.175 0l3.2-3.2a1.545 1.545 0 000-2.175l-4.627-4.626 13.675-13.675c6.695 3.985 15.475 3.111 21.243-2.648 6.81-6.81 6.81-17.864 0-24.674-6.829-6.829-17.873-6.829-24.684-.009zm19.21 19.21c-3.797 3.797-9.957 3.797-13.754 0-3.798-3.798-3.798-9.957 0-13.755 3.797-3.797 9.957-3.797 13.754 0 3.798 3.798 3.798 9.957 0 13.755z" fill="#A2D4F9"/><path d="M52.562 266.892a25.02 25.02 0 01-1.052-4.039c-.214-1.31-.116-2.665.312-4.073.428-1.4 1.346-2.862 2.764-4.377a80.952 80.952 0 011.872-1.944c.82-.82 1.622-1.738 2.398-2.763.775-1.016 1.372-2.068 1.774-3.147.41-1.079.436-2.113.089-3.111a3.209 3.209 0 00-1.284-1.667 4.227 4.227 0 00-2.023-.695 5.653 5.653 0 00-2.282.321c-1.15.401-2.006 1.016-2.559 1.836-.553.811-.936 1.658-1.14 2.514a26.269 26.269 0 01-.643 2.211l-10.92-3.138c.125-2.256.695-4.342 1.703-6.24 1.007-1.89 2.38-3.566 4.11-5.01 1.738-1.444 3.761-2.576 6.07-3.388a21.465 21.465 0 015.803-1.15 16.69 16.69 0 015.973.714c1.943.606 3.708 1.667 5.295 3.2 1.596 1.533 2.861 3.628 3.797 6.302a19.52 19.52 0 01.874 3.397c.178 1.114.196 2.219.071 3.316a12.435 12.435 0 01-.873 3.28c-.455 1.097-1.088 2.193-1.89 3.281a30.057 30.057 0 01-3.441 3.94c-1.23 1.185-2.237 2.3-3.004 3.343-.767 1.052-.963 2.095-.597 3.146l-11.197 3.941zm4.823 13.023l-.223-.65c-1.088-3.094.535-6.481 3.628-7.56a5.922 5.922 0 017.56 3.628l.222.651c1.088 3.093-.535 6.481-3.628 7.56a5.927 5.927 0 01-7.56-3.629z" fill="#fff"/></svg>