<svg width="250" height="250" fill="none" xmlns="http://www.w3.org/2000/svg"><circle cx="125" cy="125" r="125" fill="#F1F1F1"/><path d="M109.541 62.63l-5.842 4.191-5.872-4.146a7.21 7.21 0 015.872-3.042c2.406 0 4.54 1.18 5.842 2.996zm-5.843-13.213c-5.873 0-11.063 2.922-14.212 7.386l3.709 2.603a12.846 12.846 0 0110.503-5.449c4.298 0 8.112 2.119 10.442 5.372l3.693-2.649c-3.163-4.402-8.323-7.263-14.135-7.263zm0-19.417c-12.425 0-23.413 6.175-30.071 15.618l3.708 2.602c5.842-8.263 15.483-13.68 26.364-13.68 10.791 0 20.371 5.326 26.228 13.483l3.677-2.649C126.929 36.068 116.018 30 103.698 30z" fill="#060C97"/><path d="M103.698 40.625c-8.838 0-16.678 4.373-21.446 11.079l3.707 2.603c3.95-5.524 10.428-9.141 17.737-9.141 7.25 0 13.682 3.557 17.647 9.005l3.677-2.633c-4.781-6.616-12.559-10.913-21.322-10.913z" fill="#060C97"/><g filter="url(#filter0_d)"><path d="M112.485 204.288H57.397v-19.456h55.264a7.78 7.78 0 017.78 7.78v3.722a7.956 7.956 0 01-7.956 7.954z" fill="#FCECDB"/><path d="M167.461 192.836v2.927c0 1.565-.42 3.03-1.156 4.287a8.522 8.522 0 01-7.369 4.237H55.71a1.236 1.236 0 01-1.237-1.236v-.438c0-.682.553-1.235 1.237-1.235h62.926c.336-.41.632-.854.883-1.328.59-1.11.922-2.375.922-3.719v-3.722a7.737 7.737 0 00-1.715-4.868H55.71a1.236 1.236 0 01-1.237-1.237v-.437c0-.683.553-1.236 1.237-1.236h103.745a8.006 8.006 0 018.006 8.005z" fill="#699DEE"/><path d="M167.151 190.631h-46.965a7.77 7.77 0 00-1.46-2.889H55.71a1.236 1.236 0 01-1.237-1.237v-.436c0-.684.553-1.237 1.237-1.237h103.745a8.007 8.007 0 017.696 5.799z" fill="#548EE2"/><path d="M57.397 194.559l7.644.328-7.644.197v-.525zm0 3.054l18.184.327-18.184.198v-.525z" fill="#F4D2B8"/><path d="M70.535 219.38h58.642v-15.133H70.06a7.329 7.329 0 00-7.329 7.329 7.804 7.804 0 007.804 7.804z" fill="#2B478B"/><path d="M125.812 219.38h66.739v-15.133h-66.91a7.45 7.45 0 00-7.451 7.451v.061a7.621 7.621 0 007.622 7.621z" fill="#FCECDB"/><path d="M113.734 219.38h81.134a1.13 1.13 0 100-2.263h-81.134a1.13 1.13 0 100 2.263zm0-12.87h81.134a1.13 1.13 0 100-2.263h-81.134a1.13 1.13 0 100 2.263z" fill="#2B478B"/><path d="M192.551 211.814l-9.015.254 9.015.153v-.407zm0-3.482l-21.449.253 21.449.154v-.407z" fill="#F4D2B8"/><path d="M171.324 208.534s.919.65 1.224 1.719c.053.187.087.387.095.598.051 1.42 0 4.634 0 4.634l2.713-1.607 2.705 1.607v-4.356c0-.824-.232-1.625-.663-2.15-.209-.253-.463-.445-.75-.445h-5.324z" fill="#699DEE"/><path d="M171.324 208.534s.919.65 1.224 1.719l5.438.064s-.212-1.53-1.336-1.783h-5.326z" fill="#568CDB"/><path d="M118.986 184.873h59.915v-22.234h-60.112a8.688 8.688 0 00-8.688 8.688v4.661a8.885 8.885 0 008.885 8.885z" fill="#FCECDB"/><path d="M111.511 171.266v4.785c.014 2.044 1.146 3.816 2.808 4.765a5.59 5.59 0 002.769.732h65.066c.763 0 1.382.618 1.382 1.381v.565c0 .762-.619 1.381-1.382 1.381H69.751a9.504 9.504 0 01-7.797-4.058 9.473 9.473 0 01-1.723-5.462v-3.776a8.938 8.938 0 018.939-8.938h112.984a1.38 1.38 0 011.382 1.38v.564c0 .763-.619 1.381-1.382 1.381H116.89c-1.56 0-2.971.664-3.958 1.726a5.274 5.274 0 00-1.421 3.574z" fill="#B5453C"/><path d="M178.901 173.756l-8.34.373 8.34.226v-.599zm0-5.117l-19.845.373 19.845.226v-.599z" fill="#F4D2B8"/><path d="M159.261 168.939s1.309.705 1.743 1.863c.076.203.126.42.136.648.072 1.54 0 5.025 0 5.025l3.866-1.743 3.856 1.743v-4.723c0-.893-.331-1.761-.946-2.33-.298-.275-.66-.483-1.068-.483h-7.587z" fill="#F99746"/><path d="M159.261 168.939s1.309.705 1.743 1.863l7.749.07s-.304-1.66-1.904-1.933h-7.588z" fill="#ED7D2B"/></g><g filter="url(#filter1_d)"><path d="M120.028 154.395c3.429 5.969 7.743 8.272 7.743 8.272h17.946c-.001 0-28.305-12.826-25.689-8.272z" fill="#233862"/><path d="M133.81 200.577c.468.536.528 1.134.296 1.774 0 .003-.001.007-.004.009-.428 1.182-1.842 2.503-3.484 3.822a15.265 15.265 0 00-.684.578l-.096.087c-1.532 1.412-.956 1.735-3.707 4.6-3.137 3.265-5.299 3.323-5.913 3.027-.52-.254.536-1.986 1.708-3.932l.17-.283c.156-.258.31-.522.465-.782 1.371-2.342 1.02-3.44.694-6.926-.264-2.832-4.407-15.824-4.407-15.824l6.013-1.035s1.811 10.345 3.807 11.938c1.066.849 2.26.859 3.286 1.489.072.044.143.089.212.135.582.387 1.176.785 1.644 1.323z" fill="#FFB27D"/><path d="M133.81 200.577c.468.536.528 1.134.296 1.774 0 .003-.001.007-.004.008-.525 1.182-1.903 2.496-3.49 3.811a18.018 18.018 0 00-.678.59l-.096.087c-1.532 1.412-.956 1.735-3.707 4.6-3.137 3.265-5.299 3.323-5.913 3.027-.52-.254.536-1.986 1.708-3.932.611-.224 3.447-1.375 5.593-4.121 1.889-2.411 3.15-5.508 4.436-7.302.072.044.143.089.213.135.58.387 1.174.785 1.642 1.323z" fill="#233862"/><path d="M85.327 196.821c-.372 1.857-3.017 1.546-5.972.824-2.956-.722-2.254.136-6.46-.329-4.206-.465-5.481-2.034-5.609-2.659-.115-.554 1.964-.75 4.194-1.007.28-.031.561-.067.843-.101 2.518-.316 4.361-1.94 6.648-3.274 2.165-1.264 5.397-6.412 5.397-6.412l5.77.457s-3.029 4.598-4.199 6.597c-.689 1.176-.652 2.73-.565 3.932.042.652.085 1.318-.047 1.972z" fill="#FFB27D"/><path d="M79.355 197.645c-2.956-.721-2.254.137-6.46-.329-4.206-.465-5.481-2.033-5.609-2.659-.115-.554 1.964-.75 4.194-1.007l.021.043s2.523 1.788 6.024 1.872c2.854.069 5.877-.749 7.849-.716.045.652.088 1.32-.044 1.974-.375 1.855-3.02 1.544-5.975.822zm28.081-37.712l5.394 14.512 7.041 18.949s1.91.184 3.741-.342c1.685-.487 3.618-1.762 3.618-1.762s-1.956-20.345-5.602-32.023c-.935-2.998-1.983-5.424-3.138-6.788-5.656-6.682-11.054 7.454-11.054 7.454z" fill="#233862"/><path d="M112.919 136.886c3.533-1.14 13.61.324 23.733 2.305l2.12-3.496 21.864-1.707s7.216 15.999 3.265 26.195c-.58 1.499-1.734 2.459-3.7 2.491 0 .002-.319-.001-.319 0 0 0-13.013-.007-17.24-.007-10.873 0-23.012-7.475-24.582-7.788-2.57-.515-3.598 4.626-6.169 10.023-2.57 5.398-24.16 23.904-24.16 23.904s-3.319.032-4.689-.481c-1.473-.553-2.014-1.271-2.014-1.271s23.924-47.598 31.891-50.168z" fill="#2B478B"/><path d="M138.9 105.584c7.786 4.288 23.581 13.175 23.664 13.117 0 0 5.806 2.188 9.099 0 5.489-3.646 8.434-13.457-1.606-21.9-5.006-4.211-8.564-5.237-9.104-11.962-.294-3.647-5.28-15.688-13.565-14.573-.692.094-4.954.292-7.755 1.763-7.139 3.748-12.406 31.896-.733 33.555z" fill="#233862"/><path d="M145.425 101.935c-.034.023 3.83 1.342 6.416.197 2.431-1.075 4.273-5.074 4.237-5.077-1.106-.05-2.32-1.018-3.256-7.363l-.471.169-7.919 2.849s.575 2.541.945 4.96c.313 2.032.48 3.977.048 4.265z" fill="#FFB27D"/><path d="M144.432 92.711s.575 2.542.945 4.96c4.548-.819 6.333-5.351 6.973-7.81l-7.918 2.85z" fill="#ED975D"/><path d="M143.254 95.233s10.833-1.454 9.825-8.187c-1.01-6.734-.291-11.455-7.251-10.812-6.961.644-7.917 3.413-8.125 5.743-.211 2.33 2.706 13.46 5.551 13.256z" fill="#FFB27D"/><path d="M138.097 78.287s6.935 5.976 11.653 6.459c4.717.482 6.504-1.033 6.504-1.033s-2.781-2.309-4.454-6.034a3.32 3.32 0 00-2.735-1.956c-3.369-.29-9.755-.424-10.968 2.564z" fill="#233862"/><path d="M142.433 77.751s-2.321 2.244-3.051 3.907c-.705 1.606-.916 5.446-.354 6.972 0 0-3.615-7.03-1.569-10.445 2.168-3.62 4.974-.434 4.974-.434z" fill="#233862"/><path d="M136.302 117.896c.327 21.93.089 17.348 2.489 19.429.578.5 2.204.799 4.342.94 6.725.447 18.546-.661 18.995-1.905 1.552-4.3.457-5.636 1.75-12.219.135-.7.302-1.458.498-2.283 1.079-4.521 2.129-6.06-1.699-13.324-3.472-6.58-7.078-11.921-7.403-11.728-9.158 5.437-9.897.866-9.897.866s-9.235 9.526-9.075 20.224z" fill="#fff"/><path d="M112.828 174.444l7.041 18.948s1.911.185 3.742-.342c1.684-.486 3.617-1.761 3.617-1.761s-1.955-20.345-5.602-32.024l-8.798 15.179z" fill="#2B478B"/><path d="M145.378 97.67s-9.424 1.599-10.531 5.656l-7.62 27.913s4.791.861 7.004-1.353c2.214-2.214 7.701-20.534 7.701-20.534l3.446-11.681z" fill="#fff"/><path d="M143.133 138.265c6.725.446 18.546-.661 18.995-1.905 1.552-4.3.457-5.636 1.75-12.219l-3.243-9.133s.536 10.171-2.463 12.846c-2.997 2.675-12.28 5.164-13.74 7.399-.702 1.073-1.164 2.148-1.299 3.012z" fill="#EBF3FF"/><path d="M150.838 133.988s-6.634-1.478-7.705-.888c-1.071.588-3.687 2.733-4.015 3.479-.327.746 2.383-.566 3.265-.803.571-.153 2.075.369 2.818.617 3.131 1.044 5.05.506 5.05.506l.587-2.911z" fill="#FFB27D"/><path d="M155.281 96.8s8.909.549 11.992 4.85c4.341 6.054 12.953 31.858 8.017 35.3-5.557 3.876-25.296 1.014-25.296 1.014s-.656-3.07.257-4.555c.913-1.485 15.764-3.884 16.451-4.569.685-.685-8.567-13.367-8.567-15.423 0-2.057-2.854-16.617-2.854-16.617z" fill="#fff"/><path d="M142.813 134.946s-1.39 1.793-1.845 2.007c-.456.214-.751.16-.751.16l.938-1.686 1.658-.481zm.32-1.846l-4.042 1.962s.172.281.67.258c.498-.022 1.753-.482 1.753-.482l1.619-1.738z" fill="#FFB27D"/><path d="M140.966 139.7h-31.97l-9.618-23.916H131.3l9.666 23.916z" fill="#FFAB18"/><path d="M108.62 138.768h42.218v.932h-41.842l-.376-.932z" fill="#FFAB18"/><path d="M117.066 127.742c-.241-.841.245-1.522 1.086-1.522.841 0 1.717.683 1.958 1.522.242.841-.245 1.522-1.086 1.522-.839 0-1.717-.681-1.958-1.522z" fill="#fff"/></g><defs><filter id="filter0_d" x="44.473" y="154.639" width="171.527" height="86.741" filterUnits="userSpaceOnUse" color-interpolation-filters="sRGB"><feFlood flood-opacity="0" result="BackgroundImageFix"/><feColorMatrix in="SourceAlpha" values="0 0 0 0 0 0 0 0 0 0 0 0 0 0 0 0 0 0 127 0" result="hardAlpha"/><feOffset dx="5" dy="7"/><feGaussianBlur stdDeviation="7.5"/><feComposite in2="hardAlpha" operator="out"/><feColorMatrix values="0 0 0 0 0 0 0 0 0 0 0 0 0 0 0 0 0 0 0.65 0"/><feBlend in2="BackgroundImageFix" result="effect1_dropShadow"/><feBlend in="SourceGraphic" in2="effect1_dropShadow" result="shape"/></filter><filter id="filter1_d" x="57.282" y="62.194" width="139.491" height="174.394" filterUnits="userSpaceOnUse" color-interpolation-filters="sRGB"><feFlood flood-opacity="0" result="BackgroundImageFix"/><feColorMatrix in="SourceAlpha" values="0 0 0 0 0 0 0 0 0 0 0 0 0 0 0 0 0 0 127 0" result="hardAlpha"/><feOffset dx="5" dy="7"/><feGaussianBlur stdDeviation="7.5"/><feComposite in2="hardAlpha" operator="out"/><feColorMatrix values="0 0 0 0 0 0 0 0 0 0 0 0 0 0 0 0 0 0 0.65 0"/><feBlend in2="BackgroundImageFix" result="effect1_dropShadow"/><feBlend in="SourceGraphic" in2="effect1_dropShadow" result="shape"/></filter></defs></svg>