<svg width="250" height="255" fill="none" xmlns="http://www.w3.org/2000/svg"><circle cx="125" cy="125" r="125" fill="#F1F1F1"/><g filter="url(#filter0_d)"><path fill-rule="evenodd" clip-rule="evenodd" d="M103.902 103.383c-4.097-1.538-10.12-5.893-7.3-14.858 2.819-8.965 7.043-18.701 11.657-24.464 4.611-5.765 14.217-10.887 22.672-6.276 8.455 4.612 12.168 16.012 14.858 25.875 2.689 9.863 3.203 14.73 1.024 15.882-2.179 1.154-9.606 5.125-13.193 6.276-10.473 3.366-19.638 1.345-29.718-2.435z" fill="#060C97"/><path fill-rule="evenodd" clip-rule="evenodd" d="M116.454 97.49s.127 13.577-1.538 18.572c-1.665 4.994-4.481 8.324-4.481 8.324 9.651 7.896 19.012 7.896 28.664 0 0 0-2.819-3.33-4.481-8.324-1.665-4.995-1.538-18.572-1.538-18.572h-16.626z" fill="#FEA67E"/><path fill-rule="evenodd" clip-rule="evenodd" d="M116.454 97.49s.018 1.992-.051 4.729c1.858 2.974 4.118 5.188 6.119 6.119 1.492.695 3.478.701 4.973.015 1.835-.843 3.889-2.768 5.657-5.372-.097-3.122-.073-5.488-.073-5.488h-16.625v-.003z" fill="#F08666"/><path fill-rule="evenodd" clip-rule="evenodd" d="M99.481 124.967c-18.665 5.251-16.543 6.415-28.177 20.556-6.533 7.941-13.323 21.648-15.371 29.716-2.644 10.409.407 23.551 8.216 24.382 2.985.317 6.671-1.167 10.995-5.297 2.82-2.69 5.766-9.736 5.766-9.736l43.029 1.344v.064l1.03-.033 1.031.033v-.064l43.029-1.344s2.946 7.046 5.765 9.736c4.327 4.13 8.011 5.614 10.996 5.297 7.808-.831 10.86-13.973 8.216-24.382-2.049-8.071-8.839-21.775-15.371-29.716-11.634-14.141-9.513-15.308-28.178-20.556-3.858-1.085-9.446-4.406-13.005-6.66-6.672 6.309-18.293 6.309-24.965 0-3.56 2.254-9.147 5.575-13.006 6.66z" fill="#FFDE81"/><path fill-rule="evenodd" clip-rule="evenodd" d="M89.05 156.311s-27.666 18.571-31.253 25.234c-6.3 11.703 4.357 24.053 15.395 16.175 4.757-3.393 7.64-9.219 9.691-13.872a12188.98 12188.98 0 008.216-18.699l-2.049-8.838zm72.4 0s27.667 18.571 31.254 25.234c6.3 11.703-4.361 24.053-15.396 16.175-4.756-3.393-7.639-9.219-9.691-13.872a12188.98 12188.98 0 01-8.216-18.699l2.049-8.838z" fill="#FFDE81"/><path fill-rule="evenodd" clip-rule="evenodd" d="M103.162 153.522s2.804.855 2.731 2.423c-.072 1.568-1.226 3.324-2.112 3.397-.888.072-1.9-.665-2.067-1.662-.166-.998.239-1.52-.024-2.137-.26-.619 1.472-2.021 1.472-2.021zm44.177 0s-2.804.855-2.732 2.423c.073 1.568 1.227 3.324 2.112 3.397.889.072 1.901-.665 2.067-1.662.166-.998-.238-1.52.024-2.137.263-.619-1.471-2.021-1.471-2.021z" fill="#FEA67E"/><path fill-rule="evenodd" clip-rule="evenodd" d="M126.683 140.701c24.333-.139 44.177 19.559 44.316 43.999.139 24.439-19.472 44.364-43.809 44.503-24.336.139-44.177-19.559-44.316-43.999-.142-24.439 19.472-44.364 43.809-44.503zm.184 32.305c5.209-.031 9.651 3.305 11.292 7.974 5.605-.604 20.541-1.112 23.548-7.609-4.859-14.715-18.71-25.297-34.982-25.204-16.595.094-30.546 11.262-34.958 26.485 4.149 5.711 17.976 5.968 23.874 6.533 1.563-4.726 5.989-8.149 11.226-8.179zm10.114 18.347a11.96 11.96 0 01-5.01 4.424l-1.109 25.745c16.447-1.762 29.615-14.444 32.226-30.655-7.228-7.482-17.716-1.916-26.107.486zm-14.955 4.485a11.965 11.965 0 01-4.88-4.098c-8.05-2.206-19.27-7.826-26.403-1.13 2.538 16.505 15.99 29.365 32.685 30.957l-1.402-25.729z" fill="#4C3952"/><path fill-rule="evenodd" clip-rule="evenodd" d="M108.963 79.263s.42 11.144 3.43 17.1c2.393 4.738 6.234 8.425 9.494 9.7 1.777.695 4.137.701 5.917.015 3.266-1.26 7.131-4.956 9.533-9.715 3.007-5.956 3.43-17.1 3.43-17.1s-.541-3.65-4.995-6.98c-4.234-3.166-10.319-3.09-10.905-3.076-.59-.015-6.675-.09-10.909 3.076-4.454 3.33-4.995 6.98-4.995 6.98z" fill="#FEA67E"/><path fill-rule="evenodd" clip-rule="evenodd" d="M109.667 97.62s-1.408-12.809 6.66-17.547c8.071-4.738 10.247-7.94 10.247-7.94s5.892 2.305 8.838 7.94c2.946 5.636 4.101 16.907 4.101 16.907s2.946.77 4.611-6.276c1.665-7.047-1.127-14.32-5.766-22.672-4.635-8.352-17.036-7.174-24.209-3.073-7.174 4.097-9.863 8.965-9.863 16.012.003 7.043 5.381 16.65 5.381 16.65z" fill="#0008BE"/><path d="M59.223 180.092a.52.52 0 01-.35-.136.515.515 0 01-.024-.726c.039-.042 3.916-4.188 8.892-8.046 5.98-4.639 12.196-9.177 18.203-13.565l3.058-2.236a.512.512 0 11.604.828l-3.06 2.236c-5.999 4.385-12.205 8.917-18.176 13.547-4.91 3.807-8.733 7.895-8.772 7.934a.504.504 0 01-.375.164zm132.054 0a.506.506 0 01-.374-.164c-.037-.042-3.865-4.13-8.772-7.935-5.983-4.641-12.205-9.183-18.224-13.579l-3.019-2.206a.512.512 0 11.604-.828l3.016 2.206c6.022 4.399 12.25 8.947 18.245 13.595 4.977 3.858 8.857 8.004 8.893 8.046a.515.515 0 01-.024.725.47.47 0 01-.345.14z" fill="#F2B54B"/><path fill-rule="evenodd" clip-rule="evenodd" d="M101.418 154.927s-3.514-3.058-5.324-3.968c-1.813-.906-3.683-.68-4.306.396-.622 1.076-.568 1.587-1.417 2.155-.85.565-1.698.622-1.87 2.097-.17 1.474.283 1.021-.68 1.813-.964.794-2.04 1.471-2.04 2.435s-.058 1.36-.51 2.493c-.454 1.133-.886 1.961.68 3.511 1.564 1.55 5.133 2.56 6.457 3.173 1.326.614 3.057 1.245 3.91.058.849-1.191 1.302-3.116 2.72-4.476.561-.537 1.268-2.003 2.41-3.429 1.563-1.943 2.496-2.804 1.683-4.212-.32-.563-.598-1.209-1.713-2.046zm47.667 0s3.515-3.058 5.325-3.968c1.813-.906 3.68-.68 4.306.396.622 1.076.568 1.587 1.417 2.155.849.565 1.698.622 1.87 2.097.169 1.474-.284 1.021.68 1.813.964.794 2.04 1.471 2.04 2.435s.057 1.36.51 2.493c.454 1.133.886 1.961-.68 3.511-1.565 1.55-5.133 2.56-6.457 3.173-1.326.614-3.058 1.245-3.907.058-.849-1.191-1.302-3.116-2.719-4.476-.562-.537-1.267-2.003-2.412-3.429-1.562-1.943-2.499-2.804-1.683-4.212.314-.563.595-1.209 1.71-2.046z" fill="#FEA67E"/></g><defs><filter id="filter0_d" x="47" y="51" width="169.939" height="203.204" filterUnits="userSpaceOnUse" color-interpolation-filters="sRGB"><feFlood flood-opacity="0" result="BackgroundImageFix"/><feColorMatrix in="SourceAlpha" values="0 0 0 0 0 0 0 0 0 0 0 0 0 0 0 0 0 0 127 0" result="hardAlpha"/><feOffset dx="7" dy="10"/><feGaussianBlur stdDeviation="7.5"/><feComposite in2="hardAlpha" operator="out"/><feColorMatrix values="0 0 0 0 0 0 0 0 0 0 0 0 0 0 0 0 0 0 0.65 0"/><feBlend in2="BackgroundImageFix" result="effect1_dropShadow"/><feBlend in="SourceGraphic" in2="effect1_dropShadow" result="shape"/></filter></defs></svg>